<ttFont>
    <TTGlyph name="A" xMin="-164" yMin="-231" xMax="1012" yMax="686">
      <contour>
        <pt x="1012" y="-98" on="1"/>
        <pt x="478" y="-231" on="1"/>
        <pt x="616" y="-87" on="1"/>
        <pt x="590" y="-26" on="0"/>
        <pt x="537" y="96" on="0"/>
        <pt x="509" y="157" on="1"/>
        <pt x="437" y="152" on="0"/>
        <pt x="294" y="151" on="0"/>
        <pt x="222" y="146" on="1"/>
        <pt x="208" y="120" on="0"/>
        <pt x="181" y="69" on="0"/>
        <pt x="167" y="43" on="1"/>
        <pt x="349" y="-76" on="1"/>
        <pt x="-164" y="-42" on="1"/>
        <pt x="82" y="62" on="1"/>
        <pt x="337" y="549" on="1"/>
        <pt x="68" y="686" on="1"/>
        <pt x="452" y="670" on="1"/>
        <pt x="798" y="-35" on="1"/>
      </contour>
      <contour>
        <pt x="473" y="244" on="1"/>
        <pt x="450" y="294" on="0"/>
        <pt x="402" y="392" on="0"/>
        <pt x="379" y="442" on="1"/>
        <pt x="353" y="394" on="0"/>
        <pt x="302" y="301" on="0"/>
        <pt x="276" y="253" on="1"/>
      </contour>
    </TTGlyph>
    <TTGlyph name="AE" xMin="-266" yMin="-67" xMax="1004" yMax="740">
      <contour>
        <pt x="1004" y="740" on="1"/>
        <pt x="989" y="384" on="1"/>
        <pt x="878" y="645" on="1"/>
        <pt x="616" y="622" on="1"/>
        <pt x="611" y="356" on="1"/>
        <pt x="697" y="361" on="1"/>
        <pt x="799" y="568" on="1"/>
        <pt x="788" y="94" on="1"/>
        <pt x="692" y="250" on="1"/>
        <pt x="608" y="256" on="1"/>
        <pt x="604" y="63" on="1"/>
        <pt x="883" y="65" on="1"/>
        <pt x="975" y="357" on="1"/>
        <pt x="978" y="-18" on="1"/>
        <pt x="191" y="-24" on="1"/>
        <pt x="443" y="72" on="1"/>
        <pt x="440" y="163" on="1"/>
        <pt x="147" y="156" on="1"/>
        <pt x="77" y="53" on="1"/>
        <pt x="242" y="-67" on="1"/>
        <pt x="-266" y="-32" on="1"/>
        <pt x="-5" y="72" on="1"/>
        <pt x="294" y="558" on="1"/>
        <pt x="74" y="696" on="1"/>
      </contour>
      <contour>
        <pt x="437" y="257" on="1"/>
        <pt x="428" y="579" on="1"/>
        <pt x="217" y="262" on="1"/>
      </contour>
    </TTGlyph>
    <TTGlyph name="Aacute" xMin="-164" yMin="-231" xMax="1012" yMax="1019">
      <component glyphName="A" x="0" y="0" flags="0x204"/>
      <component glyphName="acute" x="31" y="20" flags="0x4"/>
    </TTGlyph>
    <TTGlyph name="Acircumflex" xMin="-164" yMin="-231" xMax="1012" yMax="985">
      <component glyphName="A" x="0" y="0" flags="0x204"/>
      <component glyphName="circumflex" x="0" y="41" flags="0x4"/>
    </TTGlyph>
    <TTGlyph name="Adieresis" xMin="-164" yMin="-231" xMax="1012" yMax="887">
      <component glyphName="A" x="0" y="0" flags="0x204"/>
      <component glyphName="dieresis" x="41" y="-81" flags="0x4"/>
    </TTGlyph>
    <TTGlyph name="Agrave" xMin="-164" yMin="-231" xMax="1012" yMax="1026">
      <component glyphName="A" x="0" y="0" flags="0x204"/>
      <component glyphName="grave" x="-40" y="174" flags="0x4"/>
    </TTGlyph>
    <TTGlyph name="Aring" xMin="-164" yMin="-231" xMax="1012" yMax="869">
      <contour>
        <pt x="473" y="244" on="1"/>
        <pt x="450" y="294" on="0"/>
        <pt x="402" y="392" on="0"/>
        <pt x="379" y="442" on="1"/>
        <pt x="353" y="394" on="0"/>
        <pt x="302" y="301" on="0"/>
        <pt x="276" y="253" on="1"/>
      </contour>
      <contour>
        <pt x="519" y="760" on="1"/>
        <pt x="519" y="728" on="0"/>
        <pt x="483" y="676" on="0"/>
        <pt x="455" y="662" on="1"/>
        <pt x="798" y="-35" on="1"/>
        <pt x="1012" y="-98" on="1"/>
        <pt x="478" y="-231" on="1"/>
        <pt x="616" y="-87" on="1"/>
        <pt x="590" y="-26" on="0"/>
        <pt x="537" y="96" on="0"/>
        <pt x="509" y="157" on="1"/>
        <pt x="437" y="152" on="0"/>
        <pt x="294" y="151" on="0"/>
        <pt x="222" y="146" on="1"/>
        <pt x="208" y="120" on="0"/>
        <pt x="181" y="69" on="0"/>
        <pt x="167" y="43" on="1"/>
        <pt x="349" y="-76" on="1"/>
        <pt x="-164" y="-42" on="1"/>
        <pt x="82" y="62" on="1"/>
        <pt x="337" y="549" on="1"/>
        <pt x="68" y="686" on="1"/>
        <pt x="347" y="674" on="1"/>
        <pt x="327" y="689" on="0"/>
        <pt x="302" y="734" on="0"/>
        <pt x="302" y="760" on="1"/>
        <pt x="302" y="782" on="0"/>
        <pt x="320" y="821" on="0"/>
        <pt x="350" y="851" on="0"/>
        <pt x="389" y="869" on="0"/>
        <pt x="411" y="869" on="1"/>
        <pt x="433" y="869" on="0"/>
        <pt x="472" y="851" on="0"/>
        <pt x="502" y="821" on="0"/>
        <pt x="519" y="782" on="0"/>
      </contour>
      <contour>
        <pt x="451" y="758" on="1"/>
        <pt x="451" y="775" on="0"/>
        <pt x="428" y="798" on="0"/>
        <pt x="411" y="798" on="1"/>
        <pt x="394" y="798" on="0"/>
        <pt x="371" y="775" on="0"/>
        <pt x="371" y="758" on="1"/>
        <pt x="371" y="743" on="0"/>
        <pt x="397" y="721" on="0"/>
        <pt x="411" y="721" on="1"/>
        <pt x="425" y="721" on="0"/>
        <pt x="451" y="743" on="0"/>
      </contour>
    </TTGlyph>
    <TTGlyph name="Atilde" xMin="-164" yMin="-231" xMax="1012" yMax="939">
      <component glyphName="A" x="0" y="0" flags="0x204"/>
      <component glyphName="tilde" x="10" y="31" flags="0x4"/>
    </TTGlyph>
    <TTGlyph name="B" xMin="-113" yMin="-126" xMax="793" yMax="681">
      <contour>
        <pt x="793" y="465" on="1"/>
        <pt x="793" y="432" on="0"/>
        <pt x="756" y="372" on="0"/>
        <pt x="700" y="324" on="0"/>
        <pt x="634" y="290" on="0"/>
        <pt x="606" y="283" on="1"/>
        <pt x="634" y="274" on="0"/>
        <pt x="690" y="244" on="0"/>
        <pt x="735" y="202" on="0"/>
        <pt x="762" y="148" on="0"/>
        <pt x="762" y="115" on="1"/>
        <pt x="762" y="75" on="0"/>
        <pt x="713" y="17" on="0"/>
        <pt x="634" y="-25" on="0"/>
        <pt x="537" y="-52" on="0"/>
        <pt x="440" y="-69" on="0"/>
        <pt x="354" y="-79" on="0"/>
        <pt x="327" y="-82" on="1"/>
        <pt x="-81" y="-126" on="1"/>
        <pt x="147" y="9" on="1"/>
        <pt x="100" y="555" on="1"/>
        <pt x="-113" y="681" on="1"/>
        <pt x="385" y="671" on="1"/>
        <pt x="415" y="670" on="0"/>
        <pt x="500" y="662" on="0"/>
        <pt x="590" y="645" on="0"/>
        <pt x="679" y="615" on="0"/>
        <pt x="750" y="570" on="0"/>
        <pt x="793" y="507" on="0"/>
      </contour>
      <contour>
        <pt x="626" y="465" on="1"/>
        <pt x="626" y="488" on="0"/>
        <pt x="598" y="521" on="0"/>
        <pt x="552" y="545" on="0"/>
        <pt x="497" y="560" on="0"/>
        <pt x="441" y="569" on="0"/>
        <pt x="393" y="572" on="0"/>
        <pt x="378" y="572" on="1"/>
        <pt x="354" y="572" on="0"/>
        <pt x="306" y="569" on="0"/>
        <pt x="283" y="567" on="1"/>
        <pt x="289" y="357" on="1"/>
        <pt x="310" y="355" on="0"/>
        <pt x="353" y="352" on="0"/>
        <pt x="374" y="352" on="1"/>
        <pt x="398" y="352" on="0"/>
        <pt x="482" y="361" on="0"/>
        <pt x="565" y="385" on="0"/>
        <pt x="626" y="429" on="0"/>
      </contour>
      <contour>
        <pt x="572" y="134" on="1"/>
        <pt x="572" y="157" on="0"/>
        <pt x="541" y="192" on="0"/>
        <pt x="493" y="217" on="0"/>
        <pt x="433" y="233" on="0"/>
        <pt x="374" y="242" on="0"/>
        <pt x="323" y="246" on="0"/>
        <pt x="307" y="246" on="1"/>
        <pt x="304" y="246" on="1"/>
        <pt x="312" y="8" on="1"/>
        <pt x="327" y="9" on="0"/>
        <pt x="378" y="16" on="0"/>
        <pt x="436" y="29" on="0"/>
        <pt x="495" y="50" on="0"/>
        <pt x="542" y="77" on="0"/>
        <pt x="572" y="112" on="0"/>
      </contour>
    </TTGlyph>
    <TTGlyph name="C" xMin="20" yMin="-81" xMax="776" yMax="772">
      <contour>
        <pt x="776" y="772" on="1"/>
        <pt x="708" y="355" on="1"/>
        <pt x="695" y="398" on="0"/>
        <pt x="652" y="484" on="0"/>
        <pt x="590" y="551" on="0"/>
        <pt x="509" y="593" on="0"/>
        <pt x="459" y="593" on="1"/>
        <pt x="402" y="593" on="0"/>
        <pt x="310" y="552" on="0"/>
        <pt x="245" y="481" on="0"/>
        <pt x="211" y="385" on="0"/>
        <pt x="211" y="330" on="1"/>
        <pt x="211" y="270" on="0"/>
        <pt x="244" y="167" on="0"/>
        <pt x="310" y="90" on="0"/>
        <pt x="406" y="47" on="0"/>
        <pt x="469" y="47" on="1"/>
        <pt x="569" y="47" on="0"/>
        <pt x="684" y="157" on="0"/>
        <pt x="698" y="254" on="1"/>
        <pt x="766" y="-81" on="1"/>
        <pt x="685" y="35" on="1"/>
        <pt x="662" y="9" on="0"/>
        <pt x="602" y="-26" on="0"/>
        <pt x="534" y="-48" on="0"/>
        <pt x="463" y="-58" on="0"/>
        <pt x="430" y="-58" on="1"/>
        <pt x="343" y="-58" on="0"/>
        <pt x="194" y="-2" on="0"/>
        <pt x="83" y="102" on="0"/>
        <pt x="20" y="247" on="0"/>
        <pt x="20" y="336" on="1"/>
        <pt x="20" y="424" on="0"/>
        <pt x="85" y="561" on="0"/>
        <pt x="197" y="655" on="0"/>
        <pt x="346" y="703" on="0"/>
        <pt x="429" y="703" on="1"/>
        <pt x="458" y="703" on="0"/>
        <pt x="521" y="692" on="0"/>
        <pt x="583" y="670" on="0"/>
        <pt x="637" y="637" on="0"/>
        <pt x="657" y="615" on="1"/>
      </contour>
    </TTGlyph>
    <TTGlyph name="Ccedilla" xMin="20" yMin="-354" xMax="776" yMax="772">
      <contour>
        <pt x="509" y="-230" on="1"/>
        <pt x="509" y="-284" on="0"/>
        <pt x="440" y="-354" on="0"/>
        <pt x="385" y="-354" on="1"/>
        <pt x="345" y="-354" on="0"/>
        <pt x="295" y="-321" on="0"/>
        <pt x="269" y="-294" on="1"/>
        <pt x="325" y="-232" on="1"/>
        <pt x="336" y="-244" on="0"/>
        <pt x="366" y="-271" on="0"/>
        <pt x="383" y="-271" on="1"/>
        <pt x="403" y="-271" on="0"/>
        <pt x="425" y="-249" on="0"/>
        <pt x="425" y="-230" on="1"/>
        <pt x="425" y="-210" on="0"/>
        <pt x="402" y="-192" on="0"/>
        <pt x="385" y="-188" on="1"/>
        <pt x="356" y="-183" on="0"/>
        <pt x="299" y="-176" on="0"/>
        <pt x="270" y="-171" on="1"/>
        <pt x="348" y="-52" on="1"/>
        <pt x="277" y="-40" on="0"/>
        <pt x="156" y="26" on="0"/>
        <pt x="69" y="127" on="0"/>
        <pt x="20" y="258" on="0"/>
        <pt x="20" y="336" on="1"/>
        <pt x="20" y="424" on="0"/>
        <pt x="85" y="561" on="0"/>
        <pt x="197" y="655" on="0"/>
        <pt x="346" y="703" on="0"/>
        <pt x="429" y="703" on="1"/>
        <pt x="458" y="703" on="0"/>
        <pt x="521" y="692" on="0"/>
        <pt x="583" y="670" on="0"/>
        <pt x="637" y="637" on="0"/>
        <pt x="657" y="615" on="1"/>
        <pt x="776" y="772" on="1"/>
        <pt x="708" y="355" on="1"/>
        <pt x="695" y="398" on="0"/>
        <pt x="652" y="484" on="0"/>
        <pt x="590" y="551" on="0"/>
        <pt x="509" y="593" on="0"/>
        <pt x="459" y="593" on="1"/>
        <pt x="402" y="593" on="0"/>
        <pt x="310" y="552" on="0"/>
        <pt x="245" y="481" on="0"/>
        <pt x="211" y="385" on="0"/>
        <pt x="211" y="330" on="1"/>
        <pt x="211" y="270" on="0"/>
        <pt x="244" y="167" on="0"/>
        <pt x="310" y="90" on="0"/>
        <pt x="406" y="47" on="0"/>
        <pt x="469" y="47" on="1"/>
        <pt x="569" y="47" on="0"/>
        <pt x="684" y="157" on="0"/>
        <pt x="698" y="254" on="1"/>
        <pt x="766" y="-81" on="1"/>
        <pt x="685" y="35" on="1"/>
        <pt x="662" y="9" on="0"/>
        <pt x="602" y="-27" on="0"/>
        <pt x="534" y="-49" on="0"/>
        <pt x="463" y="-58" on="0"/>
        <pt x="430" y="-58" on="1"/>
        <pt x="419" y="-58" on="1"/>
        <pt x="414" y="-72" on="0"/>
        <pt x="407" y="-98" on="0"/>
        <pt x="399" y="-111" on="1"/>
        <pt x="423" y="-111" on="0"/>
        <pt x="464" y="-131" on="0"/>
        <pt x="493" y="-164" on="0"/>
        <pt x="509" y="-207" on="0"/>
      </contour>
    </TTGlyph>
    <TTGlyph name="D" xMin="-113" yMin="-34" xMax="854" yMax="688">
      <contour>
        <pt x="854" y="352" on="1"/>
        <pt x="854" y="261" on="0"/>
        <pt x="802" y="126" on="0"/>
        <pt x="704" y="36" on="0"/>
        <pt x="563" y="-9" on="0"/>
        <pt x="474" y="-9" on="1"/>
        <pt x="414" y="-9" on="0"/>
        <pt x="297" y="-17" on="0"/>
        <pt x="238" y="-20" on="1"/>
        <pt x="-18" y="-34" on="1"/>
        <pt x="201" y="83" on="1"/>
        <pt x="201" y="89" on="1"/>
        <pt x="201" y="210" on="0"/>
        <pt x="177" y="446" on="0"/>
        <pt x="169" y="565" on="1"/>
        <pt x="-113" y="688" on="1"/>
        <pt x="-34" y="686" on="0"/>
        <pt x="122" y="682" on="0"/>
        <pt x="201" y="682" on="1"/>
        <pt x="264" y="682" on="0"/>
        <pt x="387" y="684" on="0"/>
        <pt x="449" y="684" on="1"/>
        <pt x="525" y="684" on="0"/>
        <pt x="671" y="643" on="0"/>
        <pt x="785" y="561" on="0"/>
        <pt x="854" y="436" on="0"/>
      </contour>
      <contour>
        <pt x="679" y="338" on="1"/>
        <pt x="679" y="392" on="0"/>
        <pt x="655" y="483" on="0"/>
        <pt x="603" y="548" on="0"/>
        <pt x="521" y="585" on="0"/>
        <pt x="463" y="585" on="1"/>
        <pt x="440" y="585" on="0"/>
        <pt x="395" y="584" on="0"/>
        <pt x="372" y="585" on="1"/>
        <pt x="346" y="82" on="1"/>
        <pt x="369" y="82" on="0"/>
        <pt x="411" y="81" on="0"/>
        <pt x="433" y="81" on="1"/>
        <pt x="433" y="83" on="1"/>
        <pt x="447" y="82" on="0"/>
        <pt x="471" y="81" on="0"/>
        <pt x="484" y="81" on="1"/>
        <pt x="543" y="81" on="0"/>
        <pt x="619" y="124" on="0"/>
        <pt x="662" y="195" on="0"/>
        <pt x="679" y="288" on="0"/>
      </contour>
    </TTGlyph>
    <TTGlyph name="E" xMin="-92" yMin="-24" xMax="759" yMax="740">
      <contour>
        <pt x="759" y="740" on="1"/>
        <pt x="743" y="384" on="1"/>
        <pt x="623" y="645" on="1"/>
        <pt x="342" y="622" on="1"/>
        <pt x="336" y="356" on="1"/>
        <pt x="429" y="361" on="1"/>
        <pt x="538" y="568" on="1"/>
        <pt x="527" y="94" on="1"/>
        <pt x="423" y="250" on="1"/>
        <pt x="334" y="256" on="1"/>
        <pt x="329" y="63" on="1"/>
        <pt x="629" y="65" on="1"/>
        <pt x="728" y="357" on="1"/>
        <pt x="731" y="-18" on="1"/>
        <pt x="-65" y="-24" on="1"/>
        <pt x="-5" y="0" on="0"/>
        <pt x="113" y="51" on="0"/>
        <pt x="173" y="72" on="1"/>
        <pt x="155" y="595" on="1"/>
        <pt x="92" y="614" on="0"/>
        <pt x="-30" y="656" on="0"/>
        <pt x="-92" y="677" on="1"/>
        <pt x="728" y="738" on="1"/>
      </contour>
    </TTGlyph>
    <TTGlyph name="Eacute" xMin="-92" yMin="-24" xMax="759" yMax="1019">
      <component glyphName="E" x="0" y="0" flags="0x204"/>
      <component glyphName="acute" x="51" y="20" flags="0x4"/>
    </TTGlyph>
    <TTGlyph name="Ecircumflex" xMin="-92" yMin="-24" xMax="759" yMax="1046">
      <component glyphName="E" x="0" y="0" flags="0x204"/>
      <component glyphName="circumflex" x="-19" y="102" flags="0x4"/>
    </TTGlyph>
    <TTGlyph name="Edieresis" xMin="-92" yMin="-24" xMax="759" yMax="918">
      <component glyphName="E" x="0" y="0" flags="0x204"/>
      <component glyphName="dieresis" x="41" y="-50" flags="0x4"/>
    </TTGlyph>
    <TTGlyph name="Egrave" xMin="-92" yMin="-24" xMax="759" yMax="1047">
      <component glyphName="E" x="0" y="0" flags="0x204"/>
      <component glyphName="grave" x="-19" y="195" flags="0x4"/>
    </TTGlyph>
    <TTGlyph name="Eth" xMin="0" yMin="-34" xMax="983" yMax="688">
      <contour>
        <pt x="983" y="352" on="1"/>
        <pt x="983" y="259" on="0"/>
        <pt x="929" y="123" on="0"/>
        <pt x="829" y="34" on="0"/>
        <pt x="686" y="-9" on="0"/>
        <pt x="597" y="-9" on="1"/>
        <pt x="537" y="-9" on="0"/>
        <pt x="416" y="-17" on="0"/>
        <pt x="356" y="-20" on="1"/>
        <pt x="95" y="-34" on="1"/>
        <pt x="318" y="83" on="1"/>
        <pt x="318" y="99" on="1"/>
        <pt x="318" y="141" on="0"/>
        <pt x="314" y="222" on="0"/>
        <pt x="311" y="264" on="1"/>
        <pt x="98" y="259" on="1"/>
        <pt x="105" y="390" on="1"/>
        <pt x="302" y="382" on="1"/>
        <pt x="297" y="428" on="0"/>
        <pt x="290" y="519" on="0"/>
        <pt x="286" y="565" on="1"/>
        <pt x="0" y="688" on="1"/>
        <pt x="80" y="686" on="0"/>
        <pt x="239" y="682" on="0"/>
        <pt x="318" y="682" on="1"/>
        <pt x="382" y="682" on="0"/>
        <pt x="508" y="684" on="0"/>
        <pt x="571" y="684" on="1"/>
        <pt x="647" y="684" on="0"/>
        <pt x="794" y="644" on="0"/>
        <pt x="911" y="563" on="0"/>
        <pt x="983" y="437" on="0"/>
      </contour>
      <contour>
        <pt x="805" y="338" on="1"/>
        <pt x="805" y="393" on="0"/>
        <pt x="780" y="484" on="0"/>
        <pt x="728" y="549" on="0"/>
        <pt x="644" y="585" on="0"/>
        <pt x="586" y="585" on="1"/>
        <pt x="562" y="585" on="0"/>
        <pt x="516" y="584" on="0"/>
        <pt x="493" y="585" on="1"/>
        <pt x="482" y="376" on="1"/>
        <pt x="651" y="369" on="1"/>
        <pt x="640" y="271" on="1"/>
        <pt x="476" y="267" on="1"/>
        <pt x="467" y="82" on="1"/>
        <pt x="484" y="82" on="0"/>
        <pt x="520" y="81" on="0"/>
        <pt x="537" y="81" on="1"/>
        <pt x="607" y="81" on="1"/>
        <pt x="666" y="81" on="0"/>
        <pt x="743" y="123" on="0"/>
        <pt x="788" y="194" on="0"/>
        <pt x="805" y="287" on="0"/>
      </contour>
    </TTGlyph>
    <TTGlyph name="Euro" xMin="-31" yMin="45" xMax="615" yMax="671">
      <contour>
        <pt x="615" y="298" on="1"/>
        <pt x="615" y="241" on="0"/>
        <pt x="574" y="148" on="0"/>
        <pt x="504" y="82" on="0"/>
        <pt x="409" y="45" on="0"/>
        <pt x="355" y="45" on="1"/>
        <pt x="310" y="45" on="0"/>
        <pt x="227" y="72" on="0"/>
        <pt x="158" y="121" on="0"/>
        <pt x="105" y="191" on="0"/>
        <pt x="90" y="233" on="1"/>
        <pt x="-31" y="237" on="1"/>
        <pt x="-25" y="302" on="1"/>
        <pt x="74" y="304" on="1"/>
        <pt x="72" y="315" on="0"/>
        <pt x="72" y="340" on="0"/>
        <pt x="72" y="351" on="1"/>
        <pt x="-31" y="349" on="1"/>
        <pt x="-26" y="449" on="1"/>
        <pt x="83" y="445" on="1"/>
        <pt x="97" y="496" on="0"/>
        <pt x="154" y="579" on="0"/>
        <pt x="232" y="639" on="0"/>
        <pt x="328" y="671" on="0"/>
        <pt x="380" y="671" on="1"/>
        <pt x="415" y="671" on="0"/>
        <pt x="493" y="646" on="0"/>
        <pt x="559" y="599" on="0"/>
        <pt x="602" y="534" on="0"/>
        <pt x="602" y="495" on="1"/>
        <pt x="602" y="463" on="0"/>
        <pt x="559" y="420" on="0"/>
        <pt x="527" y="420" on="1"/>
        <pt x="492" y="420" on="0"/>
        <pt x="443" y="464" on="0"/>
        <pt x="443" y="499" on="1"/>
        <pt x="443" y="513" on="0"/>
        <pt x="451" y="540" on="0"/>
        <pt x="458" y="551" on="1"/>
        <pt x="441" y="571" on="0"/>
        <pt x="395" y="588" on="0"/>
        <pt x="371" y="588" on="1"/>
        <pt x="341" y="588" on="0"/>
        <pt x="293" y="561" on="0"/>
        <pt x="259" y="518" on="0"/>
        <pt x="237" y="465" on="0"/>
        <pt x="231" y="439" on="1"/>
        <pt x="393" y="433" on="1"/>
        <pt x="413" y="358" on="1"/>
        <pt x="224" y="354" on="1"/>
        <pt x="225" y="343" on="0"/>
        <pt x="226" y="319" on="0"/>
        <pt x="228" y="307" on="1"/>
        <pt x="423" y="311" on="1"/>
        <pt x="454" y="221" on="1"/>
        <pt x="260" y="227" on="1"/>
        <pt x="283" y="192" on="0"/>
        <pt x="358" y="151" on="0"/>
        <pt x="400" y="151" on="1"/>
        <pt x="436" y="151" on="0"/>
        <pt x="500" y="177" on="0"/>
        <pt x="555" y="221" on="0"/>
        <pt x="599" y="276" on="0"/>
        <pt x="615" y="305" on="1"/>
      </contour>
    </TTGlyph>
    <TTGlyph name="F" xMin="-82" yMin="-57" xMax="718" yMax="735">
      <contour>
        <pt x="718" y="735" on="1"/>
        <pt x="714" y="326" on="1"/>
        <pt x="595" y="641" on="1"/>
        <pt x="335" y="617" on="1"/>
        <pt x="329" y="358" on="1"/>
        <pt x="415" y="364" on="1"/>
        <pt x="518" y="547" on="1"/>
        <pt x="509" y="79" on="1"/>
        <pt x="408" y="253" on="1"/>
        <pt x="327" y="259" on="1"/>
        <pt x="323" y="37" on="1"/>
        <pt x="544" y="-57" on="1"/>
        <pt x="-50" y="-55" on="1"/>
        <pt x="3" y="-32" on="0"/>
        <pt x="109" y="16" on="0"/>
        <pt x="164" y="37" on="1"/>
        <pt x="148" y="592" on="1"/>
        <pt x="90" y="609" on="0"/>
        <pt x="-24" y="651" on="0"/>
        <pt x="-82" y="671" on="1"/>
        <pt x="119" y="687" on="0"/>
        <pt x="517" y="721" on="0"/>
      </contour>
    </TTGlyph>
    <TTGlyph name="G" xMin="20" yMin="-41" xMax="940" yMax="781">
      <contour>
        <pt x="940" y="344" on="1"/>
        <pt x="753" y="262" on="1"/>
        <pt x="781" y="-41" on="1"/>
        <pt x="671" y="58" on="1"/>
        <pt x="647" y="29" on="0"/>
        <pt x="582" y="-9" on="0"/>
        <pt x="509" y="-31" on="0"/>
        <pt x="433" y="-41" on="0"/>
        <pt x="397" y="-41" on="1"/>
        <pt x="313" y="-41" on="0"/>
        <pt x="174" y="15" on="0"/>
        <pt x="75" y="116" on="0"/>
        <pt x="20" y="256" on="0"/>
        <pt x="20" y="339" on="1"/>
        <pt x="21" y="433" on="0"/>
        <pt x="89" y="571" on="0"/>
        <pt x="203" y="663" on="0"/>
        <pt x="356" y="708" on="0"/>
        <pt x="443" y="708" on="1"/>
        <pt x="490" y="708" on="0"/>
        <pt x="592" y="679" on="0"/>
        <pt x="631" y="655" on="1"/>
        <pt x="761" y="781" on="1"/>
        <pt x="726" y="357" on="1"/>
        <pt x="684" y="436" on="1"/>
        <pt x="667" y="468" on="0"/>
        <pt x="619" y="527" on="0"/>
        <pt x="560" y="572" on="0"/>
        <pt x="492" y="598" on="0"/>
        <pt x="455" y="598" on="1"/>
        <pt x="395" y="598" on="0"/>
        <pt x="307" y="555" on="0"/>
        <pt x="248" y="481" on="0"/>
        <pt x="219" y="384" on="0"/>
        <pt x="219" y="329" on="1"/>
        <pt x="219" y="279" on="0"/>
        <pt x="248" y="181" on="0"/>
        <pt x="304" y="104" on="0"/>
        <pt x="388" y="56" on="0"/>
        <pt x="444" y="56" on="1"/>
        <pt x="516" y="56" on="0"/>
        <pt x="600" y="128" on="0"/>
        <pt x="600" y="201" on="1"/>
        <pt x="600" y="214" on="0"/>
        <pt x="598" y="240" on="0"/>
        <pt x="596" y="252" on="1"/>
        <pt x="351" y="346" on="1"/>
      </contour>
    </TTGlyph>
    <TTGlyph name="H" xMin="-102" yMin="-85" xMax="909" yMax="719">
      <contour>
        <pt x="909" y="1" on="1"/>
        <pt x="353" y="1" on="1"/>
        <pt x="549" y="80" on="1"/>
        <pt x="545" y="250" on="1"/>
        <pt x="273" y="222" on="1"/>
        <pt x="270" y="-6" on="1"/>
        <pt x="502" y="-85" on="1"/>
        <pt x="-94" y="-85" on="1"/>
        <pt x="-43" y="-65" on="0"/>
        <pt x="63" y="-23" on="0"/>
        <pt x="114" y="-6" on="1"/>
        <pt x="98" y="547" on="1"/>
        <pt x="47" y="567" on="0"/>
        <pt x="-52" y="616" on="0"/>
        <pt x="-102" y="639" on="1"/>
        <pt x="453" y="633" on="1"/>
        <pt x="280" y="552" on="1"/>
        <pt x="275" y="330" on="1"/>
        <pt x="542" y="330" on="1"/>
        <pt x="534" y="628" on="1"/>
        <pt x="330" y="719" on="1"/>
        <pt x="890" y="713" on="1"/>
        <pt x="715" y="632" on="1"/>
        <pt x="700" y="80" on="1"/>
      </contour>
    </TTGlyph>
    <TTGlyph name="I" xMin="-92" yMin="-89" xMax="549" yMax="706">
      <contour>
        <pt x="549" y="699" on="1"/>
        <pt x="334" y="611" on="1"/>
        <pt x="317" y="-2" on="1"/>
        <pt x="540" y="-89" on="1"/>
        <pt x="-48" y="-89" on="1"/>
        <pt x="172" y="-2" on="1"/>
        <pt x="148" y="605" on="1"/>
        <pt x="-92" y="706" on="1"/>
      </contour>
    </TTGlyph>
    <TTGlyph name="Iacute" xMin="-92" yMin="-89" xMax="549" yMax="1019">
      <component glyphName="I" x="0" y="0" flags="0x204"/>
      <component glyphName="acute" x="-112" y="20" flags="0x4"/>
    </TTGlyph>
    <TTGlyph name="Icircumflex" xMin="-92" yMin="-89" xMax="549" yMax="1026">
      <component glyphName="I" x="0" y="0" flags="0x204"/>
      <component glyphName="circumflex" x="-163" y="82" flags="0x4"/>
    </TTGlyph>
    <TTGlyph name="Idieresis" xMin="-92" yMin="-89" xMax="549" yMax="908">
      <component glyphName="I" x="0" y="0" flags="0x204"/>
      <component glyphName="dieresis" x="-122" y="-60" flags="0x4"/>
    </TTGlyph>
    <TTGlyph name="Igrave" xMin="-92" yMin="-89" xMax="549" yMax="1047">
      <component glyphName="I" x="0" y="0" flags="0x204"/>
      <component glyphName="grave" x="-194" y="195" flags="0x4"/>
    </TTGlyph>
    <TTGlyph name="J" xMin="-113" yMin="-128" xMax="849" yMax="760">
      <contour>
        <pt x="849" y="760" on="1"/>
        <pt x="609" y="630" on="1"/>
        <pt x="614" y="579" on="0"/>
        <pt x="629" y="477" on="0"/>
        <pt x="644" y="375" on="0"/>
        <pt x="655" y="273" on="0"/>
        <pt x="655" y="222" on="1"/>
        <pt x="655" y="140" on="0"/>
        <pt x="616" y="10" on="0"/>
        <pt x="536" y="-80" on="0"/>
        <pt x="411" y="-128" on="0"/>
        <pt x="326" y="-128" on="1"/>
        <pt x="217" y="-128" on="0"/>
        <pt x="77" y="-10" on="0"/>
        <pt x="59" y="97" on="1"/>
        <pt x="-113" y="185" on="1"/>
        <pt x="334" y="185" on="1"/>
        <pt x="298" y="165" on="0"/>
        <pt x="226" y="125" on="0"/>
        <pt x="188" y="105" on="1"/>
        <pt x="189" y="75" on="0"/>
        <pt x="208" y="22" on="0"/>
        <pt x="243" y="-18" on="0"/>
        <pt x="294" y="-41" on="0"/>
        <pt x="326" y="-41" on="1"/>
        <pt x="377" y="-41" on="0"/>
        <pt x="440" y="5" on="0"/>
        <pt x="475" y="76" on="0"/>
        <pt x="487" y="162" on="0"/>
        <pt x="487" y="203" on="1"/>
        <pt x="487" y="254" on="0"/>
        <pt x="476" y="353" on="0"/>
        <pt x="460" y="452" on="0"/>
        <pt x="441" y="550" on="0"/>
        <pt x="432" y="600" on="1"/>
        <pt x="84" y="644" on="1"/>
      </contour>
    </TTGlyph>
    <TTGlyph name="K" xMin="-72" yMin="-85" xMax="1152" yMax="753">
      <contour>
        <pt x="1152" y="-85" on="1"/>
        <pt x="499" y="-83" on="1"/>
        <pt x="702" y="2" on="1"/>
        <pt x="442" y="372" on="1"/>
        <pt x="327" y="308" on="1"/>
        <pt x="324" y="91" on="1"/>
        <pt x="597" y="-4" on="1"/>
        <pt x="-29" y="-3" on="1"/>
        <pt x="174" y="90" on="1"/>
        <pt x="145" y="648" on="1"/>
        <pt x="-72" y="728" on="1"/>
        <pt x="563" y="753" on="1"/>
        <pt x="340" y="659" on="1"/>
        <pt x="332" y="409" on="1"/>
        <pt x="673" y="612" on="1"/>
        <pt x="489" y="689" on="1"/>
        <pt x="1067" y="689" on="1"/>
        <pt x="810" y="593" on="1"/>
        <pt x="554" y="431" on="1"/>
        <pt x="899" y="12" on="1"/>
      </contour>
    </TTGlyph>
    <TTGlyph name="L" xMin="-92" yMin="7" xMax="721" yMax="805">
      <contour>
        <pt x="721" y="41" on="1"/>
        <pt x="-52" y="7" on="1"/>
        <pt x="186" y="122" on="1"/>
        <pt x="155" y="709" on="1"/>
        <pt x="-92" y="803" on="1"/>
        <pt x="579" y="805" on="1"/>
        <pt x="352" y="708" on="1"/>
        <pt x="342" y="124" on="1"/>
        <pt x="586" y="116" on="1"/>
        <pt x="721" y="463" on="1"/>
      </contour>
    </TTGlyph>
    <TTGlyph name="Lslash" xMin="-92" yMin="7" xMax="721" yMax="805">
      <contour>
        <pt x="721" y="41" on="1"/>
        <pt x="-52" y="7" on="1"/>
        <pt x="186" y="122" on="1"/>
        <pt x="176" y="316" on="1"/>
        <pt x="57" y="266" on="1"/>
        <pt x="7" y="378" on="1"/>
        <pt x="169" y="455" on="1"/>
        <pt x="155" y="709" on="1"/>
        <pt x="-92" y="803" on="1"/>
        <pt x="579" y="805" on="1"/>
        <pt x="352" y="708" on="1"/>
        <pt x="349" y="541" on="1"/>
        <pt x="451" y="589" on="1"/>
        <pt x="514" y="460" on="1"/>
        <pt x="346" y="389" on="1"/>
        <pt x="342" y="124" on="1"/>
        <pt x="586" y="116" on="1"/>
        <pt x="721" y="463" on="1"/>
      </contour>
    </TTGlyph>
    <TTGlyph name="M" xMin="-82" yMin="-26" xMax="1140" yMax="743">
      <contour>
        <pt x="1140" y="-5" on="1"/>
        <pt x="572" y="6" on="1"/>
        <pt x="731" y="80" on="1"/>
        <pt x="730" y="489" on="1"/>
        <pt x="511" y="47" on="1"/>
        <pt x="272" y="463" on="1"/>
        <pt x="287" y="60" on="1"/>
        <pt x="578" y="-26" on="1"/>
        <pt x="-76" y="-26" on="1"/>
        <pt x="189" y="59" on="1"/>
        <pt x="147" y="628" on="1"/>
        <pt x="-82" y="727" on="1"/>
        <pt x="349" y="723" on="1"/>
        <pt x="538" y="340" on="1"/>
        <pt x="760" y="743" on="1"/>
        <pt x="1136" y="729" on="1"/>
        <pt x="931" y="647" on="1"/>
        <pt x="903" y="79" on="1"/>
      </contour>
    </TTGlyph>
    <TTGlyph name="N" xMin="-92" yMin="-54" xMax="974" yMax="746">
      <contour>
        <pt x="974" y="746" on="1"/>
        <pt x="753" y="640" on="1"/>
        <pt x="739" y="-54" on="1"/>
        <pt x="255" y="510" on="1"/>
        <pt x="266" y="124" on="1"/>
        <pt x="586" y="5" on="1"/>
        <pt x="-92" y="8" on="1"/>
        <pt x="158" y="121" on="1"/>
        <pt x="158" y="615" on="1"/>
        <pt x="-84" y="727" on="1"/>
        <pt x="330" y="721" on="1"/>
        <pt x="656" y="316" on="1"/>
        <pt x="653" y="625" on="1"/>
        <pt x="384" y="735" on="1"/>
      </contour>
    </TTGlyph>
    <TTGlyph name="Ntilde" xMin="-92" yMin="-54" xMax="974" yMax="1000">
      <component glyphName="N" x="0" y="0" flags="0x204"/>
      <component glyphName="tilde" x="31" y="92" flags="0x4"/>
    </TTGlyph>
    <TTGlyph name="O" xMin="20" yMin="-12" xMax="808" yMax="631">
      <contour>
        <pt x="808" y="312" on="1"/>
        <pt x="808" y="230" on="0"/>
        <pt x="736" y="109" on="0"/>
        <pt x="622" y="28" on="0"/>
        <pt x="478" y="-12" on="0"/>
        <pt x="406" y="-12" on="1"/>
        <pt x="334" y="-12" on="0"/>
        <pt x="195" y="30" on="0"/>
        <pt x="86" y="111" on="0"/>
        <pt x="20" y="232" on="0"/>
        <pt x="20" y="312" on="1"/>
        <pt x="20" y="400" on="0"/>
        <pt x="90" y="522" on="0"/>
        <pt x="206" y="597" on="0"/>
        <pt x="354" y="631" on="0"/>
        <pt x="431" y="631" on="1"/>
        <pt x="503" y="631" on="0"/>
        <pt x="638" y="590" on="0"/>
        <pt x="744" y="510" on="0"/>
        <pt x="808" y="390" on="0"/>
      </contour>
      <contour>
        <pt x="617" y="314" on="1"/>
        <pt x="617" y="355" on="0"/>
        <pt x="592" y="434" on="0"/>
        <pt x="545" y="495" on="0"/>
        <pt x="476" y="532" on="0"/>
        <pt x="431" y="532" on="1"/>
        <pt x="384" y="532" on="0"/>
        <pt x="303" y="500" on="0"/>
        <pt x="243" y="443" on="0"/>
        <pt x="209" y="364" on="0"/>
        <pt x="209" y="318" on="1"/>
        <pt x="209" y="275" on="0"/>
        <pt x="232" y="192" on="0"/>
        <pt x="279" y="126" on="0"/>
        <pt x="351" y="86" on="0"/>
        <pt x="400" y="86" on="1"/>
        <pt x="454" y="86" on="0"/>
        <pt x="536" y="119" on="0"/>
        <pt x="590" y="179" on="0"/>
        <pt x="617" y="263" on="0"/>
      </contour>
    </TTGlyph>
    <TTGlyph name="OE" xMin="10" yMin="-24" xMax="1184" yMax="740">
      <contour>
        <pt x="1184" y="740" on="1"/>
        <pt x="1170" y="384" on="1"/>
        <pt x="1058" y="645" on="1"/>
        <pt x="798" y="622" on="1"/>
        <pt x="792" y="356" on="1"/>
        <pt x="878" y="361" on="1"/>
        <pt x="979" y="568" on="1"/>
        <pt x="970" y="94" on="1"/>
        <pt x="872" y="250" on="1"/>
        <pt x="788" y="256" on="1"/>
        <pt x="784" y="63" on="1"/>
        <pt x="1063" y="65" on="1"/>
        <pt x="1155" y="357" on="1"/>
        <pt x="1158" y="-18" on="1"/>
        <pt x="367" y="-24" on="1"/>
        <pt x="618" y="72" on="1"/>
        <pt x="615" y="164" on="1"/>
        <pt x="590" y="132" on="0"/>
        <pt x="524" y="86" on="0"/>
        <pt x="449" y="56" on="0"/>
        <pt x="369" y="42" on="0"/>
        <pt x="330" y="42" on="1"/>
        <pt x="270" y="42" on="0"/>
        <pt x="155" y="77" on="0"/>
        <pt x="65" y="144" on="0"/>
        <pt x="10" y="245" on="0"/>
        <pt x="10" y="311" on="1"/>
        <pt x="10" y="384" on="0"/>
        <pt x="69" y="486" on="0"/>
        <pt x="165" y="549" on="0"/>
        <pt x="287" y="577" on="0"/>
        <pt x="351" y="577" on="1"/>
        <pt x="421" y="577" on="0"/>
        <pt x="558" y="528" on="0"/>
        <pt x="605" y="473" on="1"/>
        <pt x="601" y="595" on="1"/>
        <pt x="341" y="677" on="1"/>
      </contour>
      <contour>
        <pt x="507" y="313" on="1"/>
        <pt x="507" y="347" on="0"/>
        <pt x="486" y="413" on="0"/>
        <pt x="446" y="464" on="0"/>
        <pt x="388" y="495" on="0"/>
        <pt x="351" y="495" on="1"/>
        <pt x="313" y="495" on="0"/>
        <pt x="246" y="468" on="0"/>
        <pt x="196" y="421" on="0"/>
        <pt x="167" y="355" on="0"/>
        <pt x="167" y="316" on="1"/>
        <pt x="167" y="280" on="0"/>
        <pt x="186" y="211" on="0"/>
        <pt x="226" y="157" on="0"/>
        <pt x="285" y="124" on="0"/>
        <pt x="326" y="124" on="1"/>
        <pt x="415" y="124" on="0"/>
        <pt x="507" y="227" on="0"/>
      </contour>
    </TTGlyph>
    <TTGlyph name="Oacute" xMin="20" yMin="-12" xMax="808" yMax="939">
      <component glyphName="O" x="0" y="0" flags="0x204"/>
      <component glyphName="acute" x="61" y="-60" flags="0x4"/>
    </TTGlyph>
    <TTGlyph name="Ocircumflex" xMin="20" yMin="-12" xMax="808" yMax="944">
      <component glyphName="O" x="0" y="0" flags="0x204"/>
      <component glyphName="circumflex" x="10" y="0" flags="0x4"/>
    </TTGlyph>
    <TTGlyph name="Odieresis" xMin="20" yMin="-12" xMax="808" yMax="836">
      <component glyphName="O" x="0" y="0" flags="0x204"/>
      <component glyphName="dieresis" x="51" y="-132" flags="0x4"/>
    </TTGlyph>
    <TTGlyph name="Ograve" xMin="20" yMin="-12" xMax="808" yMax="965">
      <component glyphName="O" x="0" y="0" flags="0x204"/>
      <component glyphName="grave" x="20" y="113" flags="0x4"/>
    </TTGlyph>
    <TTGlyph name="Oslash" xMin="20" yMin="-120" xMax="808" yMax="743">
      <contour>
        <pt x="808" y="312" on="1"/>
        <pt x="808" y="230" on="0"/>
        <pt x="736" y="109" on="0"/>
        <pt x="622" y="28" on="0"/>
        <pt x="478" y="-12" on="0"/>
        <pt x="406" y="-12" on="1"/>
        <pt x="380" y="-12" on="0"/>
        <pt x="328" y="-7" on="0"/>
        <pt x="302" y="-1" on="1"/>
        <pt x="227" y="-120" on="1"/>
        <pt x="137" y="-67" on="1"/>
        <pt x="194" y="37" on="1"/>
        <pt x="113" y="79" on="0"/>
        <pt x="20" y="219" on="0"/>
        <pt x="20" y="312" on="1"/>
        <pt x="20" y="400" on="0"/>
        <pt x="91" y="522" on="0"/>
        <pt x="206" y="597" on="0"/>
        <pt x="354" y="631" on="0"/>
        <pt x="431" y="631" on="1"/>
        <pt x="475" y="631" on="0"/>
        <pt x="516" y="624" on="1"/>
        <pt x="582" y="743" on="1"/>
        <pt x="720" y="659" on="1"/>
        <pt x="663" y="569" on="1"/>
        <pt x="733" y="526" on="0"/>
        <pt x="808" y="394" on="0"/>
      </contour>
      <contour>
        <pt x="617" y="314" on="1"/>
        <pt x="617" y="348" on="0"/>
        <pt x="601" y="415" on="0"/>
        <pt x="584" y="443" on="1"/>
        <pt x="360" y="90" on="1"/>
        <pt x="379" y="86" on="0"/>
        <pt x="400" y="86" on="1"/>
        <pt x="508" y="86" on="0"/>
        <pt x="617" y="210" on="0"/>
      </contour>
      <contour>
        <pt x="464" y="529" on="1"/>
        <pt x="447" y="532" on="0"/>
        <pt x="431" y="532" on="1"/>
        <pt x="385" y="532" on="0"/>
        <pt x="304" y="500" on="0"/>
        <pt x="244" y="443" on="0"/>
        <pt x="209" y="364" on="0"/>
        <pt x="209" y="318" on="1"/>
        <pt x="209" y="277" on="0"/>
        <pt x="234" y="188" on="0"/>
        <pt x="258" y="155" on="1"/>
      </contour>
    </TTGlyph>
    <TTGlyph name="Otilde" xMin="20" yMin="-12" xMax="808" yMax="899">
      <component glyphName="O" x="0" y="0" flags="0x204"/>
      <component glyphName="tilde" x="31" y="-9" flags="0x4"/>
    </TTGlyph>
    <TTGlyph name="P" xMin="-92" yMin="-32" xMax="774" yMax="657">
      <contour>
        <pt x="774" y="465" on="1"/>
        <pt x="774" y="428" on="0"/>
        <pt x="722" y="373" on="0"/>
        <pt x="639" y="332" on="0"/>
        <pt x="538" y="304" on="0"/>
        <pt x="439" y="286" on="0"/>
        <pt x="354" y="277" on="0"/>
        <pt x="329" y="276" on="1"/>
        <pt x="337" y="72" on="1"/>
        <pt x="569" y="-24" on="1"/>
        <pt x="-62" y="-32" on="1"/>
        <pt x="153" y="81" on="1"/>
        <pt x="144" y="550" on="1"/>
        <pt x="-92" y="657" on="1"/>
        <pt x="389" y="644" on="1"/>
        <pt x="416" y="643" on="0"/>
        <pt x="495" y="637" on="0"/>
        <pt x="580" y="622" on="0"/>
        <pt x="665" y="597" on="0"/>
        <pt x="732" y="558" on="0"/>
        <pt x="774" y="503" on="0"/>
      </contour>
      <contour>
        <pt x="636" y="465" on="1"/>
        <pt x="636" y="483" on="0"/>
        <pt x="608" y="510" on="0"/>
        <pt x="564" y="529" on="0"/>
        <pt x="510" y="542" on="0"/>
        <pt x="458" y="549" on="0"/>
        <pt x="415" y="552" on="0"/>
        <pt x="403" y="552" on="1"/>
        <pt x="380" y="552" on="0"/>
        <pt x="332" y="550" on="0"/>
        <pt x="309" y="548" on="1"/>
        <pt x="314" y="364" on="1"/>
        <pt x="327" y="362" on="0"/>
        <pt x="350" y="362" on="0"/>
        <pt x="362" y="362" on="1"/>
        <pt x="376" y="362" on="0"/>
        <pt x="427" y="365" on="0"/>
        <pt x="488" y="374" on="0"/>
        <pt x="551" y="389" on="0"/>
        <pt x="603" y="412" on="0"/>
        <pt x="636" y="444" on="0"/>
      </contour>
    </TTGlyph>
    <TTGlyph name="Q" xMin="31" yMin="-309" xMax="926" yMax="664">
      <contour>
        <pt x="926" y="-121" on="1"/>
        <pt x="256" y="-309" on="1"/>
        <pt x="451" y="-142" on="1"/>
        <pt x="410" y="20" on="1"/>
        <pt x="336" y="19" on="0"/>
        <pt x="200" y="60" on="0"/>
        <pt x="94" y="143" on="0"/>
        <pt x="31" y="265" on="0"/>
        <pt x="31" y="345" on="1"/>
        <pt x="31" y="430" on="0"/>
        <pt x="96" y="552" on="0"/>
        <pt x="204" y="628" on="0"/>
        <pt x="345" y="664" on="0"/>
        <pt x="422" y="664" on="1"/>
        <pt x="493" y="664" on="0"/>
        <pt x="623" y="621" on="0"/>
        <pt x="723" y="540" on="0"/>
        <pt x="782" y="421" on="0"/>
        <pt x="782" y="345" on="1"/>
        <pt x="782" y="290" on="0"/>
        <pt x="749" y="196" on="0"/>
        <pt x="689" y="120" on="0"/>
        <pt x="606" y="63" on="0"/>
        <pt x="555" y="46" on="1"/>
        <pt x="569" y="14" on="0"/>
        <pt x="605" y="-47" on="0"/>
        <pt x="623" y="-77" on="1"/>
      </contour>
      <contour>
        <pt x="601" y="347" on="1"/>
        <pt x="601" y="386" on="0"/>
        <pt x="577" y="464" on="0"/>
        <pt x="532" y="526" on="0"/>
        <pt x="465" y="565" on="0"/>
        <pt x="422" y="565" on="1"/>
        <pt x="376" y="565" on="0"/>
        <pt x="299" y="532" on="0"/>
        <pt x="243" y="474" on="0"/>
        <pt x="211" y="396" on="0"/>
        <pt x="211" y="351" on="1"/>
        <pt x="211" y="309" on="0"/>
        <pt x="232" y="226" on="0"/>
        <pt x="277" y="160" on="0"/>
        <pt x="345" y="119" on="0"/>
        <pt x="393" y="119" on="1"/>
        <pt x="447" y="119" on="0"/>
        <pt x="525" y="153" on="0"/>
        <pt x="576" y="214" on="0"/>
        <pt x="601" y="297" on="0"/>
      </contour>
    </TTGlyph>
    <TTGlyph name="R" xMin="-82" yMin="-257" xMax="1122" yMax="663">
      <contour>
        <pt x="1122" y="-15" on="1"/>
        <pt x="516" y="-257" on="1"/>
        <pt x="667" y="-90" on="1"/>
        <pt x="458" y="294" on="1"/>
        <pt x="428" y="290" on="0"/>
        <pt x="369" y="284" on="0"/>
        <pt x="339" y="282" on="1"/>
        <pt x="347" y="77" on="1"/>
        <pt x="580" y="-18" on="1"/>
        <pt x="-52" y="-27" on="1"/>
        <pt x="163" y="86" on="1"/>
        <pt x="155" y="555" on="1"/>
        <pt x="-82" y="663" on="1"/>
        <pt x="399" y="649" on="1"/>
        <pt x="426" y="648" on="0"/>
        <pt x="505" y="642" on="0"/>
        <pt x="590" y="628" on="0"/>
        <pt x="675" y="602" on="0"/>
        <pt x="742" y="563" on="0"/>
        <pt x="784" y="508" on="0"/>
        <pt x="784" y="470" on="1"/>
        <pt x="784" y="453" on="0"/>
        <pt x="768" y="423" on="0"/>
        <pt x="741" y="396" on="0"/>
        <pt x="708" y="373" on="0"/>
        <pt x="690" y="363" on="1"/>
        <pt x="649" y="340" on="0"/>
        <pt x="597" y="322" on="1"/>
        <pt x="826" y="-11" on="1"/>
      </contour>
      <contour>
        <pt x="646" y="470" on="1"/>
        <pt x="646" y="488" on="0"/>
        <pt x="618" y="515" on="0"/>
        <pt x="573" y="535" on="0"/>
        <pt x="518" y="548" on="0"/>
        <pt x="466" y="555" on="0"/>
        <pt x="423" y="558" on="0"/>
        <pt x="411" y="558" on="1"/>
        <pt x="388" y="558" on="0"/>
        <pt x="342" y="556" on="0"/>
        <pt x="319" y="554" on="1"/>
        <pt x="325" y="369" on="1"/>
        <pt x="337" y="368" on="0"/>
        <pt x="360" y="368" on="0"/>
        <pt x="373" y="368" on="1"/>
        <pt x="386" y="368" on="0"/>
        <pt x="437" y="371" on="0"/>
        <pt x="498" y="380" on="0"/>
        <pt x="561" y="394" on="0"/>
        <pt x="613" y="417" on="0"/>
        <pt x="646" y="449" on="0"/>
      </contour>
    </TTGlyph>
    <TTGlyph name="S" xMin="10" yMin="-119" xMax="667" yMax="722">
      <contour>
        <pt x="667" y="183" on="1"/>
        <pt x="667" y="124" on="0"/>
        <pt x="605" y="43" on="0"/>
        <pt x="511" y="-7" on="0"/>
        <pt x="401" y="-30" on="0"/>
        <pt x="353" y="-30" on="1"/>
        <pt x="293" y="-30" on="0"/>
        <pt x="172" y="7" on="0"/>
        <pt x="123" y="42" on="1"/>
        <pt x="44" y="-119" on="1"/>
        <pt x="80" y="254" on="1"/>
        <pt x="93" y="209" on="0"/>
        <pt x="144" y="136" on="0"/>
        <pt x="212" y="84" on="0"/>
        <pt x="295" y="56" on="0"/>
        <pt x="342" y="56" on="1"/>
        <pt x="359" y="56" on="0"/>
        <pt x="406" y="63" on="0"/>
        <pt x="449" y="81" on="0"/>
        <pt x="479" y="111" on="0"/>
        <pt x="479" y="133" on="1"/>
        <pt x="479" y="161" on="0"/>
        <pt x="434" y="203" on="0"/>
        <pt x="372" y="232" on="0"/>
        <pt x="306" y="250" on="0"/>
        <pt x="286" y="254" on="1"/>
        <pt x="245" y="262" on="0"/>
        <pt x="149" y="290" on="0"/>
        <pt x="66" y="337" on="0"/>
        <pt x="10" y="408" on="0"/>
        <pt x="10" y="460" on="1"/>
        <pt x="10" y="520" on="0"/>
        <pt x="66" y="601" on="0"/>
        <pt x="153" y="649" on="0"/>
        <pt x="258" y="669" on="0"/>
        <pt x="308" y="669" on="1"/>
        <pt x="380" y="669" on="0"/>
        <pt x="494" y="635" on="0"/>
        <pt x="557" y="600" on="1"/>
        <pt x="657" y="722" on="1"/>
        <pt x="620" y="393" on="1"/>
        <pt x="595" y="433" on="0"/>
        <pt x="528" y="503" on="0"/>
        <pt x="448" y="556" on="0"/>
        <pt x="357" y="587" on="0"/>
        <pt x="309" y="587" on="1"/>
        <pt x="292" y="587" on="0"/>
        <pt x="247" y="578" on="0"/>
        <pt x="205" y="559" on="0"/>
        <pt x="176" y="529" on="0"/>
        <pt x="176" y="507" on="1"/>
        <pt x="176" y="486" on="0"/>
        <pt x="211" y="457" on="0"/>
        <pt x="260" y="438" on="0"/>
        <pt x="310" y="426" on="0"/>
        <pt x="325" y="423" on="1"/>
        <pt x="370" y="413" on="0"/>
        <pt x="488" y="379" on="0"/>
        <pt x="594" y="323" on="0"/>
        <pt x="667" y="241" on="0"/>
      </contour>
    </TTGlyph>
    <TTGlyph name="Scaron" xMin="10" yMin="-119" xMax="667" yMax="1010">
      <component glyphName="S" x="0" y="0" flags="0x204"/>
      <component glyphName="caron" x="-60" y="61" flags="0x4"/>
    </TTGlyph>
    <TTGlyph name="T" xMin="41" yMin="-19" xMax="732" yMax="688">
      <contour>
        <pt x="732" y="678" on="1"/>
        <pt x="690" y="326" on="1"/>
        <pt x="605" y="592" on="1"/>
        <pt x="472" y="594" on="1"/>
        <pt x="456" y="90" on="1"/>
        <pt x="682" y="-19" on="1"/>
        <pt x="81" y="-13" on="1"/>
        <pt x="300" y="95" on="1"/>
        <pt x="286" y="596" on="1"/>
        <pt x="162" y="597" on="1"/>
        <pt x="71" y="328" on="1"/>
        <pt x="41" y="688" on="1"/>
      </contour>
    </TTGlyph>
    <TTGlyph name="Thorn" xMin="-92" yMin="-32" xMax="773" yMax="657">
      <contour>
        <pt x="773" y="337" on="1"/>
        <pt x="773" y="301" on="0"/>
        <pt x="722" y="246" on="0"/>
        <pt x="640" y="205" on="0"/>
        <pt x="539" y="177" on="0"/>
        <pt x="441" y="159" on="0"/>
        <pt x="354" y="150" on="0"/>
        <pt x="328" y="148" on="1"/>
        <pt x="331" y="72" on="1"/>
        <pt x="564" y="-24" on="1"/>
        <pt x="-62" y="-32" on="1"/>
        <pt x="153" y="81" on="1"/>
        <pt x="144" y="550" on="1"/>
        <pt x="-92" y="657" on="1"/>
        <pt x="528" y="641" on="1"/>
        <pt x="306" y="553" on="1"/>
        <pt x="308" y="519" on="1"/>
        <pt x="338" y="518" on="0"/>
        <pt x="430" y="515" on="0"/>
        <pt x="533" y="503" on="0"/>
        <pt x="637" y="480" on="0"/>
        <pt x="721" y="440" on="0"/>
        <pt x="773" y="380" on="0"/>
      </contour>
      <contour>
        <pt x="635" y="337" on="1"/>
        <pt x="635" y="355" on="0"/>
        <pt x="608" y="382" on="0"/>
        <pt x="565" y="402" on="0"/>
        <pt x="511" y="414" on="0"/>
        <pt x="460" y="422" on="0"/>
        <pt x="415" y="425" on="0"/>
        <pt x="402" y="425" on="1"/>
        <pt x="379" y="425" on="0"/>
        <pt x="332" y="422" on="0"/>
        <pt x="308" y="420" on="1"/>
        <pt x="313" y="236" on="1"/>
        <pt x="326" y="236" on="0"/>
        <pt x="350" y="234" on="0"/>
        <pt x="361" y="234" on="1"/>
        <pt x="376" y="234" on="0"/>
        <pt x="429" y="238" on="0"/>
        <pt x="490" y="247" on="0"/>
        <pt x="552" y="262" on="0"/>
        <pt x="603" y="285" on="0"/>
        <pt x="635" y="316" on="0"/>
      </contour>
    </TTGlyph>
    <TTGlyph name="U" xMin="-92" yMin="-27" xMax="825" yMax="674">
      <contour>
        <pt x="825" y="667" on="1"/>
        <pt x="687" y="589" on="1"/>
        <pt x="673" y="246" on="1"/>
        <pt x="670" y="174" on="0"/>
        <pt x="625" y="70" on="0"/>
        <pt x="544" y="4" on="0"/>
        <pt x="431" y="-27" on="0"/>
        <pt x="361" y="-27" on="1"/>
        <pt x="299" y="-27" on="0"/>
        <pt x="194" y="11" on="0"/>
        <pt x="119" y="83" on="0"/>
        <pt x="77" y="185" on="0"/>
        <pt x="77" y="249" on="1"/>
        <pt x="77" y="330" on="0"/>
        <pt x="84" y="495" on="0"/>
        <pt x="87" y="577" on="1"/>
        <pt x="-92" y="659" on="1"/>
        <pt x="410" y="624" on="1"/>
        <pt x="272" y="566" on="1"/>
        <pt x="270" y="488" on="0"/>
        <pt x="267" y="331" on="0"/>
        <pt x="267" y="253" on="1"/>
        <pt x="267" y="220" on="0"/>
        <pt x="285" y="155" on="0"/>
        <pt x="322" y="104" on="0"/>
        <pt x="378" y="72" on="0"/>
        <pt x="416" y="72" on="1"/>
        <pt x="456" y="72" on="0"/>
        <pt x="521" y="99" on="0"/>
        <pt x="565" y="147" on="0"/>
        <pt x="588" y="214" on="0"/>
        <pt x="587" y="253" on="1"/>
        <pt x="587" y="255" on="0"/>
        <pt x="587" y="252" on="0"/>
        <pt x="587" y="261" on="0"/>
        <pt x="585" y="293" on="0"/>
        <pt x="582" y="367" on="0"/>
        <pt x="577" y="493" on="0"/>
        <pt x="573" y="591" on="1"/>
        <pt x="416" y="674" on="1"/>
      </contour>
    </TTGlyph>
    <TTGlyph name="Uacute" xMin="-92" yMin="-27" xMax="825" yMax="990">
      <component glyphName="U" x="0" y="0" flags="0x204"/>
      <component glyphName="acute" x="10" y="-9" flags="0x4"/>
    </TTGlyph>
    <TTGlyph name="Ucircumflex" xMin="-92" yMin="-27" xMax="825" yMax="985">
      <component glyphName="U" x="0" y="0" flags="0x204"/>
      <component glyphName="circumflex" x="-19" y="41" flags="0x4"/>
    </TTGlyph>
    <TTGlyph name="Udieresis" xMin="-92" yMin="-27" xMax="825" yMax="877">
      <component glyphName="U" x="0" y="0" flags="0x204"/>
      <component glyphName="dieresis" x="41" y="-91" flags="0x4"/>
    </TTGlyph>
    <TTGlyph name="Ugrave" xMin="-92" yMin="-27" xMax="825" yMax="985">
      <component glyphName="U" x="0" y="0" flags="0x204"/>
      <component glyphName="grave" x="-30" y="133" flags="0x4"/>
    </TTGlyph>
    <TTGlyph name="V" xMin="-143" yMin="-82" xMax="938" yMax="741">
      <contour>
        <pt x="938" y="607" on="1"/>
        <pt x="725" y="546" on="1"/>
        <pt x="399" y="-82" on="1"/>
        <pt x="81" y="573" on="1"/>
        <pt x="-143" y="605" on="1"/>
        <pt x="442" y="741" on="1"/>
        <pt x="258" y="612" on="1"/>
        <pt x="445" y="191" on="1"/>
        <pt x="640" y="564" on="1"/>
        <pt x="460" y="683" on="1"/>
      </contour>
    </TTGlyph>
    <TTGlyph name="W" xMin="-143" yMin="-106" xMax="1204" yMax="672">
      <contour>
        <pt x="1204" y="600" on="1"/>
        <pt x="984" y="538" on="1"/>
        <pt x="734" y="-104" on="1"/>
        <pt x="543" y="296" on="1"/>
        <pt x="351" y="-106" on="1"/>
        <pt x="69" y="560" on="1"/>
        <pt x="-143" y="624" on="1"/>
        <pt x="472" y="672" on="1"/>
        <pt x="261" y="563" on="1"/>
        <pt x="380" y="243" on="1"/>
        <pt x="555" y="621" on="1"/>
        <pt x="771" y="227" on="1"/>
        <pt x="894" y="549" on="1"/>
        <pt x="642" y="668" on="1"/>
      </contour>
    </TTGlyph>
    <TTGlyph name="X" xMin="-102" yMin="-52" xMax="973" yMax="634">
      <contour>
        <pt x="973" y="-29" on="1"/>
        <pt x="390" y="-52" on="1"/>
        <pt x="551" y="36" on="1"/>
        <pt x="402" y="221" on="1"/>
        <pt x="237" y="87" on="1"/>
        <pt x="372" y="1" on="1"/>
        <pt x="-102" y="15" on="1"/>
        <pt x="122" y="111" on="1"/>
        <pt x="345" y="301" on="1"/>
        <pt x="161" y="531" on="1"/>
        <pt x="-48" y="589" on="1"/>
        <pt x="517" y="634" on="1"/>
        <pt x="343" y="549" on="1"/>
        <pt x="466" y="400" on="1"/>
        <pt x="593" y="509" on="1"/>
        <pt x="482" y="573" on="1"/>
        <pt x="934" y="595" on="1"/>
        <pt x="705" y="488" on="1"/>
        <pt x="530" y="336" on="1"/>
        <pt x="745" y="63" on="1"/>
      </contour>
    </TTGlyph>
    <TTGlyph name="Y" xMin="-133" yMin="-71" xMax="941" yMax="669">
      <contour>
        <pt x="941" y="585" on="1"/>
        <pt x="719" y="492" on="1"/>
        <pt x="519" y="272" on="1"/>
        <pt x="543" y="22" on="1"/>
        <pt x="801" y="-67" on="1"/>
        <pt x="171" y="-71" on="1"/>
        <pt x="369" y="15" on="1"/>
        <pt x="379" y="260" on="1"/>
        <pt x="127" y="547" on="1"/>
        <pt x="-133" y="642" on="1"/>
        <pt x="424" y="669" on="1"/>
        <pt x="294" y="588" on="1"/>
        <pt x="488" y="355" on="1"/>
        <pt x="644" y="511" on="1"/>
        <pt x="493" y="602" on="1"/>
      </contour>
    </TTGlyph>
    <TTGlyph name="Yacute" xMin="-133" yMin="-71" xMax="941" yMax="969">
      <component glyphName="Y" x="0" y="0" flags="0x204"/>
      <component glyphName="acute" x="133" y="-30" flags="0x4"/>
    </TTGlyph>
    <TTGlyph name="Ydieresis" xMin="-133" yMin="-71" xMax="941" yMax="867">
      <component glyphName="Y" x="0" y="0" flags="0x204"/>
      <component glyphName="dieresis" x="102" y="-101" flags="0x4"/>
    </TTGlyph>
    <TTGlyph name="Z" xMin="10" yMin="16" xMax="737" yMax="627">
      <contour>
        <pt x="737" y="627" on="1"/>
        <pt x="334" y="113" on="1"/>
        <pt x="552" y="104" on="1"/>
        <pt x="691" y="359" on="1"/>
        <pt x="672" y="16" on="1"/>
        <pt x="10" y="22" on="1"/>
        <pt x="439" y="527" on="1"/>
        <pt x="151" y="517" on="1"/>
        <pt x="105" y="276" on="1"/>
        <pt x="15" y="608" on="1"/>
      </contour>
    </TTGlyph>
    <TTGlyph name="Zcaron" xMin="10" yMin="16" xMax="737" yMax="959">
      <component glyphName="Z" x="0" y="0" flags="0x204"/>
      <component glyphName="caron" x="-30" y="10" flags="0x4"/>
    </TTGlyph>
    <TTGlyph name="a" xMin="20" yMin="-23" xMax="657" yMax="568">
      <contour>
        <pt x="657" y="-10" on="1"/>
        <pt x="340" y="-23" on="1"/>
        <pt x="347" y="33" on="1"/>
        <pt x="315" y="29" on="0"/>
        <pt x="251" y="28" on="0"/>
        <pt x="219" y="28" on="1"/>
        <pt x="190" y="28" on="0"/>
        <pt x="120" y="42" on="0"/>
        <pt x="60" y="73" on="0"/>
        <pt x="20" y="123" on="0"/>
        <pt x="20" y="159" on="1"/>
        <pt x="20" y="199" on="0"/>
        <pt x="58" y="255" on="0"/>
        <pt x="117" y="289" on="0"/>
        <pt x="189" y="305" on="0"/>
        <pt x="223" y="305" on="1"/>
        <pt x="265" y="305" on="0"/>
        <pt x="345" y="297" on="0"/>
        <pt x="386" y="294" on="1"/>
        <pt x="388" y="307" on="0"/>
        <pt x="390" y="334" on="0"/>
        <pt x="390" y="348" on="1"/>
        <pt x="390" y="375" on="0"/>
        <pt x="381" y="427" on="0"/>
        <pt x="358" y="468" on="0"/>
        <pt x="317" y="492" on="0"/>
        <pt x="285" y="492" on="1"/>
        <pt x="255" y="492" on="0"/>
        <pt x="206" y="473" on="0"/>
        <pt x="187" y="450" on="1"/>
        <pt x="201" y="439" on="0"/>
        <pt x="211" y="412" on="0"/>
        <pt x="211" y="395" on="1"/>
        <pt x="211" y="389" on="1"/>
        <pt x="196" y="319" on="0"/>
        <pt x="123" y="319" on="1"/>
        <pt x="90" y="319" on="0"/>
        <pt x="48" y="366" on="0"/>
        <pt x="48" y="398" on="1"/>
        <pt x="48" y="442" on="0"/>
        <pt x="98" y="506" on="0"/>
        <pt x="171" y="548" on="0"/>
        <pt x="256" y="568" on="0"/>
        <pt x="292" y="568" on="1"/>
        <pt x="407" y="568" on="0"/>
        <pt x="536" y="462" on="0"/>
        <pt x="536" y="342" on="1"/>
        <pt x="536" y="329" on="0"/>
        <pt x="535" y="303" on="0"/>
        <pt x="534" y="290" on="1"/>
        <pt x="510" y="60" on="1"/>
        <pt x="548" y="43" on="0"/>
        <pt x="620" y="7" on="0"/>
      </contour>
      <contour>
        <pt x="375" y="227" on="1"/>
        <pt x="349" y="230" on="0"/>
        <pt x="297" y="237" on="0"/>
        <pt x="271" y="237" on="1"/>
        <pt x="254" y="237" on="0"/>
        <pt x="221" y="230" on="0"/>
        <pt x="194" y="214" on="0"/>
        <pt x="178" y="187" on="0"/>
        <pt x="178" y="167" on="1"/>
        <pt x="178" y="152" on="0"/>
        <pt x="192" y="129" on="0"/>
        <pt x="215" y="113" on="0"/>
        <pt x="242" y="105" on="0"/>
        <pt x="255" y="105" on="1"/>
        <pt x="281" y="105" on="0"/>
        <pt x="334" y="111" on="0"/>
        <pt x="359" y="114" on="1"/>
      </contour>
    </TTGlyph>
    <TTGlyph name="aacute" xMin="20" yMin="-23" xMax="657" yMax="877">
      <component glyphName="a" x="0" y="0" flags="0x204"/>
      <component glyphName="acute" x="-19" y="-122" flags="0x4"/>
    </TTGlyph>
    <TTGlyph name="acircumflex" xMin="20" yMin="-23" xMax="657" yMax="894">
      <component glyphName="a" x="0" y="0" flags="0x204"/>
      <component glyphName="circumflex" x="-71" y="-50" flags="0x4"/>
    </TTGlyph>
    <TTGlyph name="acute" xMin="296" yMin="752" xMax="494" yMax="999">
      <contour>
        <pt x="494" y="941" on="1"/>
        <pt x="391" y="752" on="1"/>
        <pt x="296" y="793" on="1"/>
        <pt x="366" y="999" on="1"/>
      </contour>
    </TTGlyph>
    <TTGlyph name="adieresis" xMin="20" yMin="-23" xMax="657" yMax="774">
      <component glyphName="a" x="0" y="0" flags="0x204"/>
      <component glyphName="dieresis" x="-50" y="-194" flags="0x4"/>
    </TTGlyph>
    <TTGlyph name="ae" xMin="0" yMin="-23" xMax="1036" yMax="568">
      <contour>
        <pt x="1036" y="269" on="1"/>
        <pt x="1036" y="262" on="0"/>
        <pt x="1035" y="250" on="0"/>
        <pt x="1035" y="243" on="1"/>
        <pt x="629" y="237" on="1"/>
        <pt x="635" y="208" on="0"/>
        <pt x="668" y="169" on="0"/>
        <pt x="713" y="143" on="0"/>
        <pt x="765" y="132" on="0"/>
        <pt x="792" y="132" on="1"/>
        <pt x="819" y="132" on="0"/>
        <pt x="877" y="139" on="0"/>
        <pt x="932" y="156" on="0"/>
        <pt x="983" y="182" on="0"/>
        <pt x="1004" y="200" on="1"/>
        <pt x="993" y="160" on="0"/>
        <pt x="938" y="102" on="0"/>
        <pt x="866" y="64" on="0"/>
        <pt x="784" y="46" on="0"/>
        <pt x="745" y="46" on="1"/>
        <pt x="710" y="46" on="0"/>
        <pt x="639" y="62" on="0"/>
        <pt x="574" y="94" on="0"/>
        <pt x="519" y="141" on="0"/>
        <pt x="501" y="172" on="1"/>
        <pt x="489" y="60" on="1"/>
        <pt x="527" y="43" on="0"/>
        <pt x="600" y="7" on="0"/>
        <pt x="637" y="-10" on="1"/>
        <pt x="319" y="-23" on="1"/>
        <pt x="327" y="33" on="1"/>
        <pt x="304" y="31" on="0"/>
        <pt x="259" y="27" on="0"/>
        <pt x="236" y="27" on="1"/>
        <pt x="204" y="27" on="0"/>
        <pt x="122" y="36" on="0"/>
        <pt x="50" y="64" on="0"/>
        <pt x="0" y="116" on="0"/>
        <pt x="0" y="159" on="1"/>
        <pt x="0" y="199" on="0"/>
        <pt x="38" y="255" on="0"/>
        <pt x="97" y="289" on="0"/>
        <pt x="169" y="305" on="0"/>
        <pt x="203" y="305" on="1"/>
        <pt x="244" y="305" on="0"/>
        <pt x="324" y="297" on="0"/>
        <pt x="366" y="294" on="1"/>
        <pt x="368" y="307" on="0"/>
        <pt x="370" y="334" on="0"/>
        <pt x="370" y="348" on="1"/>
        <pt x="370" y="375" on="0"/>
        <pt x="361" y="427" on="0"/>
        <pt x="337" y="468" on="0"/>
        <pt x="296" y="492" on="0"/>
        <pt x="264" y="492" on="1"/>
        <pt x="234" y="492" on="0"/>
        <pt x="185" y="473" on="0"/>
        <pt x="167" y="450" on="1"/>
        <pt x="180" y="439" on="0"/>
        <pt x="190" y="412" on="0"/>
        <pt x="190" y="395" on="1"/>
        <pt x="190" y="377" on="0"/>
        <pt x="175" y="349" on="0"/>
        <pt x="150" y="330" on="0"/>
        <pt x="118" y="319" on="0"/>
        <pt x="102" y="319" on="1"/>
        <pt x="69" y="319" on="0"/>
        <pt x="28" y="366" on="0"/>
        <pt x="28" y="398" on="1"/>
        <pt x="28" y="441" on="0"/>
        <pt x="77" y="505" on="0"/>
        <pt x="151" y="547" on="0"/>
        <pt x="236" y="568" on="0"/>
        <pt x="271" y="568" on="1"/>
        <pt x="313" y="568" on="0"/>
        <pt x="391" y="553" on="0"/>
        <pt x="454" y="517" on="0"/>
        <pt x="499" y="457" on="0"/>
        <pt x="509" y="412" on="1"/>
        <pt x="553" y="475" on="0"/>
        <pt x="693" y="532" on="0"/>
        <pt x="768" y="532" on="1"/>
        <pt x="825" y="532" on="0"/>
        <pt x="923" y="494" on="0"/>
        <pt x="995" y="424" on="0"/>
        <pt x="1036" y="327" on="0"/>
      </contour>
      <contour>
        <pt x="884" y="316" on="1"/>
        <pt x="879" y="370" on="0"/>
        <pt x="813" y="440" on="0"/>
        <pt x="757" y="440" on="1"/>
        <pt x="699" y="440" on="0"/>
        <pt x="639" y="371" on="0"/>
        <pt x="629" y="318" on="1"/>
      </contour>
      <contour>
        <pt x="354" y="227" on="1"/>
        <pt x="329" y="230" on="0"/>
        <pt x="277" y="237" on="0"/>
        <pt x="251" y="237" on="1"/>
        <pt x="234" y="237" on="0"/>
        <pt x="201" y="230" on="0"/>
        <pt x="174" y="214" on="0"/>
        <pt x="158" y="187" on="0"/>
        <pt x="158" y="167" on="1"/>
        <pt x="158" y="152" on="0"/>
        <pt x="172" y="129" on="0"/>
        <pt x="194" y="113" on="0"/>
        <pt x="221" y="105" on="0"/>
        <pt x="234" y="105" on="1"/>
        <pt x="260" y="105" on="0"/>
        <pt x="313" y="111" on="0"/>
        <pt x="339" y="114" on="1"/>
      </contour>
    </TTGlyph>
    <TTGlyph name="agrave" xMin="20" yMin="-23" xMax="657" yMax="893">
      <component glyphName="a" x="0" y="0" flags="0x204"/>
      <component glyphName="grave" x="-30" y="41" flags="0x4"/>
    </TTGlyph>
    <TTGlyph name="ampersand" xMin="31" yMin="-128" xMax="828" yMax="767">
      <contour>
        <pt x="828" y="177" on="1"/>
        <pt x="375" y="-128" on="1"/>
        <pt x="467" y="34" on="1"/>
        <pt x="445" y="63" on="1"/>
        <pt x="398" y="36" on="0"/>
        <pt x="285" y="-3" on="0"/>
        <pt x="230" y="-3" on="1"/>
        <pt x="192" y="-3" on="0"/>
        <pt x="120" y="22" on="0"/>
        <pt x="64" y="69" on="0"/>
        <pt x="31" y="134" on="0"/>
        <pt x="31" y="174" on="1"/>
        <pt x="31" y="210" on="0"/>
        <pt x="59" y="277" on="0"/>
        <pt x="104" y="336" on="0"/>
        <pt x="162" y="383" on="0"/>
        <pt x="193" y="399" on="1"/>
        <pt x="122" y="493" on="1"/>
        <pt x="103" y="517" on="0"/>
        <pt x="81" y="581" on="0"/>
        <pt x="81" y="611" on="1"/>
        <pt x="81" y="652" on="0"/>
        <pt x="124" y="711" on="0"/>
        <pt x="189" y="749" on="0"/>
        <pt x="265" y="767" on="0"/>
        <pt x="299" y="767" on="1"/>
        <pt x="335" y="767" on="0"/>
        <pt x="404" y="746" on="0"/>
        <pt x="458" y="706" on="0"/>
        <pt x="490" y="645" on="0"/>
        <pt x="490" y="606" on="1"/>
        <pt x="490" y="576" on="0"/>
        <pt x="464" y="521" on="0"/>
        <pt x="425" y="473" on="0"/>
        <pt x="377" y="431" on="0"/>
        <pt x="355" y="414" on="1"/>
        <pt x="511" y="222" on="1"/>
        <pt x="522" y="241" on="0"/>
        <pt x="536" y="281" on="0"/>
        <pt x="536" y="303" on="1"/>
        <pt x="536" y="318" on="0"/>
        <pt x="528" y="355" on="0"/>
        <pt x="518" y="394" on="0"/>
        <pt x="507" y="430" on="0"/>
        <pt x="503" y="444" on="1"/>
        <pt x="699" y="191" on="1"/>
        <pt x="589" y="211" on="1"/>
        <pt x="583" y="198" on="0"/>
        <pt x="567" y="174" on="0"/>
        <pt x="558" y="163" on="1"/>
        <pt x="586" y="129" on="1"/>
      </contour>
      <contour>
        <pt x="370" y="588" on="1"/>
        <pt x="370" y="605" on="0"/>
        <pt x="360" y="644" on="0"/>
        <pt x="340" y="677" on="0"/>
        <pt x="310" y="698" on="0"/>
        <pt x="290" y="698" on="1"/>
        <pt x="275" y="698" on="0"/>
        <pt x="247" y="686" on="0"/>
        <pt x="225" y="666" on="0"/>
        <pt x="211" y="639" on="0"/>
        <pt x="211" y="624" on="1"/>
        <pt x="211" y="612" on="0"/>
        <pt x="218" y="584" on="0"/>
        <pt x="226" y="574" on="1"/>
        <pt x="309" y="472" on="1"/>
        <pt x="319" y="481" on="0"/>
        <pt x="341" y="509" on="0"/>
        <pt x="359" y="540" on="0"/>
        <pt x="370" y="573" on="0"/>
      </contour>
      <contour>
        <pt x="396" y="127" on="1"/>
        <pt x="240" y="336" on="1"/>
        <pt x="218" y="313" on="0"/>
        <pt x="185" y="256" on="0"/>
        <pt x="185" y="224" on="1"/>
        <pt x="185" y="198" on="0"/>
        <pt x="208" y="156" on="0"/>
        <pt x="245" y="126" on="0"/>
        <pt x="292" y="110" on="0"/>
        <pt x="316" y="110" on="1"/>
        <pt x="359" y="110" on="0"/>
      </contour>
    </TTGlyph>
    <TTGlyph name="aring" xMin="20" yMin="-23" xMax="657" yMax="766">
      <contour>
        <pt x="375" y="227" on="1"/>
        <pt x="349" y="230" on="0"/>
        <pt x="297" y="237" on="0"/>
        <pt x="271" y="237" on="1"/>
        <pt x="254" y="237" on="0"/>
        <pt x="221" y="230" on="0"/>
        <pt x="194" y="214" on="0"/>
        <pt x="178" y="187" on="0"/>
        <pt x="178" y="167" on="1"/>
        <pt x="178" y="152" on="0"/>
        <pt x="192" y="129" on="0"/>
        <pt x="215" y="113" on="0"/>
        <pt x="242" y="105" on="0"/>
        <pt x="255" y="105" on="1"/>
        <pt x="281" y="105" on="0"/>
        <pt x="334" y="111" on="0"/>
        <pt x="359" y="114" on="1"/>
      </contour>
      <contour>
        <pt x="447" y="658" on="1"/>
        <pt x="447" y="626" on="0"/>
        <pt x="411" y="572" on="0"/>
        <pt x="382" y="559" on="1"/>
        <pt x="456" y="541" on="0"/>
        <pt x="536" y="436" on="0"/>
        <pt x="536" y="342" on="1"/>
        <pt x="536" y="329" on="0"/>
        <pt x="535" y="303" on="0"/>
        <pt x="534" y="290" on="1"/>
        <pt x="510" y="60" on="1"/>
        <pt x="548" y="43" on="0"/>
        <pt x="620" y="7" on="0"/>
        <pt x="657" y="-10" on="1"/>
        <pt x="340" y="-23" on="1"/>
        <pt x="347" y="33" on="1"/>
        <pt x="315" y="29" on="0"/>
        <pt x="251" y="28" on="0"/>
        <pt x="219" y="28" on="1"/>
        <pt x="190" y="28" on="0"/>
        <pt x="120" y="42" on="0"/>
        <pt x="60" y="73" on="0"/>
        <pt x="20" y="123" on="0"/>
        <pt x="20" y="159" on="1"/>
        <pt x="20" y="199" on="0"/>
        <pt x="58" y="255" on="0"/>
        <pt x="117" y="289" on="0"/>
        <pt x="189" y="305" on="0"/>
        <pt x="223" y="305" on="1"/>
        <pt x="265" y="305" on="0"/>
        <pt x="345" y="297" on="0"/>
        <pt x="386" y="294" on="1"/>
        <pt x="388" y="307" on="0"/>
        <pt x="390" y="334" on="0"/>
        <pt x="390" y="348" on="1"/>
        <pt x="390" y="375" on="0"/>
        <pt x="381" y="427" on="0"/>
        <pt x="358" y="468" on="0"/>
        <pt x="317" y="492" on="0"/>
        <pt x="285" y="492" on="1"/>
        <pt x="255" y="492" on="0"/>
        <pt x="206" y="473" on="0"/>
        <pt x="187" y="450" on="1"/>
        <pt x="201" y="439" on="0"/>
        <pt x="211" y="412" on="0"/>
        <pt x="211" y="395" on="1"/>
        <pt x="211" y="389" on="1"/>
        <pt x="196" y="319" on="0"/>
        <pt x="123" y="319" on="1"/>
        <pt x="90" y="319" on="0"/>
        <pt x="48" y="366" on="0"/>
        <pt x="48" y="398" on="1"/>
        <pt x="48" y="440" on="0"/>
        <pt x="94" y="502" on="0"/>
        <pt x="163" y="544" on="0"/>
        <pt x="244" y="566" on="0"/>
        <pt x="280" y="568" on="1"/>
        <pt x="258" y="583" on="0"/>
        <pt x="231" y="630" on="0"/>
        <pt x="231" y="658" on="1"/>
        <pt x="231" y="680" on="0"/>
        <pt x="249" y="719" on="0"/>
        <pt x="279" y="749" on="0"/>
        <pt x="318" y="766" on="0"/>
        <pt x="339" y="766" on="1"/>
        <pt x="361" y="766" on="0"/>
        <pt x="400" y="749" on="0"/>
        <pt x="430" y="719" on="0"/>
        <pt x="447" y="680" on="0"/>
      </contour>
      <contour>
        <pt x="379" y="656" on="1"/>
        <pt x="379" y="672" on="0"/>
        <pt x="356" y="695" on="0"/>
        <pt x="339" y="695" on="1"/>
        <pt x="323" y="695" on="0"/>
        <pt x="300" y="672" on="0"/>
        <pt x="300" y="656" on="1"/>
        <pt x="300" y="640" on="0"/>
        <pt x="325" y="619" on="0"/>
        <pt x="339" y="619" on="1"/>
        <pt x="354" y="619" on="0"/>
        <pt x="379" y="640" on="0"/>
      </contour>
    </TTGlyph>
    <TTGlyph name="asciicircum" xMin="-10" yMin="286" xMax="689" yMax="912">
      <contour>
        <pt x="689" y="343" on="1"/>
        <pt x="599" y="331" on="1"/>
        <pt x="360" y="629" on="1"/>
        <pt x="182" y="286" on="1"/>
        <pt x="-10" y="337" on="1"/>
        <pt x="330" y="912" on="1"/>
      </contour>
    </TTGlyph>
    <TTGlyph name="asciitilde" xMin="0" yMin="214" xMax="478" yMax="429">
      <contour>
        <pt x="478" y="261" on="1"/>
        <pt x="445" y="247" on="0"/>
        <pt x="381" y="228" on="0"/>
        <pt x="345" y="228" on="1"/>
        <pt x="313" y="228" on="0"/>
        <pt x="254" y="244" on="0"/>
        <pt x="199" y="262" on="0"/>
        <pt x="150" y="278" on="0"/>
        <pt x="129" y="278" on="1"/>
        <pt x="115" y="278" on="0"/>
        <pt x="79" y="263" on="0"/>
        <pt x="43" y="242" on="0"/>
        <pt x="11" y="220" on="0"/>
        <pt x="0" y="214" on="1"/>
        <pt x="0" y="383" on="1"/>
        <pt x="32" y="394" on="0"/>
        <pt x="99" y="415" on="0"/>
        <pt x="134" y="415" on="1"/>
        <pt x="165" y="415" on="0"/>
        <pt x="224" y="400" on="0"/>
        <pt x="277" y="382" on="0"/>
        <pt x="323" y="367" on="0"/>
        <pt x="342" y="367" on="1"/>
        <pt x="357" y="367" on="0"/>
        <pt x="394" y="381" on="0"/>
        <pt x="432" y="401" on="0"/>
        <pt x="466" y="422" on="0"/>
        <pt x="478" y="429" on="1"/>
      </contour>
    </TTGlyph>
    <TTGlyph name="asterisk" xMin="10" yMin="11" xMax="656" yMax="654">
      <contour>
        <pt x="656" y="410" on="1"/>
        <pt x="640" y="259" on="1"/>
        <pt x="419" y="283" on="1"/>
        <pt x="556" y="118" on="1"/>
        <pt x="382" y="30" on="1"/>
        <pt x="316" y="224" on="1"/>
        <pt x="217" y="11" on="1"/>
        <pt x="95" y="100" on="1"/>
        <pt x="229" y="278" on="1"/>
        <pt x="10" y="242" on="1"/>
        <pt x="22" y="436" on="1"/>
        <pt x="229" y="394" on="1"/>
        <pt x="88" y="594" on="1"/>
        <pt x="226" y="654" on="1"/>
        <pt x="319" y="443" on="1"/>
        <pt x="395" y="654" on="1"/>
        <pt x="558" y="548" on="1"/>
        <pt x="420" y="385" on="1"/>
      </contour>
    </TTGlyph>
    <TTGlyph name="at" xMin="0" yMin="-38" xMax="839" yMax="688">
      <contour>
        <pt x="839" y="316" on="1"/>
        <pt x="839" y="267" on="0"/>
        <pt x="810" y="160" on="0"/>
        <pt x="751" y="71" on="0"/>
        <pt x="665" y="13" on="0"/>
        <pt x="608" y="13" on="1"/>
        <pt x="584" y="13" on="0"/>
        <pt x="539" y="27" on="0"/>
        <pt x="501" y="54" on="0"/>
        <pt x="474" y="93" on="0"/>
        <pt x="470" y="118" on="1"/>
        <pt x="447" y="112" on="0"/>
        <pt x="399" y="103" on="0"/>
        <pt x="374" y="103" on="1"/>
        <pt x="349" y="103" on="0"/>
        <pt x="295" y="114" on="0"/>
        <pt x="250" y="140" on="0"/>
        <pt x="220" y="180" on="0"/>
        <pt x="220" y="210" on="1"/>
        <pt x="220" y="243" on="0"/>
        <pt x="248" y="289" on="0"/>
        <pt x="292" y="317" on="0"/>
        <pt x="348" y="330" on="0"/>
        <pt x="377" y="330" on="1"/>
        <pt x="406" y="330" on="0"/>
        <pt x="466" y="323" on="0"/>
        <pt x="495" y="319" on="1"/>
        <pt x="498" y="343" on="0"/>
        <pt x="498" y="365" on="1"/>
        <pt x="498" y="384" on="0"/>
        <pt x="492" y="425" on="0"/>
        <pt x="476" y="459" on="0"/>
        <pt x="446" y="480" on="0"/>
        <pt x="422" y="480" on="1"/>
        <pt x="400" y="480" on="0"/>
        <pt x="361" y="465" on="0"/>
        <pt x="348" y="446" on="1"/>
        <pt x="356" y="438" on="0"/>
        <pt x="369" y="416" on="0"/>
        <pt x="369" y="402" on="1"/>
        <pt x="369" y="376" on="0"/>
        <pt x="328" y="341" on="0"/>
        <pt x="302" y="341" on="1"/>
        <pt x="275" y="341" on="0"/>
        <pt x="241" y="375" on="0"/>
        <pt x="241" y="401" on="1"/>
        <pt x="241" y="437" on="0"/>
        <pt x="276" y="490" on="0"/>
        <pt x="331" y="526" on="0"/>
        <pt x="397" y="543" on="0"/>
        <pt x="427" y="543" on="1"/>
        <pt x="521" y="543" on="0"/>
        <pt x="610" y="453" on="0"/>
        <pt x="610" y="359" on="1"/>
        <pt x="610" y="302" on="0"/>
        <pt x="592" y="188" on="0"/>
        <pt x="592" y="130" on="1"/>
        <pt x="592" y="123" on="0"/>
        <pt x="595" y="105" on="0"/>
        <pt x="603" y="90" on="0"/>
        <pt x="616" y="79" on="0"/>
        <pt x="625" y="79" on="1"/>
        <pt x="642" y="79" on="0"/>
        <pt x="668" y="108" on="0"/>
        <pt x="686" y="154" on="0"/>
        <pt x="698" y="210" on="0"/>
        <pt x="704" y="263" on="0"/>
        <pt x="707" y="308" on="0"/>
        <pt x="707" y="319" on="1"/>
        <pt x="707" y="381" on="0"/>
        <pt x="674" y="487" on="0"/>
        <pt x="608" y="565" on="0"/>
        <pt x="509" y="610" on="0"/>
        <pt x="444" y="610" on="1"/>
        <pt x="380" y="610" on="0"/>
        <pt x="265" y="569" on="0"/>
        <pt x="179" y="494" on="0"/>
        <pt x="129" y="385" on="0"/>
        <pt x="129" y="318" on="1"/>
        <pt x="129" y="234" on="0"/>
        <pt x="187" y="115" on="0"/>
        <pt x="286" y="38" on="0"/>
        <pt x="420" y="-2" on="0"/>
        <pt x="497" y="-7" on="1"/>
        <pt x="499" y="-7" on="0"/>
        <pt x="517" y="-9" on="0"/>
        <pt x="536" y="-11" on="0"/>
        <pt x="552" y="-15" on="0"/>
        <pt x="552" y="-18" on="1"/>
        <pt x="552" y="-22" on="0"/>
        <pt x="536" y="-28" on="0"/>
        <pt x="516" y="-32" on="0"/>
        <pt x="498" y="-34" on="0"/>
        <pt x="495" y="-34" on="1"/>
        <pt x="475" y="-36" on="0"/>
        <pt x="434" y="-38" on="0"/>
        <pt x="414" y="-38" on="1"/>
        <pt x="328" y="-38" on="0"/>
        <pt x="177" y="-1" on="0"/>
        <pt x="65" y="82" on="0"/>
        <pt x="0" y="214" on="0"/>
        <pt x="0" y="310" on="1"/>
        <pt x="0" y="404" on="0"/>
        <pt x="74" y="546" on="0"/>
        <pt x="197" y="641" on="0"/>
        <pt x="357" y="688" on="0"/>
        <pt x="443" y="688" on="1"/>
        <pt x="523" y="688" on="0"/>
        <pt x="667" y="634" on="0"/>
        <pt x="775" y="536" on="0"/>
        <pt x="839" y="399" on="0"/>
      </contour>
      <contour>
        <pt x="486" y="266" on="1"/>
        <pt x="468" y="268" on="0"/>
        <pt x="430" y="273" on="0"/>
        <pt x="412" y="273" on="1"/>
        <pt x="385" y="273" on="0"/>
        <pt x="345" y="247" on="0"/>
        <pt x="345" y="217" on="1"/>
        <pt x="345" y="194" on="0"/>
        <pt x="380" y="167" on="0"/>
        <pt x="400" y="167" on="1"/>
        <pt x="419" y="167" on="0"/>
        <pt x="458" y="171" on="0"/>
        <pt x="476" y="174" on="1"/>
      </contour>
    </TTGlyph>
    <TTGlyph name="atilde" xMin="20" yMin="-23" xMax="657" yMax="827">
      <component glyphName="a" x="0" y="0" flags="0x204"/>
      <component glyphName="tilde" x="-60" y="-81" flags="0x4"/>
    </TTGlyph>
    <TTGlyph name="b" xMin="-143" yMin="-160" xMax="731" yMax="768">
      <contour>
        <pt x="731" y="120" on="1"/>
        <pt x="731" y="64" on="0"/>
        <pt x="669" y="-22" on="0"/>
        <pt x="576" y="-83" on="0"/>
        <pt x="466" y="-118" on="0"/>
        <pt x="419" y="-122" on="1"/>
        <pt x="-29" y="-160" on="1"/>
        <pt x="136" y="-27" on="1"/>
        <pt x="109" y="628" on="1"/>
        <pt x="-143" y="710" on="1"/>
        <pt x="299" y="768" on="1"/>
        <pt x="280" y="288" on="1"/>
        <pt x="324" y="301" on="0"/>
        <pt x="417" y="311" on="0"/>
        <pt x="463" y="311" on="1"/>
        <pt x="509" y="311" on="0"/>
        <pt x="604" y="292" on="0"/>
        <pt x="682" y="248" on="0"/>
        <pt x="731" y="175" on="0"/>
      </contour>
      <contour>
        <pt x="554" y="92" on="1"/>
        <pt x="554" y="125" on="0"/>
        <pt x="530" y="174" on="0"/>
        <pt x="489" y="207" on="0"/>
        <pt x="434" y="224" on="0"/>
        <pt x="403" y="224" on="1"/>
        <pt x="375" y="224" on="0"/>
        <pt x="301" y="209" on="0"/>
        <pt x="275" y="196" on="1"/>
        <pt x="265" y="-42" on="1"/>
        <pt x="278" y="-44" on="0"/>
        <pt x="303" y="-44" on="0"/>
        <pt x="315" y="-44" on="1"/>
        <pt x="350" y="-44" on="0"/>
        <pt x="433" y="-35" on="0"/>
        <pt x="505" y="-7" on="0"/>
        <pt x="554" y="47" on="0"/>
      </contour>
    </TTGlyph>
    <TTGlyph name="backslash" xMin="10" yMin="-79" xMax="687" yMax="905">
      <contour>
        <pt x="687" y="-2" on="1"/>
        <pt x="558" y="-79" on="1"/>
        <pt x="10" y="806" on="1"/>
        <pt x="164" y="905" on="1"/>
      </contour>
    </TTGlyph>
    <TTGlyph name="bar" xMin="72" yMin="-76" xMax="241" yMax="859">
      <contour>
        <pt x="241" y="859" on="1"/>
        <pt x="227" y="-76" on="1"/>
        <pt x="83" y="-76" on="1"/>
        <pt x="72" y="852" on="1"/>
      </contour>
    </TTGlyph>
    <TTGlyph name="braceleft" xMin="72" yMin="-123" xMax="653" yMax="842">
      <contour>
        <pt x="653" y="830" on="1"/>
        <pt x="419" y="719" on="1"/>
        <pt x="407" y="-13" on="1"/>
        <pt x="622" y="-123" on="1"/>
        <pt x="280" y="-121" on="1"/>
        <pt x="268" y="290" on="1"/>
        <pt x="72" y="348" on="1"/>
        <pt x="263" y="411" on="1"/>
        <pt x="253" y="842" on="1"/>
      </contour>
    </TTGlyph>
    <TTGlyph name="braceright" xMin="-10" yMin="-123" xMax="571" yMax="842">
      <contour>
        <pt x="571" y="348" on="1"/>
        <pt x="375" y="290" on="1"/>
        <pt x="364" y="-121" on="1"/>
        <pt x="22" y="-123" on="1"/>
        <pt x="237" y="-13" on="1"/>
        <pt x="224" y="719" on="1"/>
        <pt x="-10" y="830" on="1"/>
        <pt x="390" y="842" on="1"/>
        <pt x="379" y="411" on="1"/>
      </contour>
    </TTGlyph>
    <TTGlyph name="bracketleft" xMin="61" yMin="-123" xMax="462" yMax="842">
      <contour>
        <pt x="462" y="830" on="1"/>
        <pt x="228" y="719" on="1"/>
        <pt x="216" y="-13" on="1"/>
        <pt x="430" y="-123" on="1"/>
        <pt x="88" y="-121" on="1"/>
        <pt x="61" y="842" on="1"/>
      </contour>
    </TTGlyph>
    <TTGlyph name="bracketright" xMin="-61" yMin="-123" xMax="339" yMax="842">
      <contour>
        <pt x="339" y="842" on="1"/>
        <pt x="312" y="-121" on="1"/>
        <pt x="-30" y="-123" on="1"/>
        <pt x="185" y="-13" on="1"/>
        <pt x="173" y="719" on="1"/>
        <pt x="-61" y="830" on="1"/>
      </contour>
    </TTGlyph>
    <TTGlyph name="breve" xMin="239" yMin="755" xMax="575" yMax="958">
      <contour>
        <pt x="575" y="921" on="1"/>
        <pt x="563" y="897" on="0"/>
        <pt x="530" y="839" on="0"/>
        <pt x="488" y="789" on="0"/>
        <pt x="436" y="755" on="0"/>
        <pt x="405" y="755" on="1"/>
        <pt x="375" y="755" on="0"/>
        <pt x="323" y="788" on="0"/>
        <pt x="280" y="838" on="0"/>
        <pt x="248" y="897" on="0"/>
        <pt x="239" y="922" on="1"/>
        <pt x="282" y="958" on="1"/>
        <pt x="294" y="946" on="0"/>
        <pt x="323" y="919" on="0"/>
        <pt x="355" y="896" on="0"/>
        <pt x="390" y="881" on="0"/>
        <pt x="408" y="881" on="1"/>
        <pt x="426" y="881" on="0"/>
        <pt x="460" y="896" on="0"/>
        <pt x="491" y="918" on="0"/>
        <pt x="518" y="946" on="0"/>
        <pt x="530" y="958" on="1"/>
      </contour>
    </TTGlyph>
    <TTGlyph name="brokenbar" xMin="72" yMin="-76" xMax="241" yMax="859">
      <contour>
        <pt x="232" y="304" on="1"/>
        <pt x="227" y="-76" on="1"/>
        <pt x="83" y="-76" on="1"/>
        <pt x="78" y="314" on="1"/>
        <pt x="113" y="311" on="0"/>
        <pt x="195" y="306" on="0"/>
      </contour>
      <contour>
        <pt x="241" y="859" on="1"/>
        <pt x="236" y="499" on="1"/>
        <pt x="195" y="497" on="0"/>
        <pt x="109" y="491" on="0"/>
        <pt x="76" y="489" on="1"/>
        <pt x="72" y="852" on="1"/>
      </contour>
    </TTGlyph>
    <TTGlyph name="bullet" xMin="0" yMin="250" xMax="282" yMax="531">
      <contour>
        <pt x="282" y="391" on="1"/>
        <pt x="282" y="362" on="0"/>
        <pt x="260" y="310" on="0"/>
        <pt x="221" y="272" on="0"/>
        <pt x="169" y="250" on="0"/>
        <pt x="140" y="250" on="1"/>
        <pt x="111" y="250" on="0"/>
        <pt x="60" y="272" on="0"/>
        <pt x="22" y="311" on="0"/>
        <pt x="0" y="362" on="0"/>
        <pt x="0" y="391" on="1"/>
        <pt x="0" y="420" on="0"/>
        <pt x="22" y="471" on="0"/>
        <pt x="60" y="509" on="0"/>
        <pt x="111" y="531" on="0"/>
        <pt x="140" y="531" on="1"/>
        <pt x="169" y="531" on="0"/>
        <pt x="220" y="509" on="0"/>
        <pt x="259" y="471" on="0"/>
        <pt x="282" y="420" on="0"/>
      </contour>
    </TTGlyph>
    <TTGlyph name="c" xMin="31" yMin="-63" xMax="595" yMax="507">
      <contour>
        <pt x="594" y="204" on="1"/>
        <pt x="595" y="140" on="0"/>
        <pt x="558" y="40" on="0"/>
        <pt x="487" y="-28" on="0"/>
        <pt x="386" y="-63" on="0"/>
        <pt x="324" y="-63" on="1"/>
        <pt x="263" y="-63" on="0"/>
        <pt x="156" y="-23" on="0"/>
        <pt x="77" y="51" on="0"/>
        <pt x="31" y="153" on="0"/>
        <pt x="31" y="216" on="1"/>
        <pt x="31" y="282" on="0"/>
        <pt x="83" y="390" on="0"/>
        <pt x="171" y="466" on="0"/>
        <pt x="286" y="507" on="0"/>
        <pt x="349" y="507" on="1"/>
        <pt x="383" y="507" on="0"/>
        <pt x="464" y="485" on="0"/>
        <pt x="535" y="443" on="0"/>
        <pt x="582" y="381" on="0"/>
        <pt x="582" y="340" on="1"/>
        <pt x="582" y="302" on="0"/>
        <pt x="536" y="256" on="0"/>
        <pt x="498" y="256" on="1"/>
        <pt x="460" y="256" on="0"/>
        <pt x="406" y="299" on="0"/>
        <pt x="406" y="338" on="1"/>
        <pt x="406" y="351" on="0"/>
        <pt x="411" y="380" on="0"/>
        <pt x="418" y="391" on="1"/>
        <pt x="401" y="405" on="0"/>
        <pt x="361" y="417" on="0"/>
        <pt x="340" y="417" on="1"/>
        <pt x="302" y="417" on="0"/>
        <pt x="249" y="380" on="0"/>
        <pt x="216" y="324" on="0"/>
        <pt x="202" y="255" on="0"/>
        <pt x="202" y="224" on="1"/>
        <pt x="202" y="185" on="0"/>
        <pt x="226" y="120" on="0"/>
        <pt x="272" y="73" on="0"/>
        <pt x="336" y="46" on="0"/>
        <pt x="377" y="46" on="1"/>
        <pt x="413" y="46" on="0"/>
        <pt x="477" y="74" on="0"/>
        <pt x="531" y="119" on="0"/>
        <pt x="576" y="175" on="0"/>
      </contour>
    </TTGlyph>
    <TTGlyph name="caron" xMin="226" yMin="705" xMax="587" yMax="949">
      <contour>
        <pt x="587" y="913" on="1"/>
        <pt x="423" y="705" on="1"/>
        <pt x="391" y="705" on="1"/>
        <pt x="226" y="913" on="1"/>
        <pt x="273" y="949" on="1"/>
        <pt x="407" y="865" on="1"/>
        <pt x="540" y="949" on="1"/>
      </contour>
    </TTGlyph>
    <TTGlyph name="ccedilla" xMin="31" yMin="-354" xMax="595" yMax="507">
      <contour>
        <pt x="437" y="-230" on="1"/>
        <pt x="437" y="-284" on="0"/>
        <pt x="368" y="-354" on="0"/>
        <pt x="313" y="-354" on="1"/>
        <pt x="273" y="-354" on="0"/>
        <pt x="224" y="-321" on="0"/>
        <pt x="198" y="-294" on="1"/>
        <pt x="253" y="-232" on="1"/>
        <pt x="264" y="-244" on="0"/>
        <pt x="295" y="-271" on="0"/>
        <pt x="311" y="-271" on="1"/>
        <pt x="331" y="-271" on="0"/>
        <pt x="353" y="-249" on="0"/>
        <pt x="353" y="-230" on="1"/>
        <pt x="353" y="-210" on="0"/>
        <pt x="330" y="-192" on="0"/>
        <pt x="313" y="-188" on="1"/>
        <pt x="285" y="-183" on="0"/>
        <pt x="228" y="-176" on="0"/>
        <pt x="199" y="-171" on="1"/>
        <pt x="272" y="-60" on="1"/>
        <pt x="220" y="-52" on="0"/>
        <pt x="132" y="-5" on="0"/>
        <pt x="67" y="66" on="0"/>
        <pt x="31" y="160" on="0"/>
        <pt x="31" y="216" on="1"/>
        <pt x="31" y="282" on="0"/>
        <pt x="83" y="390" on="0"/>
        <pt x="171" y="466" on="0"/>
        <pt x="286" y="507" on="0"/>
        <pt x="349" y="507" on="1"/>
        <pt x="383" y="507" on="0"/>
        <pt x="464" y="485" on="0"/>
        <pt x="535" y="443" on="0"/>
        <pt x="582" y="381" on="0"/>
        <pt x="582" y="340" on="1"/>
        <pt x="582" y="302" on="0"/>
        <pt x="536" y="256" on="0"/>
        <pt x="498" y="256" on="1"/>
        <pt x="460" y="256" on="0"/>
        <pt x="406" y="299" on="0"/>
        <pt x="406" y="338" on="1"/>
        <pt x="406" y="351" on="0"/>
        <pt x="411" y="380" on="0"/>
        <pt x="418" y="391" on="1"/>
        <pt x="401" y="405" on="0"/>
        <pt x="361" y="417" on="0"/>
        <pt x="340" y="417" on="1"/>
        <pt x="302" y="417" on="0"/>
        <pt x="249" y="380" on="0"/>
        <pt x="216" y="324" on="0"/>
        <pt x="202" y="255" on="0"/>
        <pt x="202" y="224" on="1"/>
        <pt x="202" y="185" on="0"/>
        <pt x="226" y="120" on="0"/>
        <pt x="272" y="73" on="0"/>
        <pt x="336" y="46" on="0"/>
        <pt x="377" y="46" on="1"/>
        <pt x="413" y="46" on="0"/>
        <pt x="477" y="74" on="0"/>
        <pt x="531" y="119" on="0"/>
        <pt x="576" y="175" on="0"/>
        <pt x="594" y="204" on="1"/>
        <pt x="595" y="143" on="0"/>
        <pt x="562" y="47" on="0"/>
        <pt x="497" y="-21" on="0"/>
        <pt x="404" y="-60" on="0"/>
        <pt x="346" y="-63" on="1"/>
        <pt x="342" y="-75" on="0"/>
        <pt x="335" y="-100" on="0"/>
        <pt x="328" y="-111" on="1"/>
        <pt x="352" y="-111" on="0"/>
        <pt x="392" y="-131" on="0"/>
        <pt x="421" y="-164" on="0"/>
        <pt x="437" y="-207" on="0"/>
      </contour>
    </TTGlyph>
    <TTGlyph name="cedilla" xMin="280" yMin="-190" xMax="519" yMax="129">
      <contour>
        <pt x="519" y="-67" on="1"/>
        <pt x="519" y="-94" on="0"/>
        <pt x="501" y="-139" on="0"/>
        <pt x="468" y="-172" on="0"/>
        <pt x="422" y="-190" on="0"/>
        <pt x="395" y="-190" on="1"/>
        <pt x="355" y="-190" on="0"/>
        <pt x="306" y="-157" on="0"/>
        <pt x="280" y="-130" on="1"/>
        <pt x="335" y="-69" on="1"/>
        <pt x="346" y="-80" on="0"/>
        <pt x="377" y="-108" on="0"/>
        <pt x="393" y="-108" on="1"/>
        <pt x="413" y="-108" on="0"/>
        <pt x="435" y="-85" on="0"/>
        <pt x="435" y="-67" on="1"/>
        <pt x="435" y="-47" on="0"/>
        <pt x="412" y="-28" on="0"/>
        <pt x="395" y="-25" on="1"/>
        <pt x="366" y="-19" on="0"/>
        <pt x="309" y="-12" on="0"/>
        <pt x="281" y="-7" on="1"/>
        <pt x="370" y="129" on="1"/>
        <pt x="440" y="129" on="1"/>
        <pt x="429" y="111" on="0"/>
        <pt x="421" y="71" on="0"/>
        <pt x="410" y="53" on="1"/>
        <pt x="434" y="53" on="0"/>
        <pt x="474" y="33" on="0"/>
        <pt x="503" y="0" on="0"/>
        <pt x="519" y="-43" on="0"/>
      </contour>
    </TTGlyph>
    <TTGlyph name="cent" xMin="-10" yMin="-106" xMax="439" yMax="731">
      <contour>
        <pt x="439" y="275" on="1"/>
        <pt x="439" y="243" on="0"/>
        <pt x="418" y="179" on="0"/>
        <pt x="379" y="123" on="0"/>
        <pt x="324" y="82" on="0"/>
        <pt x="291" y="74" on="1"/>
        <pt x="296" y="28" on="0"/>
        <pt x="300" y="-61" on="0"/>
        <pt x="302" y="-106" on="1"/>
        <pt x="162" y="-106" on="1"/>
        <pt x="164" y="-62" on="0"/>
        <pt x="169" y="26" on="0"/>
        <pt x="174" y="71" on="1"/>
        <pt x="129" y="80" on="0"/>
        <pt x="61" y="127" on="0"/>
        <pt x="14" y="193" on="0"/>
        <pt x="-10" y="274" on="0"/>
        <pt x="-10" y="318" on="1"/>
        <pt x="-10" y="362" on="0"/>
        <pt x="15" y="443" on="0"/>
        <pt x="61" y="510" on="0"/>
        <pt x="129" y="560" on="0"/>
        <pt x="172" y="572" on="1"/>
        <pt x="169" y="612" on="0"/>
        <pt x="164" y="691" on="0"/>
        <pt x="162" y="731" on="1"/>
        <pt x="302" y="731" on="1"/>
        <pt x="300" y="693" on="0"/>
        <pt x="295" y="616" on="0"/>
        <pt x="292" y="578" on="1"/>
        <pt x="314" y="573" on="0"/>
        <pt x="362" y="547" on="0"/>
        <pt x="402" y="509" on="0"/>
        <pt x="428" y="461" on="0"/>
        <pt x="428" y="436" on="1"/>
        <pt x="428" y="410" on="0"/>
        <pt x="393" y="375" on="0"/>
        <pt x="367" y="375" on="1"/>
        <pt x="338" y="375" on="0"/>
        <pt x="297" y="411" on="0"/>
        <pt x="297" y="440" on="1"/>
        <pt x="297" y="465" on="0"/>
        <pt x="309" y="483" on="1"/>
        <pt x="296" y="500" on="0"/>
        <pt x="257" y="514" on="0"/>
        <pt x="237" y="514" on="1"/>
        <pt x="202" y="514" on="0"/>
        <pt x="155" y="475" on="0"/>
        <pt x="128" y="418" on="0"/>
        <pt x="117" y="353" on="0"/>
        <pt x="117" y="326" on="1"/>
        <pt x="117" y="291" on="0"/>
        <pt x="134" y="229" on="0"/>
        <pt x="169" y="181" on="0"/>
        <pt x="222" y="153" on="0"/>
        <pt x="259" y="153" on="1"/>
        <pt x="262" y="153" on="1"/>
        <pt x="291" y="153" on="0"/>
        <pt x="344" y="175" on="0"/>
        <pt x="389" y="211" on="0"/>
        <pt x="426" y="257" on="0"/>
        <pt x="439" y="281" on="1"/>
      </contour>
    </TTGlyph>
    <TTGlyph name="circumflex" xMin="226" yMin="700" xMax="587" yMax="944">
      <contour>
        <pt x="587" y="736" on="1"/>
        <pt x="540" y="700" on="1"/>
        <pt x="407" y="785" on="1"/>
        <pt x="273" y="700" on="1"/>
        <pt x="226" y="736" on="1"/>
        <pt x="391" y="944" on="1"/>
        <pt x="423" y="944" on="1"/>
      </contour>
    </TTGlyph>
    <TTGlyph name="colon" xMin="0" yMin="-89" xMax="212" yMax="346">
      <contour>
        <pt x="212" y="257" on="1"/>
        <pt x="212" y="236" on="0"/>
        <pt x="194" y="205" on="0"/>
        <pt x="165" y="184" on="0"/>
        <pt x="128" y="173" on="0"/>
        <pt x="109" y="173" on="1"/>
        <pt x="90" y="173" on="0"/>
        <pt x="51" y="183" on="0"/>
        <pt x="20" y="204" on="0"/>
        <pt x="0" y="235" on="0"/>
        <pt x="0" y="256" on="1"/>
        <pt x="0" y="278" on="0"/>
        <pt x="19" y="311" on="0"/>
        <pt x="49" y="334" on="0"/>
        <pt x="88" y="346" on="0"/>
        <pt x="108" y="346" on="1"/>
        <pt x="126" y="346" on="0"/>
        <pt x="163" y="333" on="0"/>
        <pt x="193" y="309" on="0"/>
        <pt x="212" y="276" on="0"/>
      </contour>
      <contour>
        <pt x="212" y="-4" on="1"/>
        <pt x="212" y="-25" on="0"/>
        <pt x="194" y="-57" on="0"/>
        <pt x="165" y="-78" on="0"/>
        <pt x="128" y="-89" on="0"/>
        <pt x="109" y="-89" on="1"/>
        <pt x="90" y="-89" on="0"/>
        <pt x="51" y="-79" on="0"/>
        <pt x="20" y="-58" on="0"/>
        <pt x="0" y="-27" on="0"/>
        <pt x="0" y="-6" on="1"/>
        <pt x="0" y="16" on="0"/>
        <pt x="19" y="50" on="0"/>
        <pt x="49" y="73" on="0"/>
        <pt x="88" y="85" on="0"/>
        <pt x="108" y="85" on="1"/>
        <pt x="126" y="85" on="0"/>
        <pt x="163" y="72" on="0"/>
        <pt x="193" y="48" on="0"/>
        <pt x="212" y="15" on="0"/>
      </contour>
    </TTGlyph>
    <TTGlyph name="comma" xMin="10" yMin="-219" xMax="222" yMax="74">
      <contour>
        <pt x="222" y="-17" on="1"/>
        <pt x="222" y="-46" on="0"/>
        <pt x="205" y="-100" on="0"/>
        <pt x="173" y="-147" on="0"/>
        <pt x="130" y="-184" on="0"/>
        <pt x="103" y="-196" on="1"/>
        <pt x="50" y="-219" on="1"/>
        <pt x="65" y="-188" on="0"/>
        <pt x="93" y="-126" on="0"/>
        <pt x="100" y="-92" on="1"/>
        <pt x="83" y="-91" on="0"/>
        <pt x="51" y="-83" on="0"/>
        <pt x="25" y="-65" on="0"/>
        <pt x="10" y="-38" on="0"/>
        <pt x="10" y="-18" on="1"/>
        <pt x="10" y="4" on="0"/>
        <pt x="29" y="38" on="0"/>
        <pt x="59" y="62" on="0"/>
        <pt x="98" y="74" on="0"/>
        <pt x="118" y="74" on="1"/>
        <pt x="136" y="74" on="0"/>
        <pt x="173" y="60" on="0"/>
        <pt x="203" y="36" on="0"/>
        <pt x="222" y="3" on="0"/>
      </contour>
    </TTGlyph>
    <TTGlyph name="copyright" xMin="0" yMin="46" xMax="717" yMax="691">
      <contour>
        <pt x="717" y="372" on="1"/>
        <pt x="717" y="295" on="0"/>
        <pt x="656" y="174" on="0"/>
        <pt x="554" y="90" on="0"/>
        <pt x="421" y="46" on="0"/>
        <pt x="349" y="46" on="1"/>
        <pt x="278" y="46" on="0"/>
        <pt x="151" y="92" on="0"/>
        <pt x="56" y="176" on="0"/>
        <pt x="0" y="296" on="0"/>
        <pt x="0" y="371" on="1"/>
        <pt x="0" y="454" on="0"/>
        <pt x="59" y="575" on="0"/>
        <pt x="160" y="653" on="0"/>
        <pt x="296" y="691" on="0"/>
        <pt x="373" y="691" on="1"/>
        <pt x="443" y="691" on="0"/>
        <pt x="568" y="646" on="0"/>
        <pt x="662" y="563" on="0"/>
        <pt x="717" y="445" on="0"/>
      </contour>
      <contour>
        <pt x="609" y="374" on="1"/>
        <pt x="609" y="423" on="0"/>
        <pt x="574" y="509" on="0"/>
        <pt x="513" y="573" on="0"/>
        <pt x="428" y="609" on="0"/>
        <pt x="378" y="609" on="1"/>
        <pt x="327" y="609" on="0"/>
        <pt x="229" y="578" on="0"/>
        <pt x="151" y="519" on="0"/>
        <pt x="104" y="433" on="0"/>
        <pt x="104" y="378" on="1"/>
        <pt x="104" y="326" on="0"/>
        <pt x="136" y="234" on="0"/>
        <pt x="198" y="166" on="0"/>
        <pt x="285" y="126" on="0"/>
        <pt x="341" y="126" on="1"/>
        <pt x="401" y="126" on="0"/>
        <pt x="500" y="157" on="0"/>
        <pt x="571" y="219" on="0"/>
        <pt x="609" y="312" on="0"/>
      </contour>
      <contour>
        <pt x="512" y="334" on="1"/>
        <pt x="512" y="301" on="0"/>
        <pt x="488" y="246" on="0"/>
        <pt x="446" y="206" on="0"/>
        <pt x="390" y="184" on="0"/>
        <pt x="358" y="184" on="1"/>
        <pt x="320" y="184" on="0"/>
        <pt x="258" y="213" on="0"/>
        <pt x="214" y="262" on="0"/>
        <pt x="190" y="328" on="0"/>
        <pt x="190" y="365" on="1"/>
        <pt x="190" y="404" on="0"/>
        <pt x="217" y="473" on="0"/>
        <pt x="265" y="524" on="0"/>
        <pt x="332" y="554" on="0"/>
        <pt x="373" y="554" on="1"/>
        <pt x="393" y="554" on="0"/>
        <pt x="439" y="539" on="0"/>
        <pt x="478" y="512" on="0"/>
        <pt x="504" y="473" on="0"/>
        <pt x="504" y="450" on="1"/>
        <pt x="504" y="430" on="0"/>
        <pt x="478" y="406" on="0"/>
        <pt x="459" y="406" on="1"/>
        <pt x="439" y="406" on="0"/>
        <pt x="410" y="432" on="0"/>
        <pt x="410" y="453" on="1"/>
        <pt x="410" y="469" on="0"/>
        <pt x="419" y="483" on="1"/>
        <pt x="409" y="495" on="0"/>
        <pt x="381" y="505" on="0"/>
        <pt x="367" y="505" on="1"/>
        <pt x="342" y="505" on="0"/>
        <pt x="309" y="478" on="0"/>
        <pt x="289" y="437" on="0"/>
        <pt x="281" y="390" on="0"/>
        <pt x="281" y="371" on="1"/>
        <pt x="281" y="348" on="0"/>
        <pt x="294" y="303" on="0"/>
        <pt x="320" y="268" on="0"/>
        <pt x="359" y="247" on="0"/>
        <pt x="385" y="247" on="1"/>
        <pt x="406" y="247" on="0"/>
        <pt x="443" y="263" on="0"/>
        <pt x="476" y="288" on="0"/>
        <pt x="502" y="321" on="0"/>
        <pt x="512" y="338" on="1"/>
      </contour>
    </TTGlyph>
    <TTGlyph name="currency" xMin="0" yMin="184" xMax="367" yMax="553">
      <contour>
        <pt x="239" y="369" on="1"/>
        <pt x="239" y="389" on="0"/>
        <pt x="209" y="418" on="0"/>
        <pt x="188" y="418" on="1"/>
        <pt x="168" y="418" on="0"/>
        <pt x="139" y="389" on="0"/>
        <pt x="139" y="369" on="1"/>
        <pt x="139" y="349" on="0"/>
        <pt x="171" y="323" on="0"/>
        <pt x="188" y="323" on="1"/>
        <pt x="207" y="323" on="0"/>
        <pt x="239" y="349" on="0"/>
      </contour>
      <contour>
        <pt x="367" y="464" on="1"/>
        <pt x="315" y="417" on="1"/>
        <pt x="324" y="394" on="0"/>
        <pt x="324" y="371" on="1"/>
        <pt x="324" y="354" on="0"/>
        <pt x="315" y="323" on="0"/>
        <pt x="308" y="309" on="1"/>
        <pt x="364" y="249" on="1"/>
        <pt x="298" y="190" on="1"/>
        <pt x="239" y="246" on="1"/>
        <pt x="227" y="241" on="0"/>
        <pt x="202" y="236" on="0"/>
        <pt x="188" y="236" on="1"/>
        <pt x="161" y="236" on="0"/>
        <pt x="132" y="249" on="1"/>
        <pt x="62" y="184" on="1"/>
        <pt x="4" y="251" on="1"/>
        <pt x="66" y="315" on="1"/>
        <pt x="53" y="341" on="0"/>
        <pt x="53" y="371" on="1"/>
        <pt x="53" y="391" on="0"/>
        <pt x="61" y="415" on="1"/>
        <pt x="0" y="473" on="1"/>
        <pt x="84" y="553" on="1"/>
        <pt x="137" y="496" on="1"/>
        <pt x="162" y="507" on="0"/>
        <pt x="188" y="507" on="1"/>
        <pt x="202" y="507" on="0"/>
        <pt x="226" y="502" on="0"/>
        <pt x="238" y="497" on="1"/>
        <pt x="288" y="549" on="1"/>
      </contour>
    </TTGlyph>
    <TTGlyph name="d" xMin="41" yMin="-169" xMax="834" yMax="807">
      <contour>
        <pt x="834" y="-121" on="1"/>
        <pt x="488" y="-169" on="1"/>
        <pt x="493" y="-82" on="1"/>
        <pt x="464" y="-89" on="0"/>
        <pt x="404" y="-95" on="0"/>
        <pt x="374" y="-95" on="1"/>
        <pt x="315" y="-95" on="0"/>
        <pt x="196" y="-68" on="0"/>
        <pt x="101" y="-8" on="0"/>
        <pt x="41" y="88" on="0"/>
        <pt x="41" y="157" on="1"/>
        <pt x="41" y="213" on="0"/>
        <pt x="89" y="302" on="0"/>
        <pt x="167" y="365" on="0"/>
        <pt x="266" y="399" on="0"/>
        <pt x="318" y="399" on="1"/>
        <pt x="369" y="399" on="0"/>
        <pt x="472" y="378" on="0"/>
        <pt x="517" y="357" on="1"/>
        <pt x="535" y="702" on="1"/>
        <pt x="314" y="807" on="1"/>
        <pt x="726" y="778" on="1"/>
        <pt x="618" y="-70" on="1"/>
      </contour>
      <contour>
        <pt x="511" y="264" on="1"/>
        <pt x="482" y="284" on="0"/>
        <pt x="396" y="302" on="0"/>
        <pt x="361" y="302" on="1"/>
        <pt x="325" y="302" on="0"/>
        <pt x="264" y="278" on="0"/>
        <pt x="221" y="234" on="0"/>
        <pt x="197" y="173" on="0"/>
        <pt x="197" y="137" on="1"/>
        <pt x="197" y="98" on="0"/>
        <pt x="235" y="41" on="0"/>
        <pt x="295" y="4" on="0"/>
        <pt x="367" y="-13" on="0"/>
        <pt x="400" y="-13" on="1"/>
        <pt x="450" y="-13" on="0"/>
        <pt x="499" y="7" on="1"/>
      </contour>
    </TTGlyph>
    <TTGlyph name="dagger" xMin="20" yMin="-301" xMax="478" yMax="859">
      <contour>
        <pt x="478" y="589" on="1"/>
        <pt x="468" y="466" on="1"/>
        <pt x="336" y="461" on="1"/>
        <pt x="319" y="-301" on="1"/>
        <pt x="198" y="-301" on="1"/>
        <pt x="183" y="456" on="1"/>
        <pt x="20" y="451" on="1"/>
        <pt x="28" y="615" on="1"/>
        <pt x="180" y="606" on="1"/>
        <pt x="175" y="850" on="1"/>
        <pt x="344" y="859" on="1"/>
        <pt x="339" y="597" on="1"/>
      </contour>
    </TTGlyph>
    <TTGlyph name="daggerdbl" xMin="20" yMin="-301" xMax="478" yMax="859">
      <contour>
        <pt x="478" y="200" on="1"/>
        <pt x="331" y="205" on="1"/>
        <pt x="319" y="-301" on="1"/>
        <pt x="198" y="-301" on="1"/>
        <pt x="187" y="210" on="1"/>
        <pt x="30" y="216" on="1"/>
        <pt x="20" y="339" on="1"/>
        <pt x="185" y="349" on="1"/>
        <pt x="183" y="456" on="1"/>
        <pt x="20" y="451" on="1"/>
        <pt x="28" y="615" on="1"/>
        <pt x="180" y="606" on="1"/>
        <pt x="175" y="850" on="1"/>
        <pt x="344" y="859" on="1"/>
        <pt x="339" y="597" on="1"/>
        <pt x="478" y="589" on="1"/>
        <pt x="468" y="466" on="1"/>
        <pt x="336" y="461" on="1"/>
        <pt x="334" y="357" on="1"/>
        <pt x="471" y="366" on="1"/>
      </contour>
    </TTGlyph>
    <TTGlyph name="degree" xMin="51" yMin="461" xMax="322" yMax="732">
      <contour>
        <pt x="322" y="596" on="1"/>
        <pt x="322" y="569" on="0"/>
        <pt x="300" y="520" on="0"/>
        <pt x="263" y="483" on="0"/>
        <pt x="213" y="461" on="0"/>
        <pt x="186" y="461" on="1"/>
        <pt x="159" y="461" on="0"/>
        <pt x="111" y="483" on="0"/>
        <pt x="73" y="520" on="0"/>
        <pt x="51" y="569" on="0"/>
        <pt x="51" y="596" on="1"/>
        <pt x="51" y="623" on="0"/>
        <pt x="73" y="673" on="0"/>
        <pt x="111" y="710" on="0"/>
        <pt x="159" y="732" on="0"/>
        <pt x="186" y="732" on="1"/>
        <pt x="213" y="732" on="0"/>
        <pt x="263" y="710" on="0"/>
        <pt x="300" y="673" on="0"/>
        <pt x="322" y="623" on="0"/>
      </contour>
      <contour>
        <pt x="237" y="594" on="1"/>
        <pt x="237" y="614" on="0"/>
        <pt x="207" y="643" on="0"/>
        <pt x="186" y="643" on="1"/>
        <pt x="166" y="643" on="0"/>
        <pt x="137" y="614" on="0"/>
        <pt x="137" y="594" on="1"/>
        <pt x="137" y="574" on="0"/>
        <pt x="169" y="548" on="0"/>
        <pt x="186" y="548" on="1"/>
        <pt x="205" y="548" on="0"/>
        <pt x="237" y="574" on="0"/>
      </contour>
    </TTGlyph>
    <TTGlyph name="dieresis" xMin="209" yMin="842" xMax="517" yMax="968">
      <contour>
        <pt x="517" y="907" on="1"/>
        <pt x="517" y="881" on="0"/>
        <pt x="480" y="842" on="0"/>
        <pt x="454" y="842" on="1"/>
        <pt x="428" y="842" on="0"/>
        <pt x="391" y="881" on="0"/>
        <pt x="391" y="907" on="1"/>
        <pt x="391" y="933" on="0"/>
        <pt x="428" y="968" on="0"/>
        <pt x="454" y="968" on="1"/>
        <pt x="480" y="968" on="0"/>
        <pt x="517" y="933" on="0"/>
      </contour>
      <contour>
        <pt x="335" y="907" on="1"/>
        <pt x="335" y="881" on="0"/>
        <pt x="298" y="842" on="0"/>
        <pt x="272" y="842" on="1"/>
        <pt x="245" y="842" on="0"/>
        <pt x="209" y="881" on="0"/>
        <pt x="209" y="907" on="1"/>
        <pt x="209" y="933" on="0"/>
        <pt x="245" y="968" on="0"/>
        <pt x="272" y="968" on="1"/>
        <pt x="298" y="968" on="0"/>
        <pt x="335" y="933" on="0"/>
      </contour>
    </TTGlyph>
    <TTGlyph name="divide" xMin="10" yMin="-9" xMax="507" yMax="584">
      <contour>
        <pt x="379" y="495" on="1"/>
        <pt x="379" y="474" on="0"/>
        <pt x="361" y="442" on="0"/>
        <pt x="331" y="421" on="0"/>
        <pt x="294" y="411" on="0"/>
        <pt x="275" y="411" on="1"/>
        <pt x="257" y="411" on="0"/>
        <pt x="219" y="421" on="0"/>
        <pt x="187" y="441" on="0"/>
        <pt x="167" y="473" on="0"/>
        <pt x="167" y="494" on="1"/>
        <pt x="167" y="516" on="0"/>
        <pt x="186" y="549" on="0"/>
        <pt x="216" y="572" on="0"/>
        <pt x="255" y="584" on="0"/>
        <pt x="275" y="584" on="1"/>
        <pt x="293" y="584" on="0"/>
        <pt x="330" y="571" on="0"/>
        <pt x="360" y="547" on="0"/>
        <pt x="379" y="514" on="0"/>
      </contour>
      <contour>
        <pt x="507" y="343" on="1"/>
        <pt x="502" y="230" on="1"/>
        <pt x="10" y="215" on="1"/>
        <pt x="12" y="370" on="1"/>
      </contour>
      <contour>
        <pt x="370" y="76" on="1"/>
        <pt x="370" y="55" on="0"/>
        <pt x="352" y="23" on="0"/>
        <pt x="322" y="2" on="0"/>
        <pt x="285" y="-9" on="0"/>
        <pt x="266" y="-9" on="1"/>
        <pt x="248" y="-9" on="0"/>
        <pt x="209" y="1" on="0"/>
        <pt x="178" y="22" on="0"/>
        <pt x="158" y="54" on="0"/>
        <pt x="158" y="75" on="1"/>
        <pt x="158" y="97" on="0"/>
        <pt x="177" y="130" on="0"/>
        <pt x="207" y="153" on="0"/>
        <pt x="246" y="165" on="0"/>
        <pt x="266" y="165" on="1"/>
        <pt x="284" y="165" on="0"/>
        <pt x="321" y="152" on="0"/>
        <pt x="351" y="128" on="0"/>
        <pt x="370" y="95" on="0"/>
      </contour>
    </TTGlyph>
    <TTGlyph name="dollar" xMin="10" yMin="-127" xMax="549" yMax="748">
      <contour>
        <pt x="549" y="171" on="1"/>
        <pt x="549" y="126" on="0"/>
        <pt x="511" y="66" on="0"/>
        <pt x="449" y="28" on="0"/>
        <pt x="373" y="10" on="0"/>
        <pt x="336" y="7" on="1"/>
        <pt x="339" y="-26" on="0"/>
        <pt x="347" y="-92" on="0"/>
        <pt x="350" y="-124" on="1"/>
        <pt x="206" y="-127" on="1"/>
        <pt x="209" y="-92" on="0"/>
        <pt x="217" y="-22" on="0"/>
        <pt x="220" y="13" on="1"/>
        <pt x="188" y="20" on="0"/>
        <pt x="119" y="43" on="0"/>
        <pt x="93" y="62" on="1"/>
        <pt x="10" y="-35" on="1"/>
        <pt x="41" y="279" on="1"/>
        <pt x="59" y="241" on="0"/>
        <pt x="113" y="172" on="0"/>
        <pt x="182" y="121" on="0"/>
        <pt x="263" y="91" on="0"/>
        <pt x="306" y="91" on="1"/>
        <pt x="317" y="91" on="0"/>
        <pt x="347" y="95" on="0"/>
        <pt x="374" y="105" on="0"/>
        <pt x="393" y="123" on="0"/>
        <pt x="393" y="138" on="1"/>
        <pt x="393" y="156" on="0"/>
        <pt x="356" y="185" on="0"/>
        <pt x="307" y="208" on="0"/>
        <pt x="258" y="223" on="0"/>
        <pt x="246" y="227" on="1"/>
        <pt x="211" y="238" on="0"/>
        <pt x="128" y="273" on="0"/>
        <pt x="57" y="324" on="0"/>
        <pt x="10" y="392" on="0"/>
        <pt x="10" y="436" on="1"/>
        <pt x="10" y="474" on="0"/>
        <pt x="42" y="535" on="0"/>
        <pt x="94" y="580" on="0"/>
        <pt x="160" y="608" on="0"/>
        <pt x="194" y="613" on="1"/>
        <pt x="181" y="745" on="1"/>
        <pt x="325" y="748" on="1"/>
        <pt x="322" y="713" on="0"/>
        <pt x="315" y="643" on="0"/>
        <pt x="312" y="608" on="1"/>
        <pt x="352" y="599" on="0"/>
        <pt x="424" y="559" on="0"/>
        <pt x="454" y="532" on="1"/>
        <pt x="517" y="654" on="1"/>
        <pt x="504" y="332" on="1"/>
        <pt x="486" y="367" on="0"/>
        <pt x="431" y="437" on="0"/>
        <pt x="363" y="493" on="0"/>
        <pt x="284" y="528" on="0"/>
        <pt x="242" y="528" on="1"/>
        <pt x="230" y="528" on="0"/>
        <pt x="198" y="523" on="0"/>
        <pt x="171" y="511" on="0"/>
        <pt x="152" y="490" on="0"/>
        <pt x="152" y="474" on="1"/>
        <pt x="152" y="454" on="0"/>
        <pt x="182" y="425" on="0"/>
        <pt x="223" y="404" on="0"/>
        <pt x="267" y="390" on="0"/>
        <pt x="281" y="385" on="1"/>
        <pt x="319" y="372" on="0"/>
        <pt x="412" y="340" on="0"/>
        <pt x="494" y="291" on="0"/>
        <pt x="549" y="221" on="0"/>
      </contour>
    </TTGlyph>
    <TTGlyph name="dotaccent" xMin="300" yMin="842" xMax="426" yMax="968">
      <contour>
        <pt x="426" y="907" on="1"/>
        <pt x="426" y="881" on="0"/>
        <pt x="389" y="842" on="0"/>
        <pt x="362" y="842" on="1"/>
        <pt x="336" y="842" on="0"/>
        <pt x="300" y="881" on="0"/>
        <pt x="300" y="907" on="1"/>
        <pt x="300" y="933" on="0"/>
        <pt x="336" y="968" on="0"/>
        <pt x="362" y="968" on="1"/>
        <pt x="388" y="968" on="0"/>
        <pt x="426" y="933" on="0"/>
      </contour>
    </TTGlyph>
    <TTGlyph name="dotlessi" xMin="-31" yMin="-2" xMax="456" yMax="531">
      <contour>
        <pt x="456" y="-2" on="1"/>
        <pt x="8" y="6" on="1"/>
        <pt x="174" y="109" on="1"/>
        <pt x="160" y="441" on="1"/>
        <pt x="-31" y="531" on="1"/>
        <pt x="336" y="531" on="1"/>
        <pt x="303" y="102" on="1"/>
      </contour>
    </TTGlyph>
    <TTGlyph name="e" xMin="31" yMin="-63" xMax="598" yMax="473">
      <contour>
        <pt x="598" y="182" on="1"/>
        <pt x="598" y="175" on="0"/>
        <pt x="597" y="161" on="0"/>
        <pt x="597" y="154" on="1"/>
        <pt x="190" y="146" on="1"/>
        <pt x="203" y="87" on="0"/>
        <pt x="295" y="31" on="0"/>
        <pt x="353" y="31" on="1"/>
        <pt x="381" y="31" on="0"/>
        <pt x="439" y="39" on="0"/>
        <pt x="495" y="57" on="0"/>
        <pt x="545" y="86" on="0"/>
        <pt x="565" y="106" on="1"/>
        <pt x="554" y="64" on="0"/>
        <pt x="502" y="0" on="0"/>
        <pt x="431" y="-42" on="0"/>
        <pt x="348" y="-63" on="0"/>
        <pt x="307" y="-63" on="1"/>
        <pt x="251" y="-63" on="0"/>
        <pt x="150" y="-23" on="0"/>
        <pt x="75" y="47" on="0"/>
        <pt x="31" y="145" on="0"/>
        <pt x="31" y="203" on="1"/>
        <pt x="31" y="264" on="0"/>
        <pt x="81" y="364" on="0"/>
        <pt x="163" y="435" on="0"/>
        <pt x="271" y="473" on="0"/>
        <pt x="330" y="473" on="1"/>
        <pt x="392" y="473" on="0"/>
        <pt x="491" y="427" on="0"/>
        <pt x="561" y="347" on="0"/>
        <pt x="598" y="242" on="0"/>
      </contour>
      <contour>
        <pt x="445" y="233" on="1"/>
        <pt x="443" y="260" on="0"/>
        <pt x="425" y="310" on="0"/>
        <pt x="393" y="348" on="0"/>
        <pt x="348" y="371" on="0"/>
        <pt x="318" y="371" on="1"/>
        <pt x="288" y="371" on="0"/>
        <pt x="244" y="349" on="0"/>
        <pt x="214" y="312" on="0"/>
        <pt x="195" y="263" on="0"/>
        <pt x="190" y="237" on="1"/>
      </contour>
    </TTGlyph>
    <TTGlyph name="eacute" xMin="31" yMin="-63" xMax="598" yMax="795">
      <component glyphName="e" x="0" y="0" flags="0x204"/>
      <component glyphName="acute" x="-30" y="-204" flags="0x4"/>
    </TTGlyph>
    <TTGlyph name="ecircumflex" xMin="31" yMin="-63" xMax="598" yMax="791">
      <component glyphName="e" x="0" y="0" flags="0x204"/>
      <component glyphName="circumflex" x="-71" y="-153" flags="0x4"/>
    </TTGlyph>
    <TTGlyph name="edieresis" xMin="31" yMin="-63" xMax="598" yMax="672">
      <component glyphName="e" x="0" y="0" flags="0x204"/>
      <component glyphName="dieresis" x="-19" y="-296" flags="0x4"/>
    </TTGlyph>
    <TTGlyph name="egrave" xMin="31" yMin="-63" xMax="598" yMax="802">
      <component glyphName="e" x="0" y="0" flags="0x204"/>
      <component glyphName="grave" x="-40" y="-50" flags="0x4"/>
    </TTGlyph>
    <TTGlyph name="eight" xMin="0" yMin="-93" xMax="665" yMax="725">
      <contour>
        <pt x="665" y="151" on="1"/>
        <pt x="665" y="85" on="0"/>
        <pt x="602" y="-8" on="0"/>
        <pt x="505" y="-66" on="0"/>
        <pt x="387" y="-93" on="0"/>
        <pt x="332" y="-93" on="1"/>
        <pt x="275" y="-93" on="0"/>
        <pt x="157" y="-67" on="0"/>
        <pt x="61" y="-9" on="0"/>
        <pt x="0" y="82" on="0"/>
        <pt x="0" y="147" on="1"/>
        <pt x="0" y="151" on="1"/>
        <pt x="0" y="178" on="0"/>
        <pt x="19" y="233" on="0"/>
        <pt x="52" y="282" on="0"/>
        <pt x="95" y="323" on="0"/>
        <pt x="119" y="336" on="1"/>
        <pt x="81" y="368" on="0"/>
        <pt x="48" y="447" on="0"/>
        <pt x="48" y="497" on="1"/>
        <pt x="48" y="552" on="0"/>
        <pt x="100" y="638" on="0"/>
        <pt x="181" y="695" on="0"/>
        <pt x="282" y="725" on="0"/>
        <pt x="332" y="725" on="1"/>
        <pt x="381" y="725" on="0"/>
        <pt x="482" y="695" on="0"/>
        <pt x="564" y="638" on="0"/>
        <pt x="616" y="552" on="0"/>
        <pt x="616" y="497" on="1"/>
        <pt x="616" y="446" on="0"/>
        <pt x="583" y="368" on="0"/>
        <pt x="545" y="336" on="1"/>
        <pt x="569" y="322" on="0"/>
        <pt x="612" y="282" on="0"/>
        <pt x="645" y="233" on="0"/>
        <pt x="665" y="178" on="0"/>
      </contour>
      <contour>
        <pt x="450" y="494" on="1"/>
        <pt x="450" y="520" on="0"/>
        <pt x="435" y="570" on="0"/>
        <pt x="405" y="610" on="0"/>
        <pt x="361" y="635" on="0"/>
        <pt x="332" y="635" on="1"/>
        <pt x="303" y="635" on="0"/>
        <pt x="259" y="610" on="0"/>
        <pt x="230" y="569" on="0"/>
        <pt x="215" y="518" on="0"/>
        <pt x="215" y="493" on="1"/>
        <pt x="215" y="489" on="1"/>
        <pt x="215" y="435" on="0"/>
        <pt x="274" y="359" on="0"/>
        <pt x="332" y="359" on="1"/>
        <pt x="389" y="359" on="0"/>
        <pt x="450" y="434" on="0"/>
        <pt x="450" y="490" on="1"/>
      </contour>
      <contour>
        <pt x="470" y="142" on="1"/>
        <pt x="470" y="170" on="0"/>
        <pt x="448" y="218" on="0"/>
        <pt x="410" y="253" on="0"/>
        <pt x="360" y="272" on="0"/>
        <pt x="332" y="272" on="1"/>
        <pt x="304" y="272" on="0"/>
        <pt x="254" y="253" on="0"/>
        <pt x="216" y="218" on="0"/>
        <pt x="193" y="170" on="0"/>
        <pt x="193" y="142" on="1"/>
        <pt x="193" y="115" on="0"/>
        <pt x="215" y="63" on="0"/>
        <pt x="253" y="21" on="0"/>
        <pt x="303" y="-4" on="0"/>
        <pt x="332" y="-4" on="1"/>
        <pt x="361" y="-4" on="0"/>
        <pt x="411" y="21" on="0"/>
        <pt x="449" y="62" on="0"/>
        <pt x="470" y="115" on="0"/>
      </contour>
    </TTGlyph>
    <TTGlyph name="ellipsis" xMin="10" yMin="-89" xMax="795" yMax="85">
      <component glyphName="period" x="0" y="0" flags="0x4"/>
      <component glyphName="period" x="287" y="0" flags="0x4"/>
      <component glyphName="period" x="573" y="0" flags="0x4"/>
    </TTGlyph>
    <TTGlyph name="emdash" xMin="61" yMin="295" xMax="956" yMax="449">
      <contour>
        <pt x="956" y="295" on="1"/>
        <pt x="61" y="307" on="1"/>
        <pt x="61" y="438" on="1"/>
        <pt x="950" y="449" on="1"/>
      </contour>
    </TTGlyph>
    <TTGlyph name="endash" xMin="61" yMin="305" xMax="528" yMax="459">
      <contour>
        <pt x="528" y="305" on="1"/>
        <pt x="61" y="317" on="1"/>
        <pt x="61" y="449" on="1"/>
        <pt x="523" y="459" on="1"/>
      </contour>
    </TTGlyph>
    <TTGlyph name="equal" xMin="0" yMin="84" xMax="536" yMax="477">
      <contour>
        <pt x="536" y="451" on="1"/>
        <pt x="527" y="319" on="1"/>
        <pt x="1" y="303" on="1"/>
        <pt x="5" y="477" on="1"/>
      </contour>
      <contour>
        <pt x="535" y="258" on="1"/>
        <pt x="529" y="84" on="1"/>
        <pt x="0" y="111" on="1"/>
        <pt x="7" y="243" on="1"/>
      </contour>
    </TTGlyph>
    <TTGlyph name="eth" xMin="-10" yMin="-98" xMax="689" yMax="835">
      <contour>
        <pt x="689" y="202" on="1"/>
        <pt x="689" y="122" on="0"/>
        <pt x="633" y="8" on="0"/>
        <pt x="536" y="-64" on="0"/>
        <pt x="406" y="-98" on="0"/>
        <pt x="333" y="-98" on="1"/>
        <pt x="277" y="-98" on="0"/>
        <pt x="155" y="-70" on="0"/>
        <pt x="55" y="-10" on="0"/>
        <pt x="-10" y="85" on="0"/>
        <pt x="-10" y="153" on="1"/>
        <pt x="-10" y="226" on="0"/>
        <pt x="60" y="321" on="0"/>
        <pt x="167" y="377" on="0"/>
        <pt x="296" y="399" on="0"/>
        <pt x="355" y="399" on="1"/>
        <pt x="389" y="399" on="0"/>
        <pt x="457" y="391" on="0"/>
        <pt x="490" y="381" on="1"/>
        <pt x="474" y="430" on="0"/>
        <pt x="427" y="523" on="0"/>
        <pt x="398" y="566" on="1"/>
        <pt x="239" y="452" on="1"/>
        <pt x="159" y="550" on="1"/>
        <pt x="327" y="654" on="1"/>
        <pt x="303" y="680" on="0"/>
        <pt x="244" y="732" on="0"/>
        <pt x="181" y="780" on="0"/>
        <pt x="115" y="821" on="0"/>
        <pt x="83" y="835" on="1"/>
        <pt x="168" y="821" on="0"/>
        <pt x="328" y="748" on="0"/>
        <pt x="397" y="698" on="1"/>
        <pt x="586" y="816" on="1"/>
        <pt x="642" y="739" on="1"/>
        <pt x="484" y="627" on="1"/>
        <pt x="528" y="585" on="0"/>
        <pt x="603" y="489" on="0"/>
        <pt x="658" y="381" on="0"/>
        <pt x="689" y="264" on="0"/>
      </contour>
      <contour>
        <pt x="526" y="153" on="1"/>
        <pt x="526" y="189" on="0"/>
        <pt x="500" y="250" on="0"/>
        <pt x="453" y="293" on="0"/>
        <pt x="391" y="317" on="0"/>
        <pt x="355" y="317" on="1"/>
        <pt x="319" y="317" on="0"/>
        <pt x="248" y="297" on="0"/>
        <pt x="190" y="256" on="0"/>
        <pt x="154" y="196" on="0"/>
        <pt x="154" y="157" on="1"/>
        <pt x="154" y="118" on="0"/>
        <pt x="179" y="54" on="0"/>
        <pt x="225" y="8" on="0"/>
        <pt x="290" y="-17" on="0"/>
        <pt x="329" y="-17" on="1"/>
        <pt x="370" y="-17" on="0"/>
        <pt x="442" y="2" on="0"/>
        <pt x="495" y="44" on="0"/>
        <pt x="526" y="108" on="0"/>
      </contour>
    </TTGlyph>
    <TTGlyph name="exclam" xMin="10" yMin="-10" xMax="313" yMax="865">
      <contour>
        <pt x="313" y="849" on="1"/>
        <pt x="191" y="184" on="1"/>
        <pt x="72" y="198" on="1"/>
        <pt x="99" y="865" on="1"/>
      </contour>
      <contour>
        <pt x="207" y="61" on="1"/>
        <pt x="207" y="43" on="0"/>
        <pt x="190" y="16" on="0"/>
        <pt x="164" y="-2" on="0"/>
        <pt x="130" y="-10" on="0"/>
        <pt x="114" y="-10" on="1"/>
        <pt x="98" y="-10" on="0"/>
        <pt x="61" y="-1" on="0"/>
        <pt x="30" y="19" on="0"/>
        <pt x="10" y="47" on="0"/>
        <pt x="10" y="67" on="1"/>
        <pt x="10" y="88" on="0"/>
        <pt x="30" y="118" on="0"/>
        <pt x="61" y="137" on="0"/>
        <pt x="99" y="146" on="0"/>
        <pt x="117" y="146" on="1"/>
        <pt x="134" y="146" on="0"/>
        <pt x="167" y="133" on="0"/>
        <pt x="192" y="111" on="0"/>
        <pt x="207" y="79" on="0"/>
      </contour>
    </TTGlyph>
    <TTGlyph name="exclamdown" xMin="10" yMin="-317" xMax="313" yMax="558">
      <contour>
        <pt x="313" y="481" on="1"/>
        <pt x="313" y="459" on="0"/>
        <pt x="294" y="428" on="0"/>
        <pt x="263" y="409" on="0"/>
        <pt x="225" y="400" on="0"/>
        <pt x="207" y="400" on="1"/>
        <pt x="190" y="400" on="0"/>
        <pt x="157" y="413" on="0"/>
        <pt x="132" y="436" on="0"/>
        <pt x="117" y="467" on="0"/>
        <pt x="117" y="485" on="1"/>
        <pt x="117" y="504" on="0"/>
        <pt x="134" y="532" on="0"/>
        <pt x="160" y="550" on="0"/>
        <pt x="193" y="558" on="0"/>
        <pt x="209" y="558" on="1"/>
        <pt x="225" y="558" on="0"/>
        <pt x="262" y="548" on="0"/>
        <pt x="293" y="528" on="0"/>
        <pt x="313" y="500" on="0"/>
      </contour>
      <contour>
        <pt x="252" y="349" on="1"/>
        <pt x="224" y="-317" on="1"/>
        <pt x="10" y="-302" on="1"/>
        <pt x="132" y="362" on="1"/>
      </contour>
    </TTGlyph>
    <TTGlyph name="f" xMin="-51" yMin="-409" xMax="582" yMax="983">
      <contour>
        <pt x="582" y="786" on="1"/>
        <pt x="582" y="754" on="0"/>
        <pt x="538" y="711" on="0"/>
        <pt x="506" y="711" on="1"/>
        <pt x="474" y="711" on="0"/>
        <pt x="425" y="753" on="0"/>
        <pt x="425" y="787" on="1"/>
        <pt x="425" y="821" on="0"/>
        <pt x="452" y="843" on="1"/>
        <pt x="445" y="866" on="0"/>
        <pt x="411" y="897" on="0"/>
        <pt x="386" y="897" on="1"/>
        <pt x="354" y="897" on="0"/>
        <pt x="317" y="854" on="0"/>
        <pt x="299" y="793" on="0"/>
        <pt x="295" y="727" on="0"/>
        <pt x="295" y="705" on="1"/>
        <pt x="295" y="657" on="0"/>
        <pt x="303" y="562" on="0"/>
        <pt x="308" y="514" on="1"/>
        <pt x="504" y="514" on="1"/>
        <pt x="504" y="423" on="1"/>
        <pt x="323" y="423" on="1"/>
        <pt x="376" y="-35" on="1"/>
        <pt x="378" y="-58" on="0"/>
        <pt x="383" y="-105" on="0"/>
        <pt x="383" y="-128" on="1"/>
        <pt x="383" y="-180" on="0"/>
        <pt x="355" y="-281" on="0"/>
        <pt x="298" y="-360" on="0"/>
        <pt x="211" y="-409" on="0"/>
        <pt x="153" y="-409" on="1"/>
        <pt x="113" y="-409" on="0"/>
        <pt x="40" y="-380" on="0"/>
        <pt x="-17" y="-328" on="0"/>
        <pt x="-51" y="-257" on="0"/>
        <pt x="-51" y="-216" on="1"/>
        <pt x="-51" y="-183" on="0"/>
        <pt x="-7" y="-141" on="0"/>
        <pt x="25" y="-141" on="1"/>
        <pt x="40" y="-141" on="0"/>
        <pt x="69" y="-152" on="0"/>
        <pt x="92" y="-172" on="0"/>
        <pt x="105" y="-199" on="0"/>
        <pt x="105" y="-215" on="1"/>
        <pt x="105" y="-247" on="0"/>
        <pt x="81" y="-271" on="1"/>
        <pt x="88" y="-293" on="0"/>
        <pt x="122" y="-324" on="0"/>
        <pt x="145" y="-324" on="1"/>
        <pt x="172" y="-324" on="0"/>
        <pt x="207" y="-291" on="0"/>
        <pt x="227" y="-244" on="0"/>
        <pt x="234" y="-191" on="0"/>
        <pt x="234" y="-171" on="1"/>
        <pt x="234" y="-133" on="0"/>
        <pt x="225" y="-57" on="0"/>
        <pt x="219" y="-19" on="1"/>
        <pt x="218" y="-18" on="1"/>
        <pt x="164" y="423" on="1"/>
        <pt x="15" y="423" on="1"/>
        <pt x="15" y="514" on="1"/>
        <pt x="154" y="514" on="1"/>
        <pt x="149" y="552" on="0"/>
        <pt x="144" y="626" on="0"/>
        <pt x="144" y="664" on="1"/>
        <pt x="144" y="720" on="0"/>
        <pt x="166" y="834" on="0"/>
        <pt x="220" y="925" on="0"/>
        <pt x="309" y="983" on="0"/>
        <pt x="376" y="983" on="1"/>
        <pt x="417" y="983" on="0"/>
        <pt x="491" y="953" on="0"/>
        <pt x="548" y="900" on="0"/>
        <pt x="582" y="828" on="0"/>
      </contour>
    </TTGlyph>
    <TTGlyph name="fi" xMin="-51" yMin="-409" xMax="827" yMax="983">
      <contour>
        <pt x="827" y="-2" on="1"/>
        <pt x="385" y="6" on="1"/>
        <pt x="552" y="109" on="1"/>
        <pt x="550" y="136" on="0"/>
        <pt x="546" y="190" on="0"/>
        <pt x="544" y="217" on="1"/>
        <pt x="539" y="270" on="0"/>
        <pt x="530" y="372" on="0"/>
        <pt x="526" y="425" on="1"/>
        <pt x="323" y="423" on="1"/>
        <pt x="376" y="-35" on="1"/>
        <pt x="378" y="-58" on="0"/>
        <pt x="383" y="-105" on="0"/>
        <pt x="383" y="-129" on="1"/>
        <pt x="383" y="-181" on="0"/>
        <pt x="355" y="-281" on="0"/>
        <pt x="298" y="-360" on="0"/>
        <pt x="211" y="-409" on="0"/>
        <pt x="153" y="-409" on="1"/>
        <pt x="113" y="-409" on="0"/>
        <pt x="40" y="-380" on="0"/>
        <pt x="-17" y="-328" on="0"/>
        <pt x="-51" y="-257" on="0"/>
        <pt x="-51" y="-216" on="1"/>
        <pt x="-51" y="-183" on="0"/>
        <pt x="-7" y="-141" on="0"/>
        <pt x="25" y="-141" on="1"/>
        <pt x="40" y="-141" on="0"/>
        <pt x="69" y="-152" on="0"/>
        <pt x="92" y="-172" on="0"/>
        <pt x="105" y="-199" on="0"/>
        <pt x="105" y="-215" on="1"/>
        <pt x="105" y="-247" on="0"/>
        <pt x="81" y="-271" on="1"/>
        <pt x="88" y="-293" on="0"/>
        <pt x="122" y="-324" on="0"/>
        <pt x="145" y="-324" on="1"/>
        <pt x="172" y="-324" on="0"/>
        <pt x="207" y="-291" on="0"/>
        <pt x="227" y="-244" on="0"/>
        <pt x="234" y="-191" on="0"/>
        <pt x="234" y="-171" on="1"/>
        <pt x="234" y="-133" on="0"/>
        <pt x="224" y="-57" on="0"/>
        <pt x="219" y="-19" on="1"/>
        <pt x="218" y="-18" on="1"/>
        <pt x="216" y="-8" on="0"/>
        <pt x="210" y="41" on="0"/>
        <pt x="202" y="107" on="0"/>
        <pt x="192" y="184" on="0"/>
        <pt x="188" y="223" on="1"/>
        <pt x="177" y="314" on="0"/>
        <pt x="164" y="423" on="1"/>
        <pt x="15" y="423" on="1"/>
        <pt x="15" y="514" on="1"/>
        <pt x="154" y="514" on="1"/>
        <pt x="149" y="552" on="0"/>
        <pt x="144" y="626" on="0"/>
        <pt x="144" y="664" on="1"/>
        <pt x="144" y="727" on="0"/>
        <pt x="177" y="842" on="0"/>
        <pt x="245" y="930" on="0"/>
        <pt x="346" y="983" on="0"/>
        <pt x="415" y="983" on="1"/>
        <pt x="476" y="983" on="0"/>
        <pt x="582" y="948" on="0"/>
        <pt x="660" y="881" on="0"/>
        <pt x="705" y="783" on="0"/>
        <pt x="705" y="719" on="1"/>
        <pt x="705" y="674" on="0"/>
        <pt x="647" y="615" on="0"/>
        <pt x="602" y="615" on="1"/>
        <pt x="581" y="615" on="0"/>
        <pt x="543" y="629" on="0"/>
        <pt x="514" y="654" on="0"/>
        <pt x="496" y="690" on="0"/>
        <pt x="496" y="712" on="1"/>
        <pt x="496" y="764" on="0"/>
        <pt x="538" y="797" on="1"/>
        <pt x="532" y="818" on="0"/>
        <pt x="507" y="854" on="0"/>
        <pt x="474" y="881" on="0"/>
        <pt x="433" y="897" on="0"/>
        <pt x="412" y="897" on="1"/>
        <pt x="373" y="897" on="0"/>
        <pt x="327" y="859" on="0"/>
        <pt x="302" y="802" on="0"/>
        <pt x="295" y="735" on="0"/>
        <pt x="295" y="705" on="1"/>
        <pt x="295" y="657" on="0"/>
        <pt x="303" y="562" on="0"/>
        <pt x="308" y="514" on="1"/>
        <pt x="708" y="521" on="1"/>
        <pt x="700" y="415" on="0"/>
        <pt x="683" y="208" on="0"/>
        <pt x="675" y="102" on="1"/>
      </contour>
    </TTGlyph>
    <TTGlyph name="five" xMin="0" yMin="-50" xMax="594" yMax="757">
      <contour>
        <pt x="594" y="244" on="1"/>
        <pt x="594" y="186" on="0"/>
        <pt x="553" y="85" on="0"/>
        <pt x="481" y="10" on="0"/>
        <pt x="382" y="-33" on="0"/>
        <pt x="324" y="-33" on="1"/>
        <pt x="259" y="-33" on="0"/>
        <pt x="158" y="5" on="0"/>
        <pt x="112" y="50" on="1"/>
        <pt x="12" y="-50" on="1"/>
        <pt x="57" y="245" on="1"/>
        <pt x="72" y="216" on="0"/>
        <pt x="118" y="162" on="0"/>
        <pt x="174" y="120" on="0"/>
        <pt x="239" y="95" on="0"/>
        <pt x="273" y="95" on="1"/>
        <pt x="305" y="95" on="0"/>
        <pt x="357" y="117" on="0"/>
        <pt x="395" y="155" on="0"/>
        <pt x="415" y="208" on="0"/>
        <pt x="415" y="240" on="1"/>
        <pt x="415" y="271" on="0"/>
        <pt x="385" y="322" on="0"/>
        <pt x="337" y="356" on="0"/>
        <pt x="279" y="375" on="0"/>
        <pt x="251" y="375" on="1"/>
        <pt x="194" y="375" on="0"/>
        <pt x="109" y="327" on="0"/>
        <pt x="68" y="294" on="1"/>
        <pt x="0" y="672" on="1"/>
        <pt x="584" y="757" on="1"/>
        <pt x="543" y="433" on="1"/>
        <pt x="526" y="481" on="0"/>
        <pt x="495" y="573" on="0"/>
        <pt x="476" y="618" on="1"/>
        <pt x="163" y="584" on="1"/>
        <pt x="166" y="554" on="0"/>
        <pt x="168" y="494" on="0"/>
        <pt x="170" y="465" on="1"/>
        <pt x="203" y="472" on="0"/>
        <pt x="269" y="481" on="0"/>
        <pt x="302" y="481" on="1"/>
        <pt x="355" y="481" on="0"/>
        <pt x="460" y="452" on="0"/>
        <pt x="543" y="393" on="0"/>
        <pt x="594" y="304" on="0"/>
      </contour>
    </TTGlyph>
    <TTGlyph name="fl" xMin="-51" yMin="-409" xMax="846" yMax="988">
      <contour>
        <pt x="846" y="-61" on="1"/>
        <pt x="401" y="-78" on="1"/>
        <pt x="568" y="31" on="1"/>
        <pt x="561" y="197" on="0"/>
        <pt x="548" y="525" on="0"/>
        <pt x="540" y="691" on="1"/>
        <pt x="538" y="722" on="0"/>
        <pt x="529" y="796" on="0"/>
        <pt x="504" y="860" on="0"/>
        <pt x="455" y="903" on="0"/>
        <pt x="415" y="903" on="1"/>
        <pt x="373" y="903" on="0"/>
        <pt x="325" y="864" on="0"/>
        <pt x="301" y="806" on="0"/>
        <pt x="295" y="736" on="0"/>
        <pt x="295" y="705" on="1"/>
        <pt x="295" y="657" on="0"/>
        <pt x="303" y="562" on="0"/>
        <pt x="308" y="514" on="1"/>
        <pt x="482" y="514" on="1"/>
        <pt x="482" y="423" on="1"/>
        <pt x="323" y="423" on="1"/>
        <pt x="376" y="-35" on="1"/>
        <pt x="378" y="-58" on="0"/>
        <pt x="383" y="-105" on="0"/>
        <pt x="383" y="-129" on="1"/>
        <pt x="383" y="-181" on="0"/>
        <pt x="355" y="-281" on="0"/>
        <pt x="298" y="-360" on="0"/>
        <pt x="211" y="-409" on="0"/>
        <pt x="153" y="-409" on="1"/>
        <pt x="113" y="-409" on="0"/>
        <pt x="40" y="-380" on="0"/>
        <pt x="-17" y="-328" on="0"/>
        <pt x="-51" y="-257" on="0"/>
        <pt x="-51" y="-216" on="1"/>
        <pt x="-51" y="-183" on="0"/>
        <pt x="-7" y="-141" on="0"/>
        <pt x="25" y="-141" on="1"/>
        <pt x="40" y="-141" on="0"/>
        <pt x="69" y="-152" on="0"/>
        <pt x="92" y="-172" on="0"/>
        <pt x="105" y="-199" on="0"/>
        <pt x="105" y="-215" on="1"/>
        <pt x="105" y="-247" on="0"/>
        <pt x="81" y="-271" on="1"/>
        <pt x="88" y="-293" on="0"/>
        <pt x="122" y="-324" on="0"/>
        <pt x="145" y="-324" on="1"/>
        <pt x="172" y="-324" on="0"/>
        <pt x="207" y="-291" on="0"/>
        <pt x="227" y="-244" on="0"/>
        <pt x="234" y="-191" on="0"/>
        <pt x="234" y="-171" on="1"/>
        <pt x="234" y="-133" on="0"/>
        <pt x="224" y="-57" on="0"/>
        <pt x="219" y="-19" on="1"/>
        <pt x="218" y="-18" on="1"/>
        <pt x="215" y="-1" on="0"/>
        <pt x="208" y="55" on="0"/>
        <pt x="200" y="124" on="0"/>
        <pt x="190" y="200" on="0"/>
        <pt x="186" y="237" on="1"/>
        <pt x="175" y="324" on="0"/>
        <pt x="164" y="423" on="1"/>
        <pt x="15" y="423" on="1"/>
        <pt x="15" y="514" on="1"/>
        <pt x="154" y="514" on="1"/>
        <pt x="151" y="543" on="0"/>
        <pt x="149" y="570" on="1"/>
        <pt x="147" y="593" on="0"/>
        <pt x="144" y="645" on="0"/>
        <pt x="144" y="664" on="1"/>
        <pt x="144" y="727" on="0"/>
        <pt x="179" y="844" on="0"/>
        <pt x="248" y="934" on="0"/>
        <pt x="352" y="988" on="0"/>
        <pt x="421" y="988" on="1"/>
        <pt x="501" y="988" on="0"/>
        <pt x="613" y="932" on="0"/>
        <pt x="683" y="836" on="0"/>
        <pt x="714" y="708" on="0"/>
        <pt x="714" y="636" on="1"/>
        <pt x="714" y="484" on="0"/>
        <pt x="697" y="187" on="0"/>
        <pt x="691" y="36" on="1"/>
      </contour>
    </TTGlyph>
    <TTGlyph name="four" xMin="-51" yMin="-69" xMax="610" yMax="792">
      <contour>
        <pt x="610" y="-66" on="1"/>
        <pt x="92" y="-69" on="1"/>
        <pt x="321" y="22" on="1"/>
        <pt x="314" y="173" on="1"/>
        <pt x="-51" y="167" on="1"/>
        <pt x="475" y="792" on="1"/>
        <pt x="462" y="256" on="1"/>
        <pt x="507" y="257" on="1"/>
        <pt x="598" y="421" on="1"/>
        <pt x="585" y="11" on="1"/>
        <pt x="513" y="176" on="1"/>
        <pt x="459" y="175" on="1"/>
        <pt x="454" y="19" on="1"/>
      </contour>
      <contour>
        <pt x="311" y="254" on="1"/>
        <pt x="309" y="427" on="1"/>
        <pt x="152" y="251" on="1"/>
      </contour>
    </TTGlyph>
    <TTGlyph name="fraction" xMin="-31" yMin="-127" xMax="646" yMax="858">
      <contour>
        <pt x="646" y="758" on="1"/>
        <pt x="98" y="-127" on="1"/>
        <pt x="-31" y="-49" on="1"/>
        <pt x="494" y="858" on="1"/>
      </contour>
    </TTGlyph>
    <TTGlyph name="g" xMin="0" yMin="-510" xMax="672" yMax="644">
      <contour>
        <pt x="672" y="540" on="1"/>
        <pt x="672" y="522" on="0"/>
        <pt x="658" y="488" on="0"/>
        <pt x="634" y="461" on="0"/>
        <pt x="602" y="444" on="0"/>
        <pt x="584" y="444" on="1"/>
        <pt x="547" y="444" on="0"/>
        <pt x="502" y="496" on="0"/>
        <pt x="502" y="531" on="1"/>
        <pt x="502" y="535" on="1"/>
        <pt x="497" y="536" on="0"/>
        <pt x="486" y="521" on="0"/>
        <pt x="475" y="501" on="0"/>
        <pt x="466" y="482" on="0"/>
        <pt x="464" y="478" on="1"/>
        <pt x="524" y="444" on="0"/>
        <pt x="595" y="331" on="0"/>
        <pt x="595" y="262" on="1"/>
        <pt x="595" y="208" on="0"/>
        <pt x="550" y="114" on="0"/>
        <pt x="475" y="45" on="0"/>
        <pt x="377" y="6" on="0"/>
        <pt x="324" y="6" on="1"/>
        <pt x="304" y="6" on="0"/>
        <pt x="264" y="9" on="0"/>
        <pt x="244" y="14" on="1"/>
        <pt x="230" y="5" on="0"/>
        <pt x="230" y="-7" on="1"/>
        <pt x="230" y="-19" on="0"/>
        <pt x="269" y="-32" on="0"/>
        <pt x="318" y="-38" on="0"/>
        <pt x="365" y="-40" on="0"/>
        <pt x="373" y="-40" on="1"/>
        <pt x="427" y="-43" on="0"/>
        <pt x="529" y="-75" on="0"/>
        <pt x="608" y="-136" on="0"/>
        <pt x="655" y="-226" on="0"/>
        <pt x="655" y="-286" on="1"/>
        <pt x="655" y="-349" on="0"/>
        <pt x="591" y="-435" on="0"/>
        <pt x="494" y="-487" on="0"/>
        <pt x="379" y="-510" on="0"/>
        <pt x="328" y="-510" on="1"/>
        <pt x="276" y="-510" on="0"/>
        <pt x="161" y="-487" on="0"/>
        <pt x="64" y="-435" on="0"/>
        <pt x="0" y="-349" on="0"/>
        <pt x="0" y="-286" on="1"/>
        <pt x="0" y="-223" on="0"/>
        <pt x="70" y="-141" on="0"/>
        <pt x="123" y="-113" on="1"/>
        <pt x="97" y="-102" on="0"/>
        <pt x="59" y="-66" on="0"/>
        <pt x="59" y="-36" on="1"/>
        <pt x="59" y="-18" on="0"/>
        <pt x="74" y="11" on="0"/>
        <pt x="99" y="32" on="0"/>
        <pt x="130" y="47" on="0"/>
        <pt x="145" y="52" on="1"/>
        <pt x="91" y="87" on="0"/>
        <pt x="25" y="196" on="0"/>
        <pt x="25" y="262" on="1"/>
        <pt x="25" y="319" on="0"/>
        <pt x="73" y="414" on="0"/>
        <pt x="153" y="482" on="0"/>
        <pt x="256" y="520" on="0"/>
        <pt x="310" y="520" on="1"/>
        <pt x="346" y="520" on="0"/>
        <pt x="384" y="511" on="1"/>
        <pt x="395" y="535" on="0"/>
        <pt x="425" y="582" on="0"/>
        <pt x="463" y="620" on="0"/>
        <pt x="511" y="644" on="0"/>
        <pt x="540" y="644" on="1"/>
        <pt x="562" y="644" on="0"/>
        <pt x="609" y="630" on="0"/>
        <pt x="647" y="603" on="0"/>
        <pt x="672" y="565" on="0"/>
      </contour>
      <contour>
        <pt x="443" y="262" on="1"/>
        <pt x="443" y="290" on="0"/>
        <pt x="427" y="355" on="0"/>
        <pt x="394" y="409" on="0"/>
        <pt x="344" y="445" on="0"/>
        <pt x="310" y="445" on="1"/>
        <pt x="276" y="445" on="0"/>
        <pt x="226" y="409" on="0"/>
        <pt x="192" y="355" on="0"/>
        <pt x="175" y="291" on="0"/>
        <pt x="175" y="262" on="1"/>
        <pt x="175" y="233" on="0"/>
        <pt x="192" y="168" on="0"/>
        <pt x="225" y="114" on="0"/>
        <pt x="276" y="78" on="0"/>
        <pt x="310" y="78" on="1"/>
        <pt x="344" y="78" on="0"/>
        <pt x="394" y="114" on="0"/>
        <pt x="427" y="169" on="0"/>
        <pt x="443" y="233" on="0"/>
      </contour>
      <contour>
        <pt x="499" y="-286" on="1"/>
        <pt x="499" y="-249" on="0"/>
        <pt x="471" y="-195" on="0"/>
        <pt x="423" y="-159" on="0"/>
        <pt x="361" y="-142" on="0"/>
        <pt x="328" y="-142" on="1"/>
        <pt x="295" y="-142" on="0"/>
        <pt x="233" y="-159" on="0"/>
        <pt x="186" y="-195" on="0"/>
        <pt x="158" y="-249" on="0"/>
        <pt x="158" y="-286" on="1"/>
        <pt x="158" y="-323" on="0"/>
        <pt x="186" y="-377" on="0"/>
        <pt x="233" y="-412" on="0"/>
        <pt x="295" y="-429" on="0"/>
        <pt x="328" y="-429" on="1"/>
        <pt x="361" y="-429" on="0"/>
        <pt x="423" y="-412" on="0"/>
        <pt x="471" y="-377" on="0"/>
        <pt x="499" y="-323" on="0"/>
      </contour>
    </TTGlyph>
    <TTGlyph name="germandbls" xMin="-51" yMin="-407" xMax="1020" yMax="949">
      <contour>
        <pt x="1020" y="11" on="1"/>
        <pt x="1020" y="-37" on="0"/>
        <pt x="971" y="-101" on="0"/>
        <pt x="896" y="-141" on="0"/>
        <pt x="808" y="-158" on="0"/>
        <pt x="769" y="-158" on="1"/>
        <pt x="717" y="-158" on="0"/>
        <pt x="609" y="-133" on="0"/>
        <pt x="566" y="-102" on="1"/>
        <pt x="486" y="-219" on="1"/>
        <pt x="507" y="123" on="1"/>
        <pt x="523" y="88" on="0"/>
        <pt x="575" y="19" on="0"/>
        <pt x="641" y="-36" on="0"/>
        <pt x="717" y="-71" on="0"/>
        <pt x="759" y="-71" on="1"/>
        <pt x="769" y="-71" on="0"/>
        <pt x="803" y="-70" on="0"/>
        <pt x="836" y="-62" on="0"/>
        <pt x="859" y="-45" on="0"/>
        <pt x="859" y="-28" on="1"/>
        <pt x="859" y="-8" on="0"/>
        <pt x="802" y="25" on="0"/>
        <pt x="717" y="61" on="0"/>
        <pt x="617" y="104" on="0"/>
        <pt x="532" y="164" on="0"/>
        <pt x="475" y="246" on="0"/>
        <pt x="475" y="302" on="1"/>
        <pt x="475" y="360" on="0"/>
        <pt x="518" y="450" on="0"/>
        <pt x="571" y="528" on="0"/>
        <pt x="614" y="600" on="0"/>
        <pt x="614" y="641" on="1"/>
        <pt x="614" y="680" on="0"/>
        <pt x="599" y="757" on="0"/>
        <pt x="563" y="818" on="0"/>
        <pt x="502" y="857" on="0"/>
        <pt x="456" y="857" on="1"/>
        <pt x="415" y="857" on="0"/>
        <pt x="357" y="821" on="0"/>
        <pt x="318" y="763" on="0"/>
        <pt x="300" y="691" on="0"/>
        <pt x="300" y="655" on="1"/>
        <pt x="300" y="608" on="0"/>
        <pt x="314" y="496" on="0"/>
        <pt x="319" y="449" on="1"/>
        <pt x="377" y="-35" on="1"/>
        <pt x="379" y="-57" on="0"/>
        <pt x="383" y="-102" on="0"/>
        <pt x="383" y="-125" on="1"/>
        <pt x="383" y="-177" on="0"/>
        <pt x="355" y="-278" on="0"/>
        <pt x="298" y="-358" on="0"/>
        <pt x="212" y="-407" on="0"/>
        <pt x="153" y="-407" on="1"/>
        <pt x="113" y="-407" on="0"/>
        <pt x="40" y="-378" on="0"/>
        <pt x="-17" y="-326" on="0"/>
        <pt x="-51" y="-255" on="0"/>
        <pt x="-51" y="-214" on="1"/>
        <pt x="-51" y="-181" on="0"/>
        <pt x="-7" y="-139" on="0"/>
        <pt x="25" y="-139" on="1"/>
        <pt x="40" y="-139" on="0"/>
        <pt x="69" y="-150" on="0"/>
        <pt x="92" y="-170" on="0"/>
        <pt x="105" y="-197" on="0"/>
        <pt x="105" y="-213" on="1"/>
        <pt x="105" y="-245" on="0"/>
        <pt x="81" y="-269" on="1"/>
        <pt x="88" y="-291" on="0"/>
        <pt x="122" y="-322" on="0"/>
        <pt x="145" y="-322" on="1"/>
        <pt x="174" y="-322" on="0"/>
        <pt x="209" y="-287" on="0"/>
        <pt x="227" y="-236" on="0"/>
        <pt x="233" y="-181" on="0"/>
        <pt x="233" y="-160" on="1"/>
        <pt x="233" y="-138" on="0"/>
        <pt x="227" y="-64" on="0"/>
        <pt x="218" y="26" on="0"/>
        <pt x="205" y="127" on="0"/>
        <pt x="199" y="176" on="1"/>
        <pt x="184" y="291" on="0"/>
        <pt x="165" y="423" on="1"/>
        <pt x="15" y="423" on="1"/>
        <pt x="15" y="514" on="1"/>
        <pt x="155" y="514" on="1"/>
        <pt x="154" y="528" on="0"/>
        <pt x="153" y="554" on="0"/>
        <pt x="153" y="568" on="1"/>
        <pt x="153" y="638" on="0"/>
        <pt x="184" y="775" on="0"/>
        <pt x="254" y="883" on="0"/>
        <pt x="364" y="949" on="0"/>
        <pt x="444" y="949" on="1"/>
        <pt x="508" y="949" on="0"/>
        <pt x="618" y="903" on="0"/>
        <pt x="699" y="822" on="0"/>
        <pt x="744" y="712" on="0"/>
        <pt x="744" y="648" on="1"/>
        <pt x="744" y="596" on="0"/>
        <pt x="708" y="509" on="0"/>
        <pt x="665" y="434" on="0"/>
        <pt x="629" y="366" on="0"/>
        <pt x="629" y="333" on="1"/>
        <pt x="629" y="292" on="0"/>
        <pt x="687" y="240" on="0"/>
        <pt x="774" y="203" on="0"/>
        <pt x="875" y="170" on="0"/>
        <pt x="962" y="126" on="0"/>
        <pt x="1020" y="61" on="0"/>
      </contour>
    </TTGlyph>
    <TTGlyph name="grave" xMin="298" yMin="594" xMax="507" yMax="852">
      <contour>
        <pt x="507" y="638" on="1"/>
        <pt x="405" y="594" on="1"/>
        <pt x="298" y="791" on="1"/>
        <pt x="434" y="852" on="1"/>
      </contour>
    </TTGlyph>
    <TTGlyph name="greater" xMin="0" yMin="-7" xMax="609" yMax="675">
      <contour>
        <pt x="609" y="344" on="1"/>
        <pt x="55" y="-7" on="1"/>
        <pt x="45" y="74" on="1"/>
        <pt x="347" y="316" on="1"/>
        <pt x="0" y="496" on="1"/>
        <pt x="49" y="675" on="1"/>
      </contour>
    </TTGlyph>
    <TTGlyph name="guillemotleft" xMin="10" yMin="-30" xMax="425" yMax="512">
      <contour>
        <pt x="425" y="46" on="1"/>
        <pt x="391" y="-30" on="1"/>
        <pt x="206" y="222" on="1"/>
        <pt x="206" y="258" on="1"/>
        <pt x="391" y="512" on="1"/>
        <pt x="425" y="434" on="1"/>
        <pt x="339" y="241" on="1"/>
      </contour>
      <contour>
        <pt x="229" y="46" on="1"/>
        <pt x="196" y="-30" on="1"/>
        <pt x="10" y="222" on="1"/>
        <pt x="10" y="258" on="1"/>
        <pt x="196" y="512" on="1"/>
        <pt x="229" y="434" on="1"/>
        <pt x="144" y="241" on="1"/>
      </contour>
    </TTGlyph>
    <TTGlyph name="guillemotright" xMin="10" yMin="-30" xMax="425" yMax="512">
      <contour>
        <pt x="425" y="222" on="1"/>
        <pt x="240" y="-30" on="1"/>
        <pt x="206" y="46" on="1"/>
        <pt x="292" y="241" on="1"/>
        <pt x="206" y="434" on="1"/>
        <pt x="240" y="512" on="1"/>
        <pt x="425" y="258" on="1"/>
      </contour>
      <contour>
        <pt x="229" y="222" on="1"/>
        <pt x="44" y="-30" on="1"/>
        <pt x="10" y="46" on="1"/>
        <pt x="96" y="241" on="1"/>
        <pt x="10" y="434" on="1"/>
        <pt x="44" y="512" on="1"/>
        <pt x="229" y="258" on="1"/>
      </contour>
    </TTGlyph>
    <TTGlyph name="guilsinglleft" xMin="10" yMin="-30" xMax="229" yMax="512">
      <contour>
        <pt x="229" y="46" on="1"/>
        <pt x="196" y="-30" on="1"/>
        <pt x="10" y="222" on="1"/>
        <pt x="10" y="258" on="1"/>
        <pt x="196" y="512" on="1"/>
        <pt x="229" y="434" on="1"/>
        <pt x="144" y="241" on="1"/>
      </contour>
    </TTGlyph>
    <TTGlyph name="guilsinglright" xMin="10" yMin="-30" xMax="229" yMax="512">
      <contour>
        <pt x="229" y="222" on="1"/>
        <pt x="44" y="-30" on="1"/>
        <pt x="10" y="46" on="1"/>
        <pt x="96" y="241" on="1"/>
        <pt x="10" y="434" on="1"/>
        <pt x="44" y="512" on="1"/>
        <pt x="229" y="258" on="1"/>
      </contour>
    </TTGlyph>
    <TTGlyph name="h" xMin="-143" yMin="-71" xMax="787" yMax="879">
      <contour>
        <pt x="787" y="-71" on="1"/>
        <pt x="368" y="-59" on="1"/>
        <pt x="510" y="18" on="1"/>
        <pt x="510" y="201" on="1"/>
        <pt x="510" y="263" on="0"/>
        <pt x="446" y="331" on="0"/>
        <pt x="384" y="331" on="1"/>
        <pt x="358" y="331" on="0"/>
        <pt x="293" y="320" on="0"/>
        <pt x="270" y="308" on="1"/>
        <pt x="267" y="251" on="0"/>
        <pt x="262" y="138" on="0"/>
        <pt x="260" y="81" on="1"/>
        <pt x="387" y="5" on="1"/>
        <pt x="-32" y="-12" on="1"/>
        <pt x="129" y="77" on="1"/>
        <pt x="103" y="749" on="1"/>
        <pt x="-143" y="814" on="1"/>
        <pt x="295" y="879" on="1"/>
        <pt x="274" y="399" on="1"/>
        <pt x="299" y="407" on="0"/>
        <pt x="351" y="413" on="0"/>
        <pt x="377" y="413" on="1"/>
        <pt x="381" y="413" on="1"/>
        <pt x="424" y="413" on="0"/>
        <pt x="524" y="396" on="0"/>
        <pt x="609" y="355" on="0"/>
        <pt x="665" y="284" on="0"/>
        <pt x="665" y="230" on="1"/>
        <pt x="665" y="211" on="0"/>
        <pt x="658" y="155" on="0"/>
        <pt x="648" y="95" on="0"/>
        <pt x="636" y="40" on="0"/>
        <pt x="632" y="22" on="1"/>
      </contour>
    </TTGlyph>
    <TTGlyph name="hungarumlaut" xMin="201" yMin="752" xMax="563" yMax="999">
      <contour>
        <pt x="399" y="941" on="1"/>
        <pt x="296" y="752" on="1"/>
        <pt x="201" y="793" on="1"/>
        <pt x="271" y="999" on="1"/>
      </contour>
      <contour>
        <pt x="563" y="941" on="1"/>
        <pt x="460" y="752" on="1"/>
        <pt x="365" y="793" on="1"/>
        <pt x="434" y="999" on="1"/>
      </contour>
    </TTGlyph>
    <TTGlyph name="hyphen" xMin="61" yMin="265" xMax="502" yMax="446">
      <contour>
        <pt x="502" y="419" on="1"/>
        <pt x="494" y="282" on="1"/>
        <pt x="61" y="265" on="1"/>
        <pt x="67" y="446" on="1"/>
      </contour>
    </TTGlyph>
    <TTGlyph name="i" xMin="-31" yMin="-2" xMax="456" yMax="813">
      <contour>
        <pt x="339" y="707" on="1"/>
        <pt x="339" y="685" on="0"/>
        <pt x="322" y="646" on="0"/>
        <pt x="293" y="617" on="0"/>
        <pt x="254" y="600" on="0"/>
        <pt x="232" y="600" on="1"/>
        <pt x="210" y="600" on="0"/>
        <pt x="172" y="617" on="0"/>
        <pt x="143" y="646" on="0"/>
        <pt x="126" y="685" on="0"/>
        <pt x="126" y="707" on="1"/>
        <pt x="126" y="729" on="0"/>
        <pt x="143" y="767" on="0"/>
        <pt x="172" y="796" on="0"/>
        <pt x="210" y="813" on="0"/>
        <pt x="232" y="813" on="1"/>
        <pt x="254" y="813" on="0"/>
        <pt x="293" y="796" on="0"/>
        <pt x="322" y="767" on="0"/>
        <pt x="339" y="729" on="0"/>
      </contour>
      <contour>
        <pt x="456" y="-2" on="1"/>
        <pt x="8" y="6" on="1"/>
        <pt x="174" y="109" on="1"/>
        <pt x="160" y="441" on="1"/>
        <pt x="-31" y="531" on="1"/>
        <pt x="336" y="531" on="1"/>
        <pt x="303" y="102" on="1"/>
      </contour>
    </TTGlyph>
    <TTGlyph name="iacute" xMin="-31" yMin="-2" xMax="456" yMax="877">
      <component glyphName="dotlessi" x="0" y="0" flags="0x204"/>
      <component glyphName="acute" x="-122" y="-122" flags="0x4"/>
    </TTGlyph>
    <TTGlyph name="icircumflex" xMin="-31" yMin="-2" xMax="456" yMax="884">
      <component glyphName="dotlessi" x="0" y="0" flags="0x204"/>
      <component glyphName="circumflex" x="-173" y="-60" flags="0x4"/>
    </TTGlyph>
    <TTGlyph name="idieresis" xMin="-31" yMin="-2" xMax="456" yMax="764">
      <component glyphName="dotlessi" x="0" y="0" flags="0x204"/>
      <component glyphName="dieresis" x="-112" y="-204" flags="0x4"/>
    </TTGlyph>
    <TTGlyph name="igrave" xMin="-31" yMin="-2" xMax="456" yMax="883">
      <component glyphName="dotlessi" x="0" y="0" flags="0x204"/>
      <component glyphName="grave" x="-194" y="31" flags="0x4"/>
    </TTGlyph>
    <TTGlyph name="j" xMin="-72" yMin="-349" xMax="355" yMax="751">
      <contour>
        <pt x="276" y="644" on="1"/>
        <pt x="276" y="622" on="0"/>
        <pt x="259" y="584" on="0"/>
        <pt x="231" y="555" on="0"/>
        <pt x="192" y="539" on="0"/>
        <pt x="170" y="539" on="1"/>
        <pt x="148" y="539" on="0"/>
        <pt x="109" y="555" on="0"/>
        <pt x="80" y="584" on="0"/>
        <pt x="63" y="622" on="0"/>
        <pt x="63" y="644" on="1"/>
        <pt x="63" y="666" on="0"/>
        <pt x="80" y="705" on="0"/>
        <pt x="109" y="734" on="0"/>
        <pt x="148" y="751" on="0"/>
        <pt x="170" y="751" on="1"/>
        <pt x="192" y="751" on="0"/>
        <pt x="231" y="734" on="0"/>
        <pt x="259" y="705" on="0"/>
        <pt x="276" y="666" on="0"/>
      </contour>
      <contour>
        <pt x="355" y="-94" on="1"/>
        <pt x="355" y="-153" on="0"/>
        <pt x="331" y="-247" on="0"/>
        <pt x="278" y="-313" on="0"/>
        <pt x="192" y="-349" on="0"/>
        <pt x="130" y="-349" on="1"/>
        <pt x="93" y="-349" on="0"/>
        <pt x="21" y="-324" on="0"/>
        <pt x="-36" y="-279" on="0"/>
        <pt x="-72" y="-215" on="0"/>
        <pt x="-72" y="-175" on="1"/>
        <pt x="-72" y="-141" on="0"/>
        <pt x="-30" y="-97" on="0"/>
        <pt x="5" y="-97" on="1"/>
        <pt x="37" y="-97" on="0"/>
        <pt x="86" y="-139" on="0"/>
        <pt x="86" y="-173" on="1"/>
        <pt x="86" y="-190" on="0"/>
        <pt x="71" y="-218" on="0"/>
        <pt x="58" y="-228" on="1"/>
        <pt x="69" y="-250" on="0"/>
        <pt x="102" y="-273" on="0"/>
        <pt x="127" y="-273" on="1"/>
        <pt x="153" y="-273" on="0"/>
        <pt x="186" y="-255" on="0"/>
        <pt x="205" y="-225" on="0"/>
        <pt x="212" y="-185" on="0"/>
        <pt x="212" y="-162" on="1"/>
        <pt x="212" y="-141" on="0"/>
        <pt x="208" y="-98" on="0"/>
        <pt x="206" y="-78" on="1"/>
        <pt x="193" y="37" on="0"/>
        <pt x="168" y="262" on="0"/>
        <pt x="153" y="376" on="1"/>
        <pt x="-36" y="455" on="1"/>
        <pt x="302" y="495" on="1"/>
        <pt x="344" y="75" on="1"/>
        <pt x="349" y="32" on="0"/>
        <pt x="355" y="-52" on="0"/>
      </contour>
    </TTGlyph>
    <TTGlyph name="k" xMin="-133" yMin="-105" xMax="890" yMax="826">
      <contour>
        <pt x="890" y="-2" on="1"/>
        <pt x="407" y="-105" on="1"/>
        <pt x="567" y="15" on="1"/>
        <pt x="364" y="326" on="1"/>
        <pt x="285" y="273" on="1"/>
        <pt x="281" y="90" on="1"/>
        <pt x="481" y="10" on="1"/>
        <pt x="-52" y="-11" on="1"/>
        <pt x="145" y="89" on="1"/>
        <pt x="103" y="738" on="1"/>
        <pt x="-133" y="793" on="1"/>
        <pt x="301" y="826" on="1"/>
        <pt x="289" y="381" on="1"/>
        <pt x="501" y="561" on="1"/>
        <pt x="343" y="655" on="1"/>
        <pt x="857" y="655" on="1"/>
        <pt x="627" y="547" on="1"/>
        <pt x="461" y="421" on="1"/>
        <pt x="686" y="50" on="1"/>
      </contour>
    </TTGlyph>
    <TTGlyph name="l" xMin="-123" yMin="-78" xMax="429" yMax="879">
      <contour>
        <pt x="429" y="-61" on="1"/>
        <pt x="-26" y="-78" on="1"/>
        <pt x="145" y="31" on="1"/>
        <pt x="112" y="787" on="1"/>
        <pt x="-123" y="874" on="1"/>
        <pt x="300" y="879" on="1"/>
        <pt x="270" y="36" on="1"/>
      </contour>
    </TTGlyph>
    <TTGlyph name="less" xMin="0" yMin="-6" xMax="609" yMax="675">
      <contour>
        <pt x="609" y="496" on="1"/>
        <pt x="263" y="316" on="1"/>
        <pt x="567" y="74" on="1"/>
        <pt x="553" y="-6" on="1"/>
        <pt x="0" y="344" on="1"/>
        <pt x="561" y="675" on="1"/>
      </contour>
    </TTGlyph>
    <TTGlyph name="logicalnot" xMin="20" yMin="61" xMax="616" yMax="596">
      <contour>
        <pt x="350" y="83" on="1"/>
        <pt x="445" y="147" on="1"/>
        <pt x="409" y="298" on="1"/>
        <pt x="80" y="291" on="1"/>
        <pt x="20" y="152" on="1"/>
        <pt x="22" y="596" on="1"/>
        <pt x="80" y="443" on="1"/>
        <pt x="462" y="424" on="1"/>
        <pt x="543" y="571" on="1"/>
        <pt x="516" y="142" on="1"/>
        <pt x="616" y="61" on="1"/>
      </contour>
    </TTGlyph>
    <TTGlyph name="lslash" xMin="-123" yMin="-78" xMax="435" yMax="879">
      <contour>
        <pt x="435" y="498" on="1"/>
        <pt x="275" y="418" on="1"/>
        <pt x="262" y="36" on="1"/>
        <pt x="418" y="-61" on="1"/>
        <pt x="-28" y="-78" on="1"/>
        <pt x="140" y="31" on="1"/>
        <pt x="127" y="343" on="1"/>
        <pt x="5" y="282" on="1"/>
        <pt x="-50" y="417" on="1"/>
        <pt x="120" y="486" on="1"/>
        <pt x="106" y="787" on="1"/>
        <pt x="-123" y="874" on="1"/>
        <pt x="292" y="879" on="1"/>
        <pt x="281" y="552" on="1"/>
        <pt x="398" y="600" on="1"/>
      </contour>
    </TTGlyph>
    <TTGlyph name="m" xMin="-102" yMin="63" xMax="1096" yMax="560">
      <contour>
        <pt x="1096" y="106" on="1"/>
        <pt x="685" y="124" on="1"/>
        <pt x="819" y="189" on="1"/>
        <pt x="821" y="220" on="0"/>
        <pt x="824" y="281" on="0"/>
        <pt x="824" y="312" on="1"/>
        <pt x="824" y="338" on="0"/>
        <pt x="816" y="379" on="0"/>
        <pt x="796" y="408" on="0"/>
        <pt x="759" y="424" on="0"/>
        <pt x="731" y="424" on="1"/>
        <pt x="707" y="424" on="0"/>
        <pt x="669" y="402" on="0"/>
        <pt x="642" y="367" on="0"/>
        <pt x="627" y="324" on="0"/>
        <pt x="625" y="302" on="1"/>
        <pt x="620" y="260" on="0"/>
        <pt x="612" y="174" on="0"/>
        <pt x="608" y="132" on="1"/>
        <pt x="741" y="66" on="1"/>
        <pt x="307" y="63" on="1"/>
        <pt x="494" y="135" on="1"/>
        <pt x="494" y="315" on="1"/>
        <pt x="494" y="341" on="0"/>
        <pt x="476" y="390" on="0"/>
        <pt x="459" y="408" on="1"/>
        <pt x="444" y="422" on="0"/>
        <pt x="407" y="431" on="0"/>
        <pt x="387" y="431" on="1"/>
        <pt x="360" y="431" on="0"/>
        <pt x="299" y="413" on="0"/>
        <pt x="284" y="388" on="1"/>
        <pt x="262" y="194" on="1"/>
        <pt x="394" y="121" on="1"/>
        <pt x="-17" y="119" on="1"/>
        <pt x="151" y="188" on="1"/>
        <pt x="121" y="429" on="1"/>
        <pt x="92" y="437" on="0"/>
        <pt x="16" y="458" on="0"/>
        <pt x="-19" y="469" on="1"/>
        <pt x="-59" y="481" on="0"/>
        <pt x="-102" y="494" on="1"/>
        <pt x="295" y="560" on="1"/>
        <pt x="290" y="499" on="1"/>
        <pt x="329" y="524" on="0"/>
        <pt x="412" y="542" on="0"/>
        <pt x="454" y="542" on="1"/>
        <pt x="497" y="542" on="0"/>
        <pt x="565" y="507" on="0"/>
        <pt x="595" y="478" on="1"/>
        <pt x="639" y="501" on="0"/>
        <pt x="739" y="537" on="0"/>
        <pt x="790" y="537" on="1"/>
        <pt x="834" y="537" on="0"/>
        <pt x="899" y="509" on="0"/>
        <pt x="941" y="458" on="0"/>
        <pt x="962" y="389" on="0"/>
        <pt x="962" y="347" on="1"/>
        <pt x="962" y="328" on="0"/>
        <pt x="957" y="275" on="0"/>
        <pt x="954" y="249" on="1"/>
        <pt x="950" y="219" on="0"/>
        <pt x="947" y="187" on="1"/>
      </contour>
    </TTGlyph>
    <TTGlyph name="macron" xMin="259" yMin="741" xMax="543" yMax="875">
      <contour>
        <pt x="543" y="741" on="1"/>
        <pt x="259" y="741" on="1"/>
        <pt x="259" y="875" on="1"/>
        <pt x="543" y="875" on="1"/>
      </contour>
    </TTGlyph>
    <TTGlyph name="minus" xMin="10" yMin="265" xMax="553" yMax="446">
      <contour>
        <pt x="553" y="419" on="1"/>
        <pt x="545" y="282" on="1"/>
        <pt x="10" y="265" on="1"/>
        <pt x="15" y="446" on="1"/>
      </contour>
    </TTGlyph>
    <TTGlyph name="mu" xMin="0" yMin="-269" xMax="803" yMax="504">
      <contour>
        <pt x="298" y="-2" on="1"/>
        <pt x="297" y="-269" on="1"/>
        <pt x="169" y="-261" on="1"/>
        <pt x="158" y="412" on="1"/>
        <pt x="127" y="429" on="0"/>
        <pt x="98" y="446" on="1"/>
        <pt x="73" y="460" on="0"/>
        <pt x="20" y="491" on="0"/>
        <pt x="0" y="502" on="1"/>
        <pt x="325" y="504" on="1"/>
        <pt x="317" y="432" on="0"/>
        <pt x="298" y="273" on="0"/>
        <pt x="298" y="202" on="1"/>
        <pt x="298" y="139" on="0"/>
        <pt x="354" y="81" on="0"/>
        <pt x="417" y="81" on="1"/>
        <pt x="449" y="81" on="0"/>
        <pt x="513" y="117" on="0"/>
        <pt x="532" y="142" on="1"/>
        <pt x="545" y="398" on="1"/>
        <pt x="367" y="485" on="1"/>
        <pt x="711" y="488" on="1"/>
        <pt x="642" y="62" on="1"/>
        <pt x="803" y="3" on="1"/>
        <pt x="529" y="-48" on="1"/>
        <pt x="532" y="42" on="1"/>
        <pt x="521" y="28" on="0"/>
        <pt x="487" y="7" on="0"/>
        <pt x="448" y="-6" on="0"/>
        <pt x="408" y="-12" on="0"/>
        <pt x="390" y="-12" on="1"/>
        <pt x="337" y="-12" on="0"/>
      </contour>
    </TTGlyph>
    <TTGlyph name="multiply" xMin="10" yMin="74" xMax="560" yMax="626">
      <contour>
        <pt x="560" y="493" on="1"/>
        <pt x="397" y="343" on="1"/>
        <pt x="555" y="170" on="1"/>
        <pt x="457" y="83" on="1"/>
        <pt x="288" y="243" on="1"/>
        <pt x="104" y="74" on="1"/>
        <pt x="16" y="174" on="1"/>
        <pt x="180" y="346" on="1"/>
        <pt x="10" y="507" on="1"/>
        <pt x="137" y="626" on="1"/>
        <pt x="291" y="460" on="1"/>
        <pt x="441" y="620" on="1"/>
      </contour>
    </TTGlyph>
    <TTGlyph name="n" xMin="-102" yMin="63" xMax="741" yMax="560">
      <contour>
        <pt x="741" y="66" on="1"/>
        <pt x="307" y="63" on="1"/>
        <pt x="494" y="135" on="1"/>
        <pt x="494" y="315" on="1"/>
        <pt x="494" y="368" on="0"/>
        <pt x="441" y="431" on="0"/>
        <pt x="387" y="431" on="1"/>
        <pt x="360" y="431" on="0"/>
        <pt x="299" y="413" on="0"/>
        <pt x="284" y="388" on="1"/>
        <pt x="262" y="194" on="1"/>
        <pt x="272" y="186" on="0"/>
        <pt x="315" y="162" on="0"/>
        <pt x="338" y="150" on="1"/>
        <pt x="364" y="136" on="0"/>
        <pt x="394" y="121" on="1"/>
        <pt x="-17" y="119" on="1"/>
        <pt x="151" y="188" on="1"/>
        <pt x="121" y="429" on="1"/>
        <pt x="92" y="437" on="0"/>
        <pt x="16" y="458" on="0"/>
        <pt x="-19" y="469" on="1"/>
        <pt x="-59" y="481" on="0"/>
        <pt x="-102" y="494" on="1"/>
        <pt x="295" y="560" on="1"/>
        <pt x="290" y="499" on="1"/>
        <pt x="325" y="513" on="0"/>
        <pt x="405" y="541" on="0"/>
        <pt x="443" y="541" on="1"/>
        <pt x="534" y="541" on="0"/>
        <pt x="634" y="443" on="0"/>
        <pt x="634" y="351" on="1"/>
        <pt x="634" y="328" on="0"/>
        <pt x="629" y="271" on="0"/>
        <pt x="621" y="213" on="0"/>
        <pt x="612" y="156" on="0"/>
        <pt x="608" y="132" on="1"/>
      </contour>
    </TTGlyph>
    <TTGlyph name="nine" xMin="0" yMin="-143" xMax="620" yMax="733">
      <contour>
        <pt x="620" y="401" on="1"/>
        <pt x="620" y="350" on="0"/>
        <pt x="606" y="250" on="0"/>
        <pt x="591" y="202" on="1"/>
        <pt x="576" y="157" on="0"/>
        <pt x="527" y="68" on="0"/>
        <pt x="460" y="-1" on="0"/>
        <pt x="374" y="-44" on="0"/>
        <pt x="322" y="-44" on="1"/>
        <pt x="275" y="-44" on="0"/>
        <pt x="208" y="-16" on="0"/>
        <pt x="170" y="10" on="1"/>
        <pt x="100" y="-143" on="1"/>
        <pt x="51" y="232" on="1"/>
        <pt x="70" y="206" on="0"/>
        <pt x="123" y="152" on="0"/>
        <pt x="186" y="108" on="0"/>
        <pt x="256" y="80" on="0"/>
        <pt x="291" y="80" on="1"/>
        <pt x="320" y="80" on="0"/>
        <pt x="369" y="109" on="0"/>
        <pt x="406" y="154" on="0"/>
        <pt x="431" y="208" on="0"/>
        <pt x="436" y="233" on="1"/>
        <pt x="416" y="224" on="0"/>
        <pt x="383" y="211" on="0"/>
        <pt x="349" y="202" on="0"/>
        <pt x="313" y="197" on="0"/>
        <pt x="290" y="197" on="1"/>
        <pt x="234" y="197" on="0"/>
        <pt x="130" y="232" on="0"/>
        <pt x="49" y="298" on="0"/>
        <pt x="0" y="392" on="0"/>
        <pt x="0" y="451" on="1"/>
        <pt x="0" y="520" on="0"/>
        <pt x="48" y="625" on="0"/>
        <pt x="132" y="697" on="0"/>
        <pt x="246" y="733" on="0"/>
        <pt x="312" y="733" on="1"/>
        <pt x="383" y="733" on="0"/>
        <pt x="497" y="680" on="0"/>
        <pt x="577" y="590" on="0"/>
        <pt x="620" y="469" on="0"/>
      </contour>
      <contour>
        <pt x="447" y="469" on="1"/>
        <pt x="447" y="499" on="0"/>
        <pt x="433" y="560" on="0"/>
        <pt x="403" y="610" on="0"/>
        <pt x="354" y="642" on="0"/>
        <pt x="319" y="642" on="1"/>
        <pt x="280" y="642" on="0"/>
        <pt x="225" y="615" on="0"/>
        <pt x="190" y="569" on="0"/>
        <pt x="174" y="507" on="0"/>
        <pt x="174" y="472" on="1"/>
        <pt x="174" y="445" on="0"/>
        <pt x="190" y="388" on="0"/>
        <pt x="221" y="340" on="0"/>
        <pt x="268" y="310" on="0"/>
        <pt x="299" y="310" on="1"/>
        <pt x="332" y="310" on="0"/>
        <pt x="386" y="336" on="0"/>
        <pt x="425" y="379" on="0"/>
        <pt x="447" y="437" on="0"/>
      </contour>
    </TTGlyph>
    <TTGlyph name="ntilde" xMin="-102" yMin="63" xMax="741" yMax="807">
      <component glyphName="n" x="0" y="0" flags="0x204"/>
      <component glyphName="tilde" x="-30" y="-101" flags="0x4"/>
    </TTGlyph>
    <TTGlyph name="numbersign" xMin="0" yMin="24" xMax="709" yMax="700">
      <contour>
        <pt x="709" y="550" on="1"/>
        <pt x="689" y="444" on="1"/>
        <pt x="556" y="442" on="1"/>
        <pt x="544" y="289" on="1"/>
        <pt x="682" y="291" on="1"/>
        <pt x="666" y="158" on="1"/>
        <pt x="537" y="163" on="1"/>
        <pt x="530" y="34" on="1"/>
        <pt x="397" y="29" on="1"/>
        <pt x="411" y="167" on="1"/>
        <pt x="257" y="168" on="1"/>
        <pt x="244" y="35" on="1"/>
        <pt x="137" y="24" on="1"/>
        <pt x="145" y="172" on="1"/>
        <pt x="0" y="176" on="1"/>
        <pt x="17" y="281" on="1"/>
        <pt x="153" y="284" on="1"/>
        <pt x="163" y="437" on="1"/>
        <pt x="25" y="434" on="1"/>
        <pt x="43" y="567" on="1"/>
        <pt x="170" y="564" on="1"/>
        <pt x="178" y="691" on="1"/>
        <pt x="311" y="696" on="1"/>
        <pt x="296" y="560" on="1"/>
        <pt x="450" y="557" on="1"/>
        <pt x="465" y="692" on="1"/>
        <pt x="569" y="700" on="1"/>
        <pt x="561" y="555" on="1"/>
      </contour>
      <contour>
        <pt x="437" y="440" on="1"/>
        <pt x="284" y="439" on="1"/>
        <pt x="269" y="286" on="1"/>
        <pt x="423" y="287" on="1"/>
      </contour>
    </TTGlyph>
    <TTGlyph name="o" xMin="10" yMin="-8" xMax="712" yMax="489">
      <contour>
        <pt x="712" y="242" on="1"/>
        <pt x="712" y="173" on="0"/>
        <pt x="643" y="78" on="0"/>
        <pt x="536" y="19" on="0"/>
        <pt x="410" y="-8" on="0"/>
        <pt x="353" y="-8" on="1"/>
        <pt x="297" y="-8" on="0"/>
        <pt x="176" y="20" on="0"/>
        <pt x="75" y="80" on="0"/>
        <pt x="10" y="175" on="0"/>
        <pt x="10" y="242" on="1"/>
        <pt x="10" y="315" on="0"/>
        <pt x="80" y="411" on="0"/>
        <pt x="187" y="467" on="0"/>
        <pt x="316" y="489" on="0"/>
        <pt x="376" y="489" on="1"/>
        <pt x="431" y="489" on="0"/>
        <pt x="550" y="461" on="0"/>
        <pt x="649" y="402" on="0"/>
        <pt x="712" y="308" on="0"/>
      </contour>
      <contour>
        <pt x="547" y="244" on="1"/>
        <pt x="547" y="280" on="0"/>
        <pt x="520" y="340" on="0"/>
        <pt x="473" y="384" on="0"/>
        <pt x="411" y="408" on="0"/>
        <pt x="376" y="408" on="1"/>
        <pt x="340" y="408" on="0"/>
        <pt x="268" y="387" on="0"/>
        <pt x="210" y="347" on="0"/>
        <pt x="174" y="286" on="0"/>
        <pt x="174" y="247" on="1"/>
        <pt x="174" y="208" on="0"/>
        <pt x="199" y="144" on="0"/>
        <pt x="246" y="98" on="0"/>
        <pt x="310" y="73" on="0"/>
        <pt x="349" y="73" on="1"/>
        <pt x="391" y="73" on="0"/>
        <pt x="463" y="92" on="0"/>
        <pt x="517" y="134" on="0"/>
        <pt x="547" y="199" on="0"/>
      </contour>
    </TTGlyph>
    <TTGlyph name="oacute" xMin="10" yMin="-8" xMax="712" yMax="805">
      <component glyphName="o" x="0" y="0" flags="0x204"/>
      <component glyphName="acute" x="0" y="-194" flags="0x4"/>
    </TTGlyph>
    <TTGlyph name="ocircumflex" xMin="10" yMin="-8" xMax="712" yMax="802">
      <component glyphName="o" x="0" y="0" flags="0x204"/>
      <component glyphName="circumflex" x="-30" y="-142" flags="0x4"/>
    </TTGlyph>
    <TTGlyph name="odieresis" xMin="10" yMin="-8" xMax="712" yMax="703">
      <component glyphName="o" x="0" y="0" flags="0x204"/>
      <component glyphName="dieresis" x="20" y="-265" flags="0x4"/>
    </TTGlyph>
    <TTGlyph name="oe" xMin="10" yMin="-63" xMax="1104" yMax="467">
      <contour>
        <pt x="1104" y="172" on="1"/>
        <pt x="1104" y="165" on="0"/>
        <pt x="1104" y="152" on="0"/>
        <pt x="1103" y="144" on="1"/>
        <pt x="673" y="137" on="1"/>
        <pt x="679" y="107" on="0"/>
        <pt x="714" y="65" on="0"/>
        <pt x="761" y="40" on="0"/>
        <pt x="817" y="28" on="0"/>
        <pt x="845" y="28" on="1"/>
        <pt x="874" y="28" on="0"/>
        <pt x="935" y="35" on="0"/>
        <pt x="994" y="52" on="0"/>
        <pt x="1048" y="79" on="0"/>
        <pt x="1070" y="99" on="1"/>
        <pt x="1058" y="57" on="0"/>
        <pt x="1000" y="-5" on="0"/>
        <pt x="923" y="-44" on="0"/>
        <pt x="836" y="-63" on="0"/>
        <pt x="796" y="-63" on="1"/>
        <pt x="761" y="-63" on="0"/>
        <pt x="689" y="-48" on="0"/>
        <pt x="623" y="-18" on="0"/>
        <pt x="566" y="27" on="0"/>
        <pt x="545" y="56" on="1"/>
        <pt x="496" y="21" on="0"/>
        <pt x="376" y="-10" on="0"/>
        <pt x="316" y="-10" on="1"/>
        <pt x="262" y="-10" on="0"/>
        <pt x="153" y="19" on="0"/>
        <pt x="65" y="78" on="0"/>
        <pt x="10" y="168" on="0"/>
        <pt x="10" y="229" on="1"/>
        <pt x="10" y="297" on="0"/>
        <pt x="69" y="388" on="0"/>
        <pt x="162" y="444" on="0"/>
        <pt x="279" y="467" on="0"/>
        <pt x="336" y="467" on="1"/>
        <pt x="369" y="467" on="0"/>
        <pt x="439" y="456" on="0"/>
        <pt x="504" y="432" on="0"/>
        <pt x="562" y="395" on="0"/>
        <pt x="585" y="369" on="1"/>
        <pt x="606" y="390" on="0"/>
        <pt x="663" y="421" on="0"/>
        <pt x="726" y="441" on="0"/>
        <pt x="791" y="451" on="0"/>
        <pt x="820" y="451" on="1"/>
        <pt x="880" y="451" on="0"/>
        <pt x="984" y="410" on="0"/>
        <pt x="1061" y="337" on="0"/>
        <pt x="1104" y="234" on="0"/>
      </contour>
      <contour>
        <pt x="942" y="221" on="1"/>
        <pt x="937" y="278" on="0"/>
        <pt x="868" y="353" on="0"/>
        <pt x="808" y="353" on="1"/>
        <pt x="747" y="353" on="0"/>
        <pt x="683" y="280" on="0"/>
        <pt x="673" y="224" on="1"/>
      </contour>
      <contour>
        <pt x="488" y="231" on="1"/>
        <pt x="488" y="264" on="0"/>
        <pt x="466" y="321" on="0"/>
        <pt x="425" y="363" on="0"/>
        <pt x="369" y="388" on="0"/>
        <pt x="336" y="388" on="1"/>
        <pt x="302" y="388" on="0"/>
        <pt x="238" y="367" on="0"/>
        <pt x="187" y="327" on="0"/>
        <pt x="156" y="270" on="0"/>
        <pt x="156" y="233" on="1"/>
        <pt x="156" y="198" on="0"/>
        <pt x="177" y="138" on="0"/>
        <pt x="217" y="93" on="0"/>
        <pt x="275" y="67" on="0"/>
        <pt x="312" y="67" on="1"/>
        <pt x="392" y="67" on="0"/>
        <pt x="488" y="148" on="0"/>
      </contour>
    </TTGlyph>
    <TTGlyph name="ogonek" xMin="323" yMin="-124" xMax="689" yMax="133">
      <contour>
        <pt x="689" y="-28" on="1"/>
        <pt x="689" y="-50" on="0"/>
        <pt x="642" y="-85" on="0"/>
        <pt x="578" y="-110" on="0"/>
        <pt x="512" y="-124" on="0"/>
        <pt x="492" y="-124" on="1"/>
        <pt x="457" y="-124" on="0"/>
        <pt x="395" y="-112" on="0"/>
        <pt x="349" y="-81" on="0"/>
        <pt x="323" y="-30" on="0"/>
        <pt x="323" y="9" on="1"/>
        <pt x="323" y="40" on="0"/>
        <pt x="354" y="109" on="0"/>
        <pt x="372" y="133" on="1"/>
        <pt x="440" y="130" on="1"/>
        <pt x="432" y="101" on="0"/>
        <pt x="432" y="72" on="1"/>
        <pt x="432" y="17" on="0"/>
        <pt x="485" y="-27" on="0"/>
        <pt x="537" y="-27" on="1"/>
        <pt x="570" y="-27" on="0"/>
        <pt x="634" y="-12" on="0"/>
        <pt x="666" y="-12" on="1"/>
        <pt x="674" y="-12" on="0"/>
        <pt x="689" y="-17" on="0"/>
      </contour>
    </TTGlyph>
    <TTGlyph name="ograve" xMin="10" yMin="-8" xMax="712" yMax="812">
      <component glyphName="o" x="0" y="0" flags="0x204"/>
      <component glyphName="grave" x="-19" y="-40" flags="0x4"/>
    </TTGlyph>
    <TTGlyph name="one" xMin="-72" yMin="-31" xMax="578" yMax="745">
      <contour>
        <pt x="578" y="-31" on="1"/>
        <pt x="-17" y="-29" on="1"/>
        <pt x="212" y="74" on="1"/>
        <pt x="190" y="593" on="1"/>
        <pt x="-72" y="647" on="1"/>
        <pt x="379" y="745" on="1"/>
        <pt x="358" y="72" on="1"/>
      </contour>
    </TTGlyph>
    <TTGlyph name="onehalf" xMin="-10" yMin="-143" xMax="1023" yMax="905">
      <contour>
        <pt x="1023" y="139" on="1"/>
        <pt x="997" y="-143" on="1"/>
        <pt x="583" y="-127" on="1"/>
        <pt x="586" y="-97" on="1"/>
        <pt x="591" y="-49" on="0"/>
        <pt x="640" y="18" on="0"/>
        <pt x="709" y="67" on="0"/>
        <pt x="785" y="105" on="0"/>
        <pt x="850" y="145" on="0"/>
        <pt x="893" y="192" on="0"/>
        <pt x="893" y="226" on="1"/>
        <pt x="893" y="256" on="0"/>
        <pt x="847" y="288" on="0"/>
        <pt x="820" y="288" on="1"/>
        <pt x="776" y="288" on="0"/>
        <pt x="720" y="236" on="0"/>
        <pt x="684" y="161" on="0"/>
        <pt x="665" y="77" on="0"/>
        <pt x="658" y="45" on="1"/>
        <pt x="621" y="407" on="1"/>
        <pt x="640" y="388" on="0"/>
        <pt x="678" y="351" on="0"/>
        <pt x="695" y="331" on="1"/>
        <pt x="724" y="354" on="0"/>
        <pt x="792" y="380" on="0"/>
        <pt x="828" y="380" on="1"/>
        <pt x="860" y="380" on="0"/>
        <pt x="928" y="359" on="0"/>
        <pt x="983" y="318" on="0"/>
        <pt x="1018" y="261" on="0"/>
        <pt x="1018" y="225" on="1"/>
        <pt x="1018" y="183" on="0"/>
        <pt x="988" y="127" on="0"/>
        <pt x="941" y="88" on="0"/>
        <pt x="882" y="60" on="0"/>
        <pt x="822" y="30" on="0"/>
        <pt x="768" y="-6" on="0"/>
        <pt x="750" y="-34" on="1"/>
        <pt x="911" y="-29" on="1"/>
        <pt x="937" y="15" on="0"/>
        <pt x="994" y="97" on="0"/>
      </contour>
      <contour>
        <pt x="853" y="829" on="1"/>
        <pt x="249" y="-139" on="1"/>
        <pt x="159" y="-86" on="1"/>
        <pt x="729" y="885" on="1"/>
        <pt x="740" y="905" on="1"/>
      </contour>
      <contour>
        <pt x="390" y="359" on="1"/>
        <pt x="45" y="361" on="1"/>
        <pt x="77" y="383" on="0"/>
        <pt x="141" y="426" on="0"/>
        <pt x="174" y="445" on="1"/>
        <pt x="161" y="767" on="1"/>
        <pt x="117" y="777" on="0"/>
        <pt x="33" y="800" on="0"/>
        <pt x="-10" y="811" on="1"/>
        <pt x="69" y="831" on="0"/>
        <pt x="226" y="871" on="0"/>
        <pt x="305" y="889" on="1"/>
        <pt x="292" y="443" on="1"/>
        <pt x="318" y="426" on="0"/>
        <pt x="367" y="381" on="0"/>
      </contour>
    </TTGlyph>
    <TTGlyph name="onequarter" xMin="-10" yMin="-139" xMax="941" yMax="905">
      <contour>
        <pt x="941" y="-86" on="1"/>
        <pt x="502" y="-89" on="1"/>
        <pt x="699" y="-11" on="1"/>
        <pt x="696" y="69" on="1"/>
        <pt x="445" y="65" on="1"/>
        <pt x="823" y="512" on="1"/>
        <pt x="814" y="145" on="1"/>
        <pt x="825" y="145" on="1"/>
        <pt x="903" y="287" on="1"/>
        <pt x="892" y="-27" on="1"/>
        <pt x="829" y="71" on="1"/>
        <pt x="811" y="71" on="1"/>
        <pt x="808" y="-13" on="1"/>
      </contour>
      <contour>
        <pt x="853" y="829" on="1"/>
        <pt x="249" y="-139" on="1"/>
        <pt x="159" y="-86" on="1"/>
        <pt x="729" y="885" on="1"/>
        <pt x="740" y="905" on="1"/>
      </contour>
      <contour>
        <pt x="390" y="359" on="1"/>
        <pt x="45" y="361" on="1"/>
        <pt x="77" y="383" on="0"/>
        <pt x="141" y="426" on="0"/>
        <pt x="174" y="445" on="1"/>
        <pt x="161" y="767" on="1"/>
        <pt x="117" y="777" on="0"/>
        <pt x="33" y="800" on="0"/>
        <pt x="-10" y="811" on="1"/>
        <pt x="69" y="831" on="0"/>
        <pt x="226" y="871" on="0"/>
        <pt x="305" y="889" on="1"/>
        <pt x="292" y="443" on="1"/>
        <pt x="318" y="426" on="0"/>
        <pt x="367" y="381" on="0"/>
      </contour>
      <contour>
        <pt x="693" y="143" on="1"/>
        <pt x="692" y="218" on="1"/>
        <pt x="676" y="200" on="0"/>
        <pt x="645" y="161" on="0"/>
        <pt x="628" y="142" on="1"/>
      </contour>
    </TTGlyph>
    <TTGlyph name="onesuperior" xMin="-10" yMin="359" xMax="390" yMax="889">
      <contour>
        <pt x="390" y="359" on="1"/>
        <pt x="45" y="361" on="1"/>
        <pt x="77" y="383" on="0"/>
        <pt x="141" y="426" on="0"/>
        <pt x="174" y="445" on="1"/>
        <pt x="161" y="767" on="1"/>
        <pt x="117" y="777" on="0"/>
        <pt x="33" y="800" on="0"/>
        <pt x="-10" y="811" on="1"/>
        <pt x="69" y="831" on="0"/>
        <pt x="226" y="871" on="0"/>
        <pt x="305" y="889" on="1"/>
        <pt x="292" y="443" on="1"/>
        <pt x="318" y="426" on="0"/>
        <pt x="367" y="381" on="0"/>
      </contour>
    </TTGlyph>
    <TTGlyph name="ordfeminine" xMin="-10" yMin="393" xMax="451" yMax="810">
      <contour>
        <pt x="451" y="409" on="1"/>
        <pt x="206" y="393" on="1"/>
        <pt x="210" y="431" on="1"/>
        <pt x="186" y="428" on="0"/>
        <pt x="160" y="428" on="1"/>
        <pt x="136" y="428" on="0"/>
        <pt x="77" y="434" on="0"/>
        <pt x="25" y="455" on="0"/>
        <pt x="-10" y="492" on="0"/>
        <pt x="-10" y="524" on="1"/>
        <pt x="-10" y="555" on="0"/>
        <pt x="17" y="596" on="0"/>
        <pt x="60" y="621" on="0"/>
        <pt x="113" y="632" on="0"/>
        <pt x="138" y="632" on="1"/>
        <pt x="163" y="632" on="0"/>
        <pt x="213" y="627" on="0"/>
        <pt x="238" y="625" on="1"/>
        <pt x="239" y="632" on="0"/>
        <pt x="240" y="645" on="0"/>
        <pt x="240" y="653" on="1"/>
        <pt x="240" y="669" on="0"/>
        <pt x="235" y="700" on="0"/>
        <pt x="222" y="725" on="0"/>
        <pt x="197" y="741" on="0"/>
        <pt x="178" y="741" on="1"/>
        <pt x="167" y="741" on="0"/>
        <pt x="135" y="739" on="0"/>
        <pt x="124" y="731" on="1"/>
        <pt x="139" y="716" on="0"/>
        <pt x="139" y="695" on="1"/>
        <pt x="139" y="667" on="0"/>
        <pt x="96" y="636" on="0"/>
        <pt x="71" y="636" on="1"/>
        <pt x="45" y="636" on="0"/>
        <pt x="8" y="668" on="0"/>
        <pt x="8" y="694" on="1"/>
        <pt x="8" y="726" on="0"/>
        <pt x="44" y="770" on="0"/>
        <pt x="96" y="798" on="0"/>
        <pt x="157" y="810" on="0"/>
        <pt x="182" y="810" on="1"/>
        <pt x="265" y="810" on="0"/>
        <pt x="356" y="735" on="0"/>
        <pt x="356" y="648" on="1"/>
        <pt x="356" y="639" on="0"/>
        <pt x="355" y="622" on="0"/>
        <pt x="354" y="612" on="1"/>
        <pt x="340" y="463" on="1"/>
      </contour>
      <contour>
        <pt x="228" y="564" on="1"/>
        <pt x="214" y="566" on="0"/>
        <pt x="185" y="569" on="0"/>
        <pt x="171" y="569" on="1"/>
        <pt x="151" y="569" on="0"/>
        <pt x="118" y="552" on="0"/>
        <pt x="118" y="529" on="1"/>
        <pt x="118" y="515" on="0"/>
        <pt x="146" y="497" on="0"/>
        <pt x="160" y="497" on="1"/>
        <pt x="174" y="497" on="0"/>
        <pt x="206" y="500" on="0"/>
        <pt x="220" y="502" on="1"/>
      </contour>
    </TTGlyph>
    <TTGlyph name="ordmasculine" xMin="-20" yMin="431" xMax="470" yMax="784">
      <contour>
        <pt x="470" y="609" on="1"/>
        <pt x="470" y="561" on="0"/>
        <pt x="422" y="493" on="0"/>
        <pt x="348" y="450" on="0"/>
        <pt x="260" y="431" on="0"/>
        <pt x="220" y="431" on="1"/>
        <pt x="180" y="431" on="0"/>
        <pt x="95" y="451" on="0"/>
        <pt x="25" y="494" on="0"/>
        <pt x="-20" y="562" on="0"/>
        <pt x="-20" y="609" on="1"/>
        <pt x="-20" y="660" on="0"/>
        <pt x="28" y="727" on="0"/>
        <pt x="102" y="768" on="0"/>
        <pt x="192" y="784" on="0"/>
        <pt x="234" y="784" on="1"/>
        <pt x="274" y="784" on="0"/>
        <pt x="357" y="764" on="0"/>
        <pt x="426" y="721" on="0"/>
        <pt x="470" y="655" on="0"/>
      </contour>
      <contour>
        <pt x="342" y="610" on="1"/>
        <pt x="342" y="656" on="0"/>
        <pt x="279" y="713" on="0"/>
        <pt x="234" y="713" on="1"/>
        <pt x="212" y="713" on="0"/>
        <pt x="167" y="700" on="0"/>
        <pt x="130" y="675" on="0"/>
        <pt x="106" y="636" on="0"/>
        <pt x="106" y="611" on="1"/>
        <pt x="106" y="563" on="0"/>
        <pt x="168" y="502" on="0"/>
        <pt x="217" y="502" on="1"/>
        <pt x="244" y="502" on="0"/>
        <pt x="289" y="514" on="0"/>
        <pt x="323" y="540" on="0"/>
        <pt x="342" y="581" on="0"/>
      </contour>
    </TTGlyph>
    <TTGlyph name="oslash" xMin="10" yMin="-133" xMax="712" yMax="622">
      <contour>
        <pt x="712" y="242" on="1"/>
        <pt x="712" y="173" on="0"/>
        <pt x="643" y="78" on="0"/>
        <pt x="536" y="19" on="0"/>
        <pt x="410" y="-8" on="0"/>
        <pt x="353" y="-8" on="1"/>
        <pt x="323" y="-8" on="0"/>
        <pt x="295" y="-5" on="1"/>
        <pt x="216" y="-133" on="1"/>
        <pt x="117" y="-74" on="1"/>
        <pt x="174" y="26" on="1"/>
        <pt x="139" y="40" on="0"/>
        <pt x="80" y="81" on="0"/>
        <pt x="35" y="136" on="0"/>
        <pt x="10" y="203" on="0"/>
        <pt x="10" y="242" on="1"/>
        <pt x="10" y="315" on="0"/>
        <pt x="80" y="411" on="0"/>
        <pt x="187" y="467" on="0"/>
        <pt x="316" y="489" on="0"/>
        <pt x="376" y="489" on="1"/>
        <pt x="392" y="489" on="0"/>
        <pt x="424" y="487" on="0"/>
        <pt x="439" y="485" on="1"/>
        <pt x="518" y="622" on="1"/>
        <pt x="636" y="545" on="1"/>
        <pt x="574" y="445" on="1"/>
        <pt x="635" y="416" on="0"/>
        <pt x="712" y="313" on="0"/>
      </contour>
      <contour>
        <pt x="547" y="244" on="1"/>
        <pt x="547" y="301" on="0"/>
        <pt x="512" y="345" on="1"/>
        <pt x="343" y="73" on="1"/>
        <pt x="349" y="73" on="1"/>
        <pt x="391" y="73" on="0"/>
        <pt x="463" y="92" on="0"/>
        <pt x="517" y="134" on="0"/>
        <pt x="547" y="199" on="0"/>
      </contour>
      <contour>
        <pt x="394" y="407" on="1"/>
        <pt x="389" y="408" on="0"/>
        <pt x="381" y="408" on="0"/>
        <pt x="376" y="408" on="1"/>
        <pt x="340" y="408" on="0"/>
        <pt x="268" y="387" on="0"/>
        <pt x="210" y="347" on="0"/>
        <pt x="174" y="286" on="0"/>
        <pt x="174" y="247" on="1"/>
        <pt x="174" y="212" on="0"/>
        <pt x="202" y="140" on="0"/>
        <pt x="226" y="117" on="1"/>
      </contour>
    </TTGlyph>
    <TTGlyph name="otilde" xMin="10" yMin="-8" xMax="712" yMax="755">
      <component glyphName="o" x="0" y="0" flags="0x204"/>
      <component glyphName="tilde" x="-19" y="-153" flags="0x4"/>
    </TTGlyph>
    <TTGlyph name="p" xMin="-123" yMin="-251" xMax="731" yMax="571">
      <contour>
        <pt x="731" y="259" on="1"/>
        <pt x="731" y="203" on="0"/>
        <pt x="684" y="115" on="0"/>
        <pt x="607" y="55" on="0"/>
        <pt x="508" y="23" on="0"/>
        <pt x="456" y="23" on="1"/>
        <pt x="413" y="23" on="0"/>
        <pt x="328" y="36" on="0"/>
        <pt x="288" y="51" on="1"/>
        <pt x="291" y="-144" on="1"/>
        <pt x="498" y="-228" on="1"/>
        <pt x="-73" y="-251" on="1"/>
        <pt x="150" y="-151" on="1"/>
        <pt x="148" y="-114" on="0"/>
        <pt x="143" y="-23" on="0"/>
        <pt x="137" y="75" on="0"/>
        <pt x="131" y="175" on="0"/>
        <pt x="128" y="222" on="1"/>
        <pt x="121" y="331" on="0"/>
        <pt x="114" y="445" on="1"/>
        <pt x="-123" y="526" on="1"/>
        <pt x="286" y="571" on="1"/>
        <pt x="286" y="473" on="1"/>
        <pt x="357" y="493" on="0"/>
        <pt x="429" y="493" on="1"/>
        <pt x="483" y="493" on="0"/>
        <pt x="590" y="467" on="0"/>
        <pt x="677" y="411" on="0"/>
        <pt x="731" y="322" on="0"/>
      </contour>
      <contour>
        <pt x="579" y="267" on="1"/>
        <pt x="579" y="306" on="0"/>
        <pt x="545" y="360" on="0"/>
        <pt x="491" y="395" on="0"/>
        <pt x="424" y="411" on="0"/>
        <pt x="391" y="411" on="1"/>
        <pt x="364" y="411" on="0"/>
        <pt x="311" y="398" on="0"/>
        <pt x="287" y="387" on="1"/>
        <pt x="287" y="141" on="1"/>
        <pt x="316" y="127" on="0"/>
        <pt x="386" y="113" on="0"/>
        <pt x="418" y="113" on="1"/>
        <pt x="453" y="113" on="0"/>
        <pt x="512" y="134" on="0"/>
        <pt x="555" y="174" on="0"/>
        <pt x="579" y="231" on="0"/>
      </contour>
    </TTGlyph>
    <TTGlyph name="paragraph" xMin="-20" yMin="-38" xMax="852" yMax="678">
      <contour>
        <pt x="852" y="678" on="1"/>
        <pt x="613" y="570" on="1"/>
        <pt x="606" y="101" on="1"/>
        <pt x="813" y="-6" on="1"/>
        <pt x="55" y="-38" on="1"/>
        <pt x="305" y="48" on="1"/>
        <pt x="308" y="307" on="1"/>
        <pt x="287" y="309" on="0"/>
        <pt x="222" y="321" on="0"/>
        <pt x="149" y="341" on="0"/>
        <pt x="76" y="369" on="0"/>
        <pt x="17" y="407" on="0"/>
        <pt x="-20" y="455" on="0"/>
        <pt x="-20" y="484" on="1"/>
        <pt x="-20" y="522" on="0"/>
        <pt x="22" y="577" on="0"/>
        <pt x="89" y="617" on="0"/>
        <pt x="173" y="642" on="0"/>
        <pt x="258" y="657" on="0"/>
        <pt x="337" y="663" on="0"/>
        <pt x="364" y="664" on="1"/>
        <pt x="535" y="669" on="1"/>
        <pt x="614" y="671" on="0"/>
        <pt x="772" y="676" on="0"/>
      </contour>
      <contour>
        <pt x="506" y="567" on="1"/>
        <pt x="487" y="568" on="0"/>
        <pt x="451" y="568" on="0"/>
        <pt x="432" y="569" on="1"/>
        <pt x="425" y="383" on="1"/>
        <pt x="444" y="383" on="0"/>
        <pt x="480" y="383" on="0"/>
        <pt x="500" y="384" on="1"/>
      </contour>
      <contour>
        <pt x="312" y="572" on="1"/>
        <pt x="296" y="571" on="0"/>
        <pt x="232" y="561" on="0"/>
        <pt x="167" y="540" on="0"/>
        <pt x="118" y="508" on="0"/>
        <pt x="118" y="484" on="1"/>
        <pt x="118" y="459" on="0"/>
        <pt x="165" y="424" on="0"/>
        <pt x="228" y="400" on="0"/>
        <pt x="292" y="388" on="0"/>
        <pt x="310" y="386" on="1"/>
      </contour>
      <contour>
        <pt x="498" y="295" on="1"/>
        <pt x="422" y="296" on="1"/>
        <pt x="414" y="89" on="1"/>
        <pt x="433" y="94" on="0"/>
        <pt x="471" y="109" on="0"/>
        <pt x="488" y="117" on="1"/>
      </contour>
    </TTGlyph>
    <TTGlyph name="parenleft" xMin="51" yMin="-152" xMax="404" yMax="861">
      <contour>
        <pt x="404" y="-152" on="1"/>
        <pt x="310" y="-120" on="0"/>
        <pt x="176" y="-28" on="0"/>
        <pt x="91" y="99" on="0"/>
        <pt x="51" y="263" on="0"/>
        <pt x="51" y="366" on="1"/>
        <pt x="51" y="468" on="0"/>
        <pt x="86" y="628" on="0"/>
        <pt x="168" y="748" on="0"/>
        <pt x="302" y="833" on="0"/>
        <pt x="401" y="861" on="1"/>
        <pt x="348" y="805" on="0"/>
        <pt x="272" y="702" on="0"/>
        <pt x="224" y="591" on="0"/>
        <pt x="202" y="463" on="0"/>
        <pt x="202" y="384" on="1"/>
        <pt x="202" y="303" on="0"/>
        <pt x="230" y="162" on="0"/>
        <pt x="282" y="33" on="0"/>
        <pt x="357" y="-90" on="0"/>
      </contour>
    </TTGlyph>
    <TTGlyph name="parenright" xMin="-10" yMin="-152" xMax="343" yMax="861">
      <contour>
        <pt x="343" y="366" on="1"/>
        <pt x="343" y="263" on="0"/>
        <pt x="304" y="99" on="0"/>
        <pt x="218" y="-28" on="0"/>
        <pt x="84" y="-120" on="0"/>
        <pt x="-10" y="-152" on="1"/>
        <pt x="38" y="-90" on="0"/>
        <pt x="113" y="33" on="0"/>
        <pt x="165" y="162" on="0"/>
        <pt x="193" y="303" on="0"/>
        <pt x="193" y="384" on="1"/>
        <pt x="193" y="463" on="0"/>
        <pt x="170" y="591" on="0"/>
        <pt x="122" y="702" on="0"/>
        <pt x="46" y="805" on="0"/>
        <pt x="-7" y="861" on="1"/>
        <pt x="92" y="833" on="0"/>
        <pt x="226" y="748" on="0"/>
        <pt x="308" y="628" on="0"/>
        <pt x="343" y="468" on="0"/>
      </contour>
    </TTGlyph>
    <TTGlyph name="percent" xMin="10" yMin="-49" xMax="694" yMax="799">
      <contour>
        <pt x="317" y="613" on="1"/>
        <pt x="317" y="580" on="0"/>
        <pt x="292" y="527" on="0"/>
        <pt x="249" y="491" on="0"/>
        <pt x="192" y="472" on="0"/>
        <pt x="161" y="472" on="1"/>
        <pt x="130" y="472" on="0"/>
        <pt x="75" y="492" on="0"/>
        <pt x="34" y="529" on="0"/>
        <pt x="10" y="581" on="0"/>
        <pt x="10" y="613" on="1"/>
        <pt x="10" y="649" on="0"/>
        <pt x="36" y="701" on="0"/>
        <pt x="79" y="735" on="0"/>
        <pt x="137" y="751" on="0"/>
        <pt x="170" y="751" on="1"/>
        <pt x="200" y="751" on="0"/>
        <pt x="254" y="731" on="0"/>
        <pt x="294" y="695" on="0"/>
        <pt x="317" y="644" on="0"/>
      </contour>
      <contour>
        <pt x="590" y="758" on="1"/>
        <pt x="238" y="-49" on="1"/>
        <pt x="130" y="-11" on="1"/>
        <pt x="456" y="799" on="1"/>
      </contour>
      <contour>
        <pt x="694" y="130" on="1"/>
        <pt x="694" y="97" on="0"/>
        <pt x="669" y="45" on="0"/>
        <pt x="626" y="9" on="0"/>
        <pt x="569" y="-10" on="0"/>
        <pt x="538" y="-10" on="1"/>
        <pt x="507" y="-10" on="0"/>
        <pt x="452" y="10" on="0"/>
        <pt x="411" y="46" on="0"/>
        <pt x="387" y="98" on="0"/>
        <pt x="387" y="130" on="1"/>
        <pt x="387" y="165" on="0"/>
        <pt x="413" y="217" on="0"/>
        <pt x="456" y="251" on="0"/>
        <pt x="514" y="268" on="0"/>
        <pt x="547" y="268" on="1"/>
        <pt x="577" y="268" on="0"/>
        <pt x="631" y="248" on="0"/>
        <pt x="671" y="212" on="0"/>
        <pt x="694" y="161" on="0"/>
      </contour>
      <contour>
        <pt x="211" y="614" on="1"/>
        <pt x="211" y="632" on="0"/>
        <pt x="190" y="672" on="0"/>
        <pt x="169" y="672" on="1"/>
        <pt x="145" y="672" on="0"/>
        <pt x="117" y="638" on="0"/>
        <pt x="117" y="615" on="1"/>
        <pt x="117" y="605" on="0"/>
        <pt x="121" y="583" on="0"/>
        <pt x="132" y="565" on="0"/>
        <pt x="149" y="553" on="0"/>
        <pt x="161" y="553" on="1"/>
        <pt x="190" y="553" on="0"/>
        <pt x="211" y="589" on="0"/>
      </contour>
      <contour>
        <pt x="589" y="131" on="1"/>
        <pt x="589" y="150" on="0"/>
        <pt x="567" y="188" on="0"/>
        <pt x="546" y="188" on="1"/>
        <pt x="523" y="188" on="0"/>
        <pt x="494" y="155" on="0"/>
        <pt x="494" y="132" on="1"/>
        <pt x="494" y="122" on="0"/>
        <pt x="498" y="100" on="0"/>
        <pt x="509" y="82" on="0"/>
        <pt x="526" y="70" on="0"/>
        <pt x="538" y="70" on="1"/>
        <pt x="566" y="70" on="0"/>
        <pt x="589" y="105" on="0"/>
      </contour>
    </TTGlyph>
    <TTGlyph name="period" xMin="10" yMin="-89" xMax="222" yMax="85">
      <contour>
        <pt x="222" y="-4" on="1"/>
        <pt x="222" y="-25" on="0"/>
        <pt x="204" y="-57" on="0"/>
        <pt x="175" y="-78" on="0"/>
        <pt x="138" y="-89" on="0"/>
        <pt x="119" y="-89" on="1"/>
        <pt x="101" y="-89" on="0"/>
        <pt x="62" y="-79" on="0"/>
        <pt x="30" y="-58" on="0"/>
        <pt x="10" y="-27" on="0"/>
        <pt x="10" y="-6" on="1"/>
        <pt x="10" y="16" on="0"/>
        <pt x="29" y="50" on="0"/>
        <pt x="60" y="73" on="0"/>
        <pt x="98" y="85" on="0"/>
        <pt x="118" y="85" on="1"/>
        <pt x="136" y="85" on="0"/>
        <pt x="173" y="72" on="0"/>
        <pt x="203" y="48" on="0"/>
        <pt x="222" y="15" on="0"/>
      </contour>
    </TTGlyph>
    <TTGlyph name="periodcentered" xMin="10" yMin="300" xMax="222" yMax="474">
      <contour>
        <pt x="222" y="385" on="1"/>
        <pt x="222" y="364" on="0"/>
        <pt x="204" y="333" on="0"/>
        <pt x="175" y="311" on="0"/>
        <pt x="138" y="300" on="0"/>
        <pt x="119" y="300" on="1"/>
        <pt x="101" y="300" on="0"/>
        <pt x="62" y="310" on="0"/>
        <pt x="30" y="331" on="0"/>
        <pt x="10" y="362" on="0"/>
        <pt x="10" y="383" on="1"/>
        <pt x="10" y="405" on="0"/>
        <pt x="29" y="439" on="0"/>
        <pt x="60" y="462" on="0"/>
        <pt x="98" y="474" on="0"/>
        <pt x="118" y="474" on="1"/>
        <pt x="136" y="474" on="0"/>
        <pt x="173" y="461" on="0"/>
        <pt x="203" y="437" on="0"/>
        <pt x="222" y="404" on="0"/>
      </contour>
    </TTGlyph>
    <TTGlyph name="perthousand" xMin="0" yMin="-49" xMax="951" yMax="799">
      <contour>
        <pt x="951" y="130" on="1"/>
        <pt x="951" y="97" on="0"/>
        <pt x="925" y="45" on="0"/>
        <pt x="882" y="9" on="0"/>
        <pt x="825" y="-10" on="0"/>
        <pt x="794" y="-10" on="1"/>
        <pt x="756" y="-10" on="0"/>
        <pt x="684" y="23" on="0"/>
        <pt x="664" y="56" on="1"/>
        <pt x="642" y="22" on="0"/>
        <pt x="567" y="-10" on="0"/>
        <pt x="527" y="-10" on="1"/>
        <pt x="496" y="-10" on="0"/>
        <pt x="442" y="10" on="0"/>
        <pt x="401" y="46" on="0"/>
        <pt x="377" y="98" on="0"/>
        <pt x="377" y="130" on="1"/>
        <pt x="377" y="165" on="0"/>
        <pt x="403" y="217" on="0"/>
        <pt x="446" y="251" on="0"/>
        <pt x="504" y="268" on="0"/>
        <pt x="537" y="268" on="1"/>
        <pt x="574" y="268" on="0"/>
        <pt x="643" y="236" on="0"/>
        <pt x="664" y="204" on="1"/>
        <pt x="686" y="240" on="0"/>
        <pt x="764" y="268" on="0"/>
        <pt x="804" y="268" on="1"/>
        <pt x="834" y="268" on="0"/>
        <pt x="888" y="248" on="0"/>
        <pt x="928" y="212" on="0"/>
        <pt x="951" y="161" on="0"/>
      </contour>
      <contour>
        <pt x="307" y="613" on="1"/>
        <pt x="307" y="580" on="0"/>
        <pt x="281" y="527" on="0"/>
        <pt x="238" y="491" on="0"/>
        <pt x="182" y="472" on="0"/>
        <pt x="151" y="472" on="1"/>
        <pt x="120" y="472" on="0"/>
        <pt x="65" y="492" on="0"/>
        <pt x="24" y="529" on="0"/>
        <pt x="0" y="581" on="0"/>
        <pt x="0" y="613" on="1"/>
        <pt x="0" y="649" on="0"/>
        <pt x="26" y="701" on="0"/>
        <pt x="69" y="735" on="0"/>
        <pt x="127" y="751" on="0"/>
        <pt x="160" y="751" on="1"/>
        <pt x="190" y="751" on="0"/>
        <pt x="244" y="731" on="0"/>
        <pt x="284" y="695" on="0"/>
        <pt x="307" y="644" on="0"/>
      </contour>
      <contour>
        <pt x="580" y="758" on="1"/>
        <pt x="227" y="-49" on="1"/>
        <pt x="120" y="-11" on="1"/>
        <pt x="201" y="193" on="0"/>
        <pt x="364" y="595" on="0"/>
        <pt x="445" y="799" on="1"/>
      </contour>
      <contour>
        <pt x="845" y="131" on="1"/>
        <pt x="845" y="150" on="0"/>
        <pt x="823" y="188" on="0"/>
        <pt x="802" y="188" on="1"/>
        <pt x="779" y="188" on="0"/>
        <pt x="750" y="155" on="0"/>
        <pt x="750" y="132" on="1"/>
        <pt x="750" y="122" on="0"/>
        <pt x="755" y="100" on="0"/>
        <pt x="765" y="82" on="0"/>
        <pt x="782" y="70" on="0"/>
        <pt x="794" y="70" on="1"/>
        <pt x="822" y="70" on="0"/>
        <pt x="845" y="105" on="0"/>
      </contour>
      <contour>
        <pt x="201" y="614" on="1"/>
        <pt x="201" y="632" on="0"/>
        <pt x="179" y="672" on="0"/>
        <pt x="159" y="672" on="1"/>
        <pt x="135" y="672" on="0"/>
        <pt x="106" y="638" on="0"/>
        <pt x="106" y="615" on="1"/>
        <pt x="106" y="605" on="0"/>
        <pt x="111" y="583" on="0"/>
        <pt x="121" y="565" on="0"/>
        <pt x="139" y="553" on="0"/>
        <pt x="151" y="553" on="1"/>
        <pt x="179" y="553" on="0"/>
        <pt x="201" y="589" on="0"/>
      </contour>
      <contour>
        <pt x="579" y="131" on="1"/>
        <pt x="579" y="150" on="0"/>
        <pt x="557" y="188" on="0"/>
        <pt x="536" y="188" on="1"/>
        <pt x="513" y="188" on="0"/>
        <pt x="483" y="155" on="0"/>
        <pt x="483" y="132" on="1"/>
        <pt x="483" y="122" on="0"/>
        <pt x="488" y="100" on="0"/>
        <pt x="498" y="82" on="0"/>
        <pt x="515" y="70" on="0"/>
        <pt x="527" y="70" on="1"/>
        <pt x="556" y="70" on="0"/>
        <pt x="579" y="105" on="0"/>
      </contour>
    </TTGlyph>
    <TTGlyph name="plus" xMin="10" yMin="37" xMax="611" yMax="639">
      <contour>
        <pt x="611" y="410" on="1"/>
        <pt x="603" y="283" on="1"/>
        <pt x="380" y="278" on="1"/>
        <pt x="370" y="37" on="1"/>
        <pt x="242" y="45" on="1"/>
        <pt x="236" y="273" on="1"/>
        <pt x="10" y="268" on="1"/>
        <pt x="16" y="435" on="1"/>
        <pt x="233" y="427" on="1"/>
        <pt x="227" y="639" on="1"/>
        <pt x="395" y="633" on="1"/>
        <pt x="386" y="420" on="1"/>
      </contour>
    </TTGlyph>
    <TTGlyph name="plusminus" xMin="20" yMin="7" xMax="601" yMax="647">
      <contour>
        <pt x="601" y="489" on="1"/>
        <pt x="593" y="362" on="1"/>
        <pt x="380" y="357" on="1"/>
        <pt x="370" y="198" on="1"/>
        <pt x="242" y="207" on="1"/>
        <pt x="236" y="353" on="1"/>
        <pt x="20" y="348" on="1"/>
        <pt x="27" y="515" on="1"/>
        <pt x="233" y="507" on="1"/>
        <pt x="227" y="647" on="1"/>
        <pt x="395" y="641" on="1"/>
        <pt x="386" y="500" on="1"/>
      </contour>
      <contour>
        <pt x="594" y="150" on="1"/>
        <pt x="586" y="23" on="1"/>
        <pt x="31" y="7" on="1"/>
        <pt x="36" y="178" on="1"/>
      </contour>
    </TTGlyph>
</ttFont>
